<svg width="43" height="43" viewBox="0 0 43 43" fill="none" xmlns="http://www.w3.org/2000/svg">
<g clip-path="url(#clip0_192017_644)">
<rect width="43" height="43" fill="white"/>
<g clip-path="url(#clip1_192017_644)">
<path d="M51 43V8.04201L-6 8.04199V43H51Z" fill="#E2ECFF"/>
<path d="M24.3524 13.458L33.6018 8.04199H18.9423L10.2384 13.458H24.3524Z" fill="#B0CBFF"/>
<path d="M24.3226 13.458V37.2557L10.0726 37.2552L10.0727 13.458H24.3226Z" fill="#82ACFF"/>
<path d="M23.3285 14.4427V19.6947L11.3983 19.6945L11.3985 14.4427H23.3285Z" fill="white" stroke="#B5CEFF" stroke-width="2"/>
<path d="M23.3285 19.6947V25.439L11.3983 25.4388L11.3985 19.6947H23.3285Z" fill="white" stroke="#B5CEFF" stroke-width="2"/>
<path d="M23.3285 25.439V30.855L11.3983 30.8548L11.3985 25.439H23.3285Z" fill="white" stroke="#B5CEFF" stroke-width="2"/>
<path d="M23.3285 30.855V36.1069L11.3983 36.1067L11.3985 30.855H23.3285Z" fill="white" stroke="#B5CEFF" stroke-width="2"/>
<path d="M24.3226 13.4175V37.4199L33.6017 32.0439V8.04199L24.3226 13.4175Z" fill="#4D89FF"/>
<path d="M51 8.20613V2.95422H-6V8.20613H51Z" fill="#B5CEFF"/>
<path d="M33.2703 6.03969L31.7376 4.15229H32.8872L31.3545 2.26489H32.1207L30.2049 0L28.2891 2.26489H29.0553L27.5226 4.15229H28.6722L27.1395 6.03969H29.8218V7.54962H30.588V6.03969H33.2703Z" fill="#CEE9D7"/>
<path d="M10.0727 6.03969L8.58138 4.15229H9.69984L8.20856 2.26489H8.9542L7.0901 0L5.226 2.26489H5.97164L4.48036 4.15229H5.59882L4.10754 6.03969H6.71728V7.54962H7.46292V6.03969H10.0727Z" fill="#CEE9D7"/>
<path d="M40.8925 6.03969L39.4012 4.15229H40.5197L39.0284 2.26489H39.774L37.9099 0L36.0458 2.26489H36.7915L35.3002 4.15229H36.4186L34.9274 6.03969H37.5371V7.54962H38.2827V6.03969H40.8925Z" fill="#CEE9D7"/>
<path d="M48.6803 6.03969L47.1475 4.15229H48.2972L46.7645 2.26489H47.5306L45.6148 0L43.699 2.26489H44.4652L42.9325 4.15229H44.0821L42.5494 6.03969H45.2318V7.54962H45.9979V6.03969H48.6803Z" fill="#CEE9D7"/>
<path d="M25.6482 6.03969L24.0741 4.15229H25.2547L23.6805 2.26489H24.4676L22.4999 0L20.5323 2.26489H21.3193L19.7452 4.15229H20.9258L19.3517 6.03969H22.1064V7.54962H22.8935V6.03969H25.6482Z" fill="#CEE9D7"/>
<path d="M18.3575 6.03969L16.7834 4.15229H17.964L16.3899 2.26489H17.177L15.2093 0L13.2416 2.26489H14.0287L12.4546 4.15229H13.6352L12.061 6.03969H14.8158V7.54962H15.6028V6.03969H18.3575Z" fill="#CEE9D7"/>
<path d="M2.45064 6.03969L0.917935 4.15229H2.06746L0.534759 2.26489H1.30111L-0.614769 0L-2.53065 2.26489H-1.7643L-3.297 4.15229H-2.14747L-3.68018 6.03969H-0.997945V7.54962H-0.231593V6.03969H2.45064Z" fill="#CEE9D7"/>
<path d="M17.032 8.20605H15.2094V11.8167H17.032V8.20605Z" fill="#82ACFF"/>
<path d="M17.032 8.20605H19.0204V10.4126L17.032 11.8167V8.20605Z" fill="#4C89FF"/>
<path d="M24.8198 8.20605H26.6425V10.4126L24.8198 11.8167V8.20605Z" fill="#4C89FF"/>
<path d="M24.8198 8.20605H22.8314V11.8167H24.8198V8.20605Z" fill="#82ACFF"/>
<path d="M17.1017 7.38549H15.375L17.1017 6.729H19.0203L17.1017 7.38549Z" fill="#4C89FF"/>
<path d="M24.5582 7.38549H22.8314L24.5582 6.729H26.4768L24.5582 7.38549Z" fill="#4C89FF"/>
<path d="M20.0243 10.0861C17.68 13.5987 18.3267 18.6904 19.0926 21.3784C19.2164 21.8131 19.6135 22.1072 20.0689 22.1335C20.3512 22.1499 20.6405 22.1171 20.8834 21.9736C23.3187 20.5346 22.9605 15.0651 22.4453 12.388L20.9764 14.0326L20.0243 10.0861Z" fill="#FFCC00"/>
<path d="M19.3995 13.8169C17.7882 16.231 18.2328 19.7303 18.7591 21.5776C18.8442 21.8765 19.1171 22.0785 19.4301 22.0966C19.6242 22.1078 19.823 22.0853 19.9899 21.9866C21.6636 20.9978 21.4173 17.2387 21.0633 15.3989L20.0538 16.5291L19.3995 13.8169Z" fill="#FF6B0A"/>
<path d="M14.5999 15.7112C10.8437 21.3393 11.8802 29.4975 13.107 33.8044C13.3055 34.5011 13.9418 34.9723 14.6713 35.0144C15.1239 35.0405 15.5875 34.9882 15.9765 34.7582C19.8784 32.4525 19.3046 23.689 18.4791 19.3995L16.1253 22.0345L14.5999 15.7112Z" fill="#FFCC00"/>
<path d="M13.5985 21.689C11.0169 25.557 11.7293 31.1637 12.5725 34.1237C12.7089 34.6026 13.1461 34.9262 13.6475 34.9553C13.9586 34.9733 14.2772 34.9372 14.5446 34.7792C17.2261 33.1946 16.8318 27.1718 16.2644 24.2238L14.6469 26.0348L13.5985 21.689Z" fill="#FF6B0A"/>
<path d="M51 8.53436V8.04199H-6V8.53436H51Z" fill="white"/>
</g>
</g>
<defs>
<clipPath id="clip0_192017_644">
<rect width="43" height="43" fill="white"/>
</clipPath>
<clipPath id="clip1_192017_644">
<rect width="57" height="43" fill="white" transform="translate(-6)"/>
</clipPath>
</defs>
</svg>
