<svg width="342" height="262" viewBox="0 0 342 262" fill="none" xmlns="http://www.w3.org/2000/svg">
<path d="M342 262V49.0001L2 49V262L342 262Z" fill="#E2ECFF"/>
<path d="M183.179 82L239 49H150.529L98 82H183.179Z" fill="#B0CBFF"/>
<path d="M183 82L183 227L97 226.997L97.0006 82H183Z" fill="#82ACFF"/>
<path d="M177 88L177 120L105 119.999L105.001 88H177Z" fill="white" stroke="#B5CEFF" stroke-width="2"/>
<path d="M177 120L177 155L105 154.999L105.001 120H177Z" fill="white" stroke="#B5CEFF" stroke-width="2"/>
<path d="M177 155L177 188L105 187.999L105.001 155H177Z" fill="white" stroke="#B5CEFF" stroke-width="2"/>
<path d="M177 188L177 220L105 219.999L105.001 188H177Z" fill="white" stroke="#B5CEFF" stroke-width="2"/>
<path d="M183 81.7533L183 228L239 195.244L239 49L183 81.7533Z" fill="#4D89FF"/>
<path d="M342 50V18L2 18V50L342 50Z" fill="#B5CEFF"/>
<path d="M234.244 36.5191L225.102 25.1069H231.958L222.816 13.6947H227.387L215.959 0L204.531 13.6947H209.102L199.96 25.1069H206.817L197.674 36.5191H213.674V45.6489H218.245V36.5191H234.244Z" fill="#CEE9D7"/>
<path d="M95.8719 36.5191L86.9766 25.1069H93.6481L84.7527 13.6947H89.2004L78.0812 0L66.962 13.6947H71.4097L62.5144 25.1069H69.1859L60.2905 36.5191H75.8574V45.6489H80.3051V36.5191H95.8719Z" fill="#CEE9D7"/>
<path d="M279.709 36.5191L270.814 25.1069H277.485L268.59 13.6947H273.038L261.919 0L250.799 13.6947H255.247L246.352 25.1069H253.023L244.128 36.5191H259.695V45.6489H264.142V36.5191H279.709Z" fill="#CEE9D7"/>
<path d="M326.163 36.5191L317.02 25.1069H323.877L314.734 13.6947H319.306L307.878 0L296.45 13.6947H301.021L291.878 25.1069H298.735L289.593 36.5191H305.592V45.6489H310.163V36.5191H326.163Z" fill="#CEE9D7"/>
<path d="M188.779 36.5191L179.389 25.1069H186.431L177.042 13.6947H181.737L170 0L158.263 13.6947H162.958L153.568 25.1069H160.61L151.221 36.5191H167.652V45.6489H172.347V36.5191H188.779Z" fill="#CEE9D7"/>
<path d="M145.291 36.5191L135.901 25.1069H142.943L133.554 13.6947H138.248L126.511 0L114.775 13.6947H119.469L110.08 25.1069H117.122L107.732 36.5191H124.164V45.6489H128.859V36.5191H145.291Z" fill="#CEE9D7"/>
<path d="M50.4072 36.5191L41.2647 25.1069H48.1216L38.9791 13.6947H43.5503L32.1223 0L20.6942 13.6947H25.2655L16.123 25.1069H22.9798L13.8374 36.5191H29.8367V45.6489H34.4079V36.5191H50.4072Z" fill="#CEE9D7"/>
<rect x="128" y="50" width="11" height="22" fill="#82ACFF"/>
<path d="M139 50H151V63.4444L139 72V50Z" fill="#4C89FF"/>
<path d="M186 50H197V63.4444L186 72V50Z" fill="#4C89FF"/>
<rect x="174" y="50" width="12" height="22" fill="#82ACFF"/>
<path d="M139.421 45H129L139.421 41H151L139.421 45Z" fill="#4C89FF"/>
<path d="M184.421 45H174L184.421 41H196L184.421 45Z" fill="#4C89FF"/>
<path d="M157.059 61.4548C142.911 82.8571 146.814 113.881 151.436 130.259C152.183 132.908 154.58 134.7 157.328 134.86C159.032 134.96 160.778 134.76 162.244 133.886C176.941 125.118 174.779 91.7924 171.67 75.4807L162.805 85.5009L157.059 61.4548Z" fill="#FFCC00"/>
<path d="M153.288 84.1866C143.564 98.8955 146.247 120.217 149.423 131.473C149.937 133.294 151.584 134.525 153.473 134.635C154.644 134.703 155.844 134.566 156.851 133.965C166.952 127.94 165.466 105.036 163.329 93.826L157.237 100.712L153.288 84.1866Z" fill="#FF6B0A"/>
<path d="M124.322 95.7288C101.653 130.021 107.908 179.729 115.312 205.971C116.51 210.216 120.35 213.087 124.753 213.344C127.484 213.503 130.282 213.184 132.63 211.783C156.178 197.734 152.715 144.338 147.733 118.202L133.528 134.257L124.322 95.7288Z" fill="#FFCC00"/>
<path d="M118.279 132.151C102.699 155.719 106.998 189.881 112.087 207.916C112.91 210.834 115.549 212.806 118.575 212.983C120.452 213.093 122.375 212.873 123.989 211.91C140.172 202.255 137.792 165.558 134.368 147.596L124.606 158.63L118.279 132.151Z" fill="#FF6B0A"/>
<path d="M342 52V49H2V52L342 52Z" fill="white"/>
</svg>
