<svg width="146" height="151" viewBox="0 0 146 151" fill="none" xmlns="http://www.w3.org/2000/svg">
<g clip-path="url(#clip0_191923_7129)">
<path d="M147 134V42L-1 42V134L147 134Z" fill="#E2ECFF"/>
<path d="M77.8115 56.1461L101.898 42.001H63.7232L41.0569 56.1461H77.8115Z" fill="#B0CBFF"/>
<path d="M77.7754 56.1264L77.7754 118.845L41 118.843L41.0003 56.1264H77.7754Z" fill="#82ACFF"/>
<path d="M75 59L75 73L44 72.9997L44.0002 59H75Z" fill="white" stroke="#B5CEFF" stroke-width="2"/>
<path d="M75 73L75 88L44 87.9997L44.0002 73H75Z" fill="white" stroke="#B5CEFF" stroke-width="2"/>
<path d="M75 88L75 102L44 102L44.0002 88H75Z" fill="white" stroke="#B5CEFF" stroke-width="2"/>
<path d="M75 102L75 116L44 116L44.0002 102H75Z" fill="white" stroke="#B5CEFF" stroke-width="2"/>
<path d="M77.8115 56.1461L77.8115 119.305L101.784 105.159L101.784 42.001L77.8115 56.1461Z" fill="#4D89FF"/>
<path d="M147 43V29L-1 29V43L147 43Z" fill="#B5CEFF"/>
<path d="M147 43V42H-1V43L147 43Z" fill="white"/>
<path d="M101 37L97 32H100L96 27H98L93 21L88 27H90L86 32H89L85 37H92V41H94V37H101Z" fill="#CEE9D7"/>
<path d="M41 37L37 32H40L36 27H38L33 21L28 27H30L26 32H29L25 37H32V41H34V37H41Z" fill="#CEE9D7"/>
<path d="M121 37L117 32H120L116 27H118L113 21L108 27H110L106 32H109L105 37H112V41H114V37H121Z" fill="#CEE9D7"/>
<path d="M141 37L137 32H140L136 27H138L133 21L128 27H130L126 32H129L125 37H132V41H134V37H141Z" fill="#CEE9D7"/>
<path d="M81 37L77 32H80L76 27H78L73 21L68 27H70L66 32H69L65 37H72V41H74V37H81Z" fill="#CEE9D7"/>
<path d="M62 37L58 32H61L57 27H59L54 21L49 27H51L47 32H50L46 37H53V41H55V37H62Z" fill="#CEE9D7"/>
<path d="M21 37L17 32H20L16 27H18L13 21L8 27H10L6 32H9L5 37H12V41H14V37H21Z" fill="#CEE9D7"/>
<rect x="54" y="43" width="5" height="9" fill="#82ACFF"/>
<path d="M59 43H64V48.5L59 52V43Z" fill="#4C89FF"/>
<path d="M79 43H84V48.5L79 52V43Z" fill="#4C89FF"/>
<rect x="74" y="43" width="5" height="9" fill="#82ACFF"/>
<path d="M59 40.5H54.5L59 39H64L59 40.5Z" fill="#4C89FF"/>
<path d="M78.5 40.5H74L78.5 39H83.5L78.5 40.5Z" fill="#4C89FF"/>
</g>
<defs>
<clipPath id="clip0_191923_7129">
<rect width="146" height="151" fill="white"/>
</clipPath>
</defs>
</svg>
