<svg width="43" height="43" viewBox="0 0 43 43" fill="none" xmlns="http://www.w3.org/2000/svg">
<rect width="43" height="43" fill="white"/>
<g clip-path="url(#clip0_192017_673)">
<path d="M36.6011 17.6379L36.496 16.8066L35.0506 15.3547L33.7718 14.9669L33.4389 13.5039L32.6505 12.8501L31.652 11.2541L31.2053 10.0572L30.3031 8.97107V7.63006L29.6461 6.74343L29.9176 5.59083L29.6986 4.5712L28.0255 3.86191H27.4649L27.027 3.23019L25.9057 3.607L24.8984 4.5158L24.1713 3.04179L23.3392 2.91987L22.402 3.4186L21.6137 2L20.7816 2.58739L20.107 2.08866L19.161 2.33249L18.8719 3.23019L18.2062 3.607L18.0398 4.74853L16.428 5.01451L15.2017 5.65731L14.3083 6.99834L14.9302 7.30866V8.20636L13.5812 8.91566L12.8542 10.3786L12.3111 10.5005L12.0833 11.8304L13.0819 12.4178V13.3709H12.241L11.9607 12.8501L11.295 13.105L10.9008 14.2576L9.79714 14.324L10.1738 15.5986L9.50807 15.6651L8.50949 16.2303L7.51092 15.6651L6.1094 16.1749L5.25098 16.8399L5.43492 17.1723L6.02181 19.2004L6.54737 20.1426L6.72256 21.2176L7.16929 21.672L7.18682 24.4316L6.40722 24.764L5.82911 25.8501L6.12692 27.1357L6.91527 28.5766L6.88023 29.0199L7.4934 28.9311L8.75476 29.6626L9.42923 29.2414L12.1272 28.7981L13.336 28.7317L14.1418 27.978L14.6323 28.0113L15.5784 28.6097L17.8033 28.9866L18.7492 29.5297L18.9157 30.0394L20.256 29.441L20.8866 30.0949L21.4121 30.0727L21.7538 29.6959L22.9188 29.8843L23.4531 30.1724L24.6532 29.3301L25.7131 29.4853L25.8619 30.3387L26.5102 30.5714L27.2284 29.5629L28.0255 29.5074L28.6825 30.0173L29.7949 29.6294L30.4695 30.2944L31.3104 30.1724L31.3892 28.6763L31.9323 26.9806L33.071 26.8587L34.7177 26.3821L34.8317 26.4043V25.285L33.9382 24.1434L34.052 22.9354L33.2636 21.5279L33.2024 20.4417L33.544 19.7324L34.3849 20.6301L36.3908 20.3087L37.1617 18.8569L37.6084 18.4136L36.6011 17.6379Z" fill="#B0CBFF"/>
<path d="M30.4787 13.2469C27.2895 18.1458 28.1695 25.247 29.2111 28.9958C29.3797 29.6023 29.9199 30.0124 30.5394 30.0491C30.9236 30.0718 31.3172 30.0263 31.6475 29.8261C34.9604 27.8191 34.4732 20.1911 33.7723 16.4574L31.7739 18.751L30.4787 13.2469Z" fill="#FFCC00"/>
<path d="M6.14037 9.24695C2.95117 14.1458 3.83111 21.247 4.87281 24.9958C5.04133 25.6023 5.58158 26.0124 6.20106 26.0491C6.58517 26.0718 6.9788 26.0263 7.30924 25.8261C10.6221 23.8191 10.1348 16.1911 9.43389 12.4574L7.43556 14.751L6.14037 9.24695Z" fill="#FFCC00"/>
<path d="M29.6286 18.4502C27.4368 21.8171 28.0416 26.6973 28.7575 29.2738C28.8733 29.6906 29.2446 29.9723 29.6703 29.9976C29.9344 30.0133 30.2049 29.9819 30.432 29.8443C32.7087 28.4651 32.3738 23.2226 31.8921 20.6566L30.5188 22.2329L29.6286 18.4502Z" fill="#FF6B0A"/>
<path d="M5.29025 14.4502C3.09844 17.8171 3.70319 22.6973 4.41912 25.2738C4.53493 25.6906 4.90622 25.9723 5.33196 25.9976C5.59594 26.0133 5.86648 25.9819 6.09357 25.8443C8.37032 24.4651 8.03548 19.2226 7.55375 16.6566L6.18039 18.2329L5.29025 14.4502Z" fill="#FF6B0A"/>
<mask id="mask0_192017_673" style="mask-type:alpha" maskUnits="userSpaceOnUse" x="3" y="0" width="37" height="43">
<path d="M36.6236 0H6.37643C4.51168 0 3 1.53502 3 3.42857V39.5714C3 41.465 4.51168 43 6.37643 43H36.6236C38.4883 43 40 41.465 40 39.5714V3.42857C40 1.53502 38.4883 0 36.6236 0Z" fill="white"/>
</mask>
<g mask="url(#mask0_192017_673)">
<path d="M1.26123 20.877C1.12542 19.5043 5.66394 18.7014 8.603 18.3974C9.18033 18.3376 9.76174 18.3457 10.3395 18.4012L19.4567 19.2759C20.4951 19.3756 21.5121 19.6374 22.4719 20.0524L25.2308 21.2453C28.7276 22.757 31.0965 26.1292 31.3665 29.9784L32.0892 40.2857C32.4776 45.8272 28.461 50.6799 23.0183 51.2446C22.4802 51.3004 21.9384 51.3123 21.3983 51.2803L3.71702 50.2309C-0.895247 49.957 0.31478 47.3496 -0.726524 42.7789C-0.743448 42.7046 -0.766253 42.632 -0.795361 42.5613C-1.64007 40.5114 1.43522 37.7023 -0.364585 33.0897C-2.16439 28.4773 1.02403 28.5693 0.469969 24.7209C-0.0840885 20.8723 1.44888 22.7736 1.26123 20.877Z" fill="#28314D"/>
<path d="M11.9851 17.0656L21.2878 19.7491L24.1684 24.7946L25.8492 34.6983L20.8245 34.3808L11.9851 17.0656Z" fill="#E6EAFF"/>
<path d="M20.9586 38.7794C18.2999 35.9241 18.4654 27.3012 18.8804 23.3464L20.2371 23.8153L25.1548 37.9424C24.8637 39.4111 23.6171 41.6347 20.9586 38.7794Z" fill="#2E3956"/>
<path d="M8.66687 18.3873L12.0951 16.4178C14.8255 17.4204 18.7848 28.0071 20.4232 33.1753L8.66687 18.3873Z" fill="#343E5A"/>
<path d="M26.0988 24.5799L21.6715 20.4005C23.095 22.8469 23.2096 34.8757 24.3722 40.4419C26.3898 37.0179 27.2194 28.3458 26.0988 24.5799Z" fill="#343E5A"/>
<path d="M29.7994 23.4231C30.067 23.5518 31.8165 25.0073 32.711 27.7777C33.829 31.2407 38.4391 38.4613 37.9795 41.4594C37.5926 43.9821 34.2471 49.8488 32.8556 50.1264C31.464 50.404 26.8329 51.3141 27.4847 43.448C27.817 42.5208 30.3468 41.6123 31.2424 40.487C31.3564 40.3437 31.4561 40.2385 31.5435 40.1651L30.2503 38.2891C29.0867 34.8998 26.6396 21.1243 29.7994 23.4231Z" fill="#28314D"/>
<path d="M16.9551 22.7181L17.4754 21.2377C17.9816 20.4724 20.2448 21.3261 21.3131 21.8487C21.3185 22.1851 21.2304 23.1007 20.8356 24.0714C20.4409 25.0421 17.3731 23.0063 16.9551 22.7181Z" fill="#2E3956"/>
<path d="M32.8091 33.9013C31.9279 32.3114 27.04 32.5341 24.7061 32.8441L23.782 38.3754C25.245 39.0658 28.6263 40.3557 30.4472 39.9924C32.7233 39.5384 31.476 39.2297 32.9646 38.9328C34.1556 38.6953 33.6891 37.1955 33.3072 36.4754C34.7609 36.9248 36.0011 38.7025 36.9087 38.7035C37.8164 38.7044 36.9267 37.8694 35.4861 36.0407C34.3337 34.5778 33.2213 34.0048 32.8091 33.9013Z" fill="#DBB9AD"/>
<path d="M1.78051 37.6334C-2.10881 35.9402 -0.799879 27.4545 0.633808 22.2915C0.878979 21.4087 1.68379 20.8024 2.57468 20.9544C4.59216 21.2985 7.36798 22.3944 8.78667 25.0868C9.26596 25.9964 14.6863 31.9722 15.6958 32.0888C18.0895 32.3654 20.6595 32.7288 22.6772 33.0388C23.3957 33.1492 23.9633 33.7102 24.075 34.4392C24.496 37.1845 24.8716 41.178 23.9715 41.671C22.6647 42.3867 7.13893 39.9661 1.78051 37.6334Z" fill="#28314D"/>
<path d="M24.8769 32.7418L22.0722 33.3012C22.0722 33.3012 21.256 34.6813 21.0853 35.671C20.8129 37.2513 21.8651 39.58 21.8651 39.58C22.375 39.7247 23.5768 39.9068 25.3516 39.7341C26.6853 39.6043 25.7275 34.9384 24.8769 32.7418Z" fill="#E5EAFF"/>
<path d="M24.8768 32.7418L23.8628 32.9441C23.8628 32.9441 24.3012 34.3171 24.6042 35.5607C25.2018 38.0125 24.8508 39.7891 24.8508 39.7891L25.4116 39.7341C27.0254 39.4123 25.7274 34.9385 24.8768 32.7418Z" fill="#1B1411"/>
<path d="M25.06 34.1388L24.7964 34.1914C24.3389 34.2825 24.041 34.7331 24.1309 35.1977L24.2505 35.8158C24.3403 36.2802 24.7839 36.583 25.2414 36.4917L25.5049 36.4391C25.9624 36.3478 26.2604 35.8972 26.1705 35.4328L26.0509 34.8147C25.961 34.3501 25.5175 34.0475 25.06 34.1388Z" fill="#D2C7C7"/>
<path d="M29.355 49.3457C32.9727 45.5297 30.6448 43.1954 29.0287 42.5052C24.8097 41.7768 25.3615 48.8568 27.3485 49.746C28.9381 50.4572 29.3485 49.7755 29.355 49.3457Z" fill="#E5EAFF"/>
<path d="M29.4929 44.874C29.8068 43.8557 29.3949 43.2667 29.1495 43.0994C28.8818 42.8154 28.1537 42.6541 27.3842 44.2821C26.6145 45.91 25.546 45.2631 25.1081 44.7361C24.6207 45.1708 23.6504 46.4444 23.6675 48.061C23.6886 50.0818 25.9647 49.6278 26.5611 49.8728C27.1576 50.118 28.1031 48.4617 28.8905 48.3047C29.5205 48.179 29.3961 47.3468 29.2552 46.9464C30.2032 46.6117 29.8086 45.4253 29.4929 44.874Z" fill="#DBB9AD"/>
<path d="M16.9253 24.476L19.3778 20.3007L13.6722 14.7836L12.1119 16.5056L16.9253 24.476Z" fill="#E6EAFF"/>
<path d="M26.7741 41.7376C25.3896 42.0866 24.9114 44.0584 25.1 45.1887C26.5805 46.0766 28.5308 45.4903 28.4334 44.5238L28.405 42.6978C28.4382 42.2323 28.1585 41.3886 26.7741 41.7376Z" fill="#DBB9AD"/>
<path d="M22.5631 24.5458L20.562 20.804L22.6655 20.3844L22.5631 24.5458Z" fill="#E5EAFF"/>
<path d="M24.9866 9.97985C24.3777 6.5372 22.34 5.8233 21.077 5.94261C20.8929 5.95998 20.7079 5.97784 20.5259 6.01077C19.6826 6.16325 18.8278 6.99193 20.6712 9.4629C21.6822 10.818 22.6319 11.4903 23.4119 11.779C24.4434 12.1608 25.1799 11.0731 24.9866 9.97985Z" fill="#AEA7A0"/>
<path d="M14.0592 17.0391C10.261 11.5691 12.4875 7.63231 14.3642 6.66281C22.7093 2.59197 25.442 9.91321 25.6392 11.3435C25.8363 12.7737 24.9008 11.9497 25.3152 14.9088C25.7297 17.8678 24.5358 18.0938 24.9165 19.0343C25.2972 19.9747 24.8051 20.341 24.6302 20.9314C24.4555 21.522 18.807 23.8765 14.0592 17.0391Z" fill="#DBB9AD"/>
<path d="M24.8956 16.6367C25.1244 16.6868 25.2504 16.81 25.3057 16.9727C25.6158 17.8838 23.9405 18.5993 23.6753 17.6737C23.4625 16.9304 23.8882 16.4166 24.8956 16.6367Z" fill="#C77052"/>
<path d="M23.7099 16.257L23.8151 16.0742C23.9159 15.8997 24.0868 15.7782 24.2847 15.7408L24.9671 15.6117C25.2524 15.5577 25.5444 15.6864 25.7026 15.9358L25.7874 16.0695C26.0782 16.5281 25.7821 17.1242 25.2482 17.1552L25.1158 17.163C25.0678 17.1658 25.0202 17.1735 24.974 17.1861L24.5176 17.3101C23.9076 17.476 23.3935 16.8057 23.7099 16.257Z" fill="#3D2110"/>
<path d="M21.1258 11.5398C21.781 10.91 22.9982 11.3962 23.5249 11.7181C23.7979 11.8513 24.1551 11.916 23.4009 11.1093C22.4581 10.1009 20.8795 10.3316 20.3564 10.9851C19.8334 11.6385 20.3071 12.3271 21.1258 11.5398Z" fill="#C59881"/>
<path d="M22.1987 13.0339C22.1517 13.0434 22.1046 13.0507 22.0577 13.0558C21.3577 13.1329 21.4252 12.1334 22.1281 12.083C22.83 12.0328 22.8869 12.8941 22.1987 13.0339Z" fill="white"/>
<path d="M25.3442 11.2675C25.0264 11.0143 24.7479 11.511 24.6483 11.791C24.5905 11.9164 24.4941 12.0167 24.5715 11.4138C24.6681 10.6602 25.1916 10.5189 25.4737 10.8091C25.7557 11.0992 25.7414 11.5841 25.3442 11.2675Z" fill="#C59881"/>
<path d="M25.077 12.9189C25.1674 12.9538 25.2431 12.9257 25.305 12.8612C25.5742 12.5807 25.2922 11.8218 24.9532 12.0113C24.6109 12.2026 24.7063 12.7761 25.077 12.9189Z" fill="white"/>
<path d="M25.8334 15.5389C26.6373 14.9407 25.472 13.4571 24.7888 12.79C25.24 15.0027 23.593 14.8594 23.4913 15.345C23.3896 15.8307 24.8287 16.2864 25.8334 15.5389Z" fill="#DBB9AD"/>
<path fill-rule="evenodd" clip-rule="evenodd" d="M25.3555 12.0558C25.3752 12.0677 25.3887 12.0725 25.4031 12.0728C25.4764 12.0745 25.5287 12.1167 25.5594 12.168C25.5881 12.2161 25.6 12.2742 25.6028 12.3277C25.6058 12.3824 25.5999 12.4402 25.5861 12.4929C25.5724 12.5446 25.5496 12.5983 25.5141 12.6394C25.48 12.6788 25.4371 12.7065 25.386 12.7131C25.3362 12.7195 25.2916 12.7041 25.2562 12.6836C25.1889 12.6447 25.1307 12.5733 25.0865 12.5126C25.0636 12.481 25.0395 12.4344 25.0513 12.3811C25.0639 12.3242 25.1082 12.2971 25.1362 12.2856C25.1654 12.2736 25.1971 12.2694 25.2226 12.2681C25.2493 12.2666 25.2757 12.2679 25.2978 12.2703C25.3473 12.2758 25.3831 12.321 25.3776 12.3713C25.3722 12.4216 25.3276 12.4579 25.2781 12.4524C25.275 12.452 25.2718 12.4517 25.2684 12.4515C25.2974 12.4865 25.3234 12.5117 25.3455 12.5245C25.3523 12.5284 25.3571 12.5301 25.36 12.5309C25.3614 12.5312 25.3623 12.5314 25.3628 12.5314C25.363 12.5314 25.3631 12.5314 25.3632 12.5314L25.3634 12.5314L25.3635 12.5313C25.3638 12.5313 25.3645 12.531 25.3655 12.5303C25.3677 12.529 25.3724 12.5258 25.3787 12.5184C25.3896 12.5059 25.4024 12.4815 25.4116 12.4459C25.4208 12.4114 25.4247 12.3729 25.4228 12.3378C25.4208 12.3014 25.413 12.2762 25.4052 12.263C25.4025 12.2585 25.4005 12.2566 25.3997 12.256C25.3995 12.256 25.3993 12.256 25.3988 12.2559C25.3407 12.2546 25.296 12.233 25.2631 12.2131C25.251 12.2058 25.2389 12.1976 25.2293 12.1912C25.2266 12.1894 25.2242 12.1878 25.222 12.1863C25.2103 12.1785 25.2027 12.1738 25.1964 12.1708C25.1881 12.1668 25.1868 12.1673 25.1839 12.1685C25.1836 12.1685 25.1833 12.1686 25.1832 12.1687C25.1732 12.1723 25.1487 12.1863 25.1059 12.2355C25.047 12.3034 25.0359 12.3628 25.0392 12.4066C25.0429 12.4541 25.0641 12.491 25.0788 12.5075L25.0888 12.5188L25.0947 12.5329C25.1166 12.5852 25.1618 12.6597 25.2217 12.7111C25.2794 12.7607 25.3416 12.7821 25.4119 12.7581C25.4592 12.742 25.5103 12.7678 25.5262 12.8158C25.5421 12.8637 25.5166 12.9156 25.4695 12.9317C25.3208 12.9824 25.1943 12.9274 25.1052 12.851C25.0235 12.7809 24.9658 12.6876 24.9344 12.6178C24.8994 12.5734 24.8658 12.5043 24.8594 12.4208C24.8521 12.3255 24.8808 12.2179 24.9706 12.1144C25.0208 12.0565 25.0701 12.0151 25.1228 11.9961C25.182 11.9748 25.2331 11.9858 25.2736 12.0053C25.2919 12.0141 25.3082 12.0247 25.321 12.0332C25.3248 12.0357 25.3284 12.0381 25.3316 12.0402C25.3403 12.0462 25.3475 12.051 25.3555 12.0558ZM22.1666 12.1369C22.1786 12.0878 22.2277 12.058 22.2759 12.0702C22.4528 12.1151 22.546 12.2292 22.5837 12.3544C22.6169 12.4644 22.6064 12.5785 22.5857 12.657C22.588 12.7195 22.5683 12.7985 22.5113 12.8699C22.4467 12.951 22.3397 13.0158 22.1787 13.0431C22.084 13.0591 22.01 13.0613 21.9511 13.0471C21.8862 13.0316 21.8442 12.9975 21.8155 12.9553C21.8027 12.9365 21.7932 12.9174 21.7862 12.9024C21.7841 12.8979 21.7823 12.8938 21.7804 12.89C21.7758 12.8798 21.7721 12.8718 21.7675 12.8633C21.7569 12.8435 21.7461 12.8295 21.7267 12.8176C21.6955 12.7986 21.6694 12.7724 21.6531 12.7385C21.6368 12.7047 21.6331 12.6693 21.6371 12.6367C21.6442 12.5748 21.6784 12.5181 21.7156 12.4737C21.79 12.3849 21.9131 12.302 22.0287 12.2824C22.0861 12.2727 22.1403 12.2761 22.1884 12.2973C22.2375 12.3189 22.2718 12.3552 22.2948 12.396C22.3375 12.4721 22.3443 12.57 22.3443 12.6475C22.3443 12.6945 22.3301 12.7489 22.2813 12.7822C22.2372 12.8122 22.188 12.8084 22.1575 12.8022C22.0946 12.7894 22.0294 12.7497 21.9912 12.722C21.9507 12.6926 21.9412 12.6354 21.9702 12.5943C21.9992 12.5531 22.0555 12.5436 22.096 12.573C22.1105 12.5834 22.1285 12.5949 22.1471 12.6046C22.1528 12.6075 22.1582 12.6101 22.1632 12.6123C22.1608 12.5551 22.1527 12.5126 22.1382 12.4869C22.131 12.4743 22.1241 12.4686 22.1167 12.4654C22.1085 12.4618 22.0913 12.4575 22.0584 12.4631C21.9938 12.474 21.9065 12.5285 21.853 12.5923C21.8263 12.6243 21.8173 12.6477 21.8162 12.6583C21.8162 12.6583 21.8162 12.6583 21.8162 12.6583C21.8169 12.6589 21.818 12.6597 21.8194 12.6605C21.8751 12.6945 21.9056 12.7377 21.9262 12.7761C21.9334 12.7897 21.9401 12.8042 21.9453 12.8154C21.9466 12.8184 21.948 12.8212 21.9491 12.8236C21.9553 12.8369 21.9595 12.845 21.9637 12.851C21.9687 12.8584 21.9737 12.8644 21.9924 12.8689C22.0171 12.8748 22.0633 12.8769 22.149 12.8624C22.2766 12.8408 22.3399 12.7937 22.371 12.7547C22.4034 12.7142 22.407 12.6751 22.4051 12.6588L22.4027 12.6393L22.4083 12.6206C22.4246 12.5667 22.4338 12.4822 22.4113 12.408C22.3909 12.3403 22.3439 12.2763 22.2322 12.2479C22.1839 12.2357 22.1545 12.1859 22.1666 12.1369ZM21.8142 12.6566C21.8142 12.6566 21.8143 12.6567 21.8145 12.6568C21.8143 12.6567 21.8142 12.6566 21.8142 12.6566ZM22.1991 12.6234C22.1991 12.6234 22.1987 12.6234 22.198 12.6234C22.1987 12.6233 22.199 12.6233 22.1991 12.6234Z" fill="#3F3F3F"/>
<path d="M12.1483 10.4685C12.7572 7.02586 14.7948 6.31196 16.058 6.43126C16.2419 6.44864 16.4269 6.46648 16.609 6.49943C17.4522 6.6519 18.3071 7.48059 16.4637 9.95154C15.4527 11.3066 14.5029 11.9789 13.723 12.2676C12.6915 12.6494 11.955 11.5617 12.1483 10.4685Z" fill="#AEA7A0"/>
<path d="M12.8658 12.5402C12.7831 11.1867 14.3696 11.536 14.4875 12.6802C14.5317 13.1088 14.4073 13.5413 14.5221 13.9577C14.5724 14.1404 14.6203 14.3402 14.6203 14.629C14.6203 15.6592 12.9865 14.5159 12.8658 12.5402Z" fill="#C7A193"/>
</g>
</g>
<defs>
<clipPath id="clip0_192017_673">
<rect width="37" height="43" fill="white" transform="translate(3)"/>
</clipPath>
</defs>
</svg>
