<svg width="308" height="308" viewBox="0 0 308 308" fill="none" xmlns="http://www.w3.org/2000/svg">
<path d="M70.5963 172.273C82.7984 168.085 88.2866 171.127 89.5054 173.172C90.5719 177.246 86.7304 176.888 77.1828 175.647C67.6351 174.407 61.7784 177.179 59.1745 178.75C56.5705 180.322 50.966 190.272 50.5326 188.029C50.1859 186.235 52.7483 182.937 54.0728 181.512C51.0571 182.618 46.6205 183.413 53.0004 177.748C60.9753 170.665 56.7973 160.102 57.6997 159.185C58.4215 158.451 59.6034 160.469 60.104 161.57C60.1176 163.124 60.2143 167.111 60.4933 170.631C60.7723 174.152 67.3449 173.192 70.5963 172.273Z" fill="#FF6B0A"/>
<path d="M136.428 125.576C144.3 120.679 151.592 78.0581 154.254 57.3599C162.256 56.1268 177.155 54.4005 172.743 57.3599C167.227 61.0591 168.418 67.1805 164.756 86.2494C161.094 105.318 164.756 120.543 164.756 139.465C164.756 181.477 127.083 189.822 101.978 183.315C83.256 178.463 75.4551 168.604 75.4551 157.43C75.455 134.321 46.3791 120.794 105.24 136.636C126.52 142.364 126.588 131.697 136.428 125.576Z" fill="white"/>
<path d="M69.1935 166.181C81.3956 161.992 86.8838 165.035 88.1026 167.08C89.1691 171.154 85.3276 170.796 75.7799 169.555C66.2323 168.315 60.3756 171.087 57.7716 172.658C55.1677 174.23 49.5632 184.18 49.1298 181.937C48.783 180.143 51.3455 176.845 52.67 175.42C49.6542 176.526 45.2177 177.321 51.5976 171.656C59.5724 164.573 55.3945 154.01 56.2968 153.093C57.0187 152.359 58.2005 154.377 58.7012 155.478C58.7147 157.032 58.8115 161.019 59.0905 164.539C59.3695 168.06 65.9421 167.1 69.1935 166.181Z" fill="#FF6B0A"/>
<path d="M154.628 40.9865C154.874 34.6829 160.917 34.6538 163.909 35.4271C171.963 33.6262 170.869 44.7073 172.707 46.9836C174.546 49.2598 174.414 51.4923 173.802 58.1461C173.189 64.7998 163.909 70.6656 159.137 70.0089C154.366 69.3523 151.258 62.6111 149.375 55.826C147.493 49.041 154.322 48.8659 154.628 40.9865Z" fill="white"/>
<ellipse cx="1.57448" cy="2.47418" rx="1.57448" ry="2.47418" transform="matrix(-0.978865 0.204508 0.204508 0.978865 172.092 40.938)" fill="#0D070C"/>
<ellipse cx="154.387" cy="43.959" rx="1.57448" ry="2.47418" transform="rotate(6.93695 154.387 43.959)" fill="#0D070C"/>
<ellipse cx="171.944" cy="55.2605" rx="3.80513" ry="5.35976" transform="rotate(22.9491 171.944 55.2605)" fill="url(#paint0_radial_191953_7908)"/>
<ellipse cx="153.62" cy="56.3126" rx="3.80513" ry="5.35976" transform="rotate(-35.1816 153.62 56.3126)" fill="url(#paint1_radial_191953_7908)"/>
<ellipse opacity="0.2" cx="0.705823" cy="1.10915" rx="0.705823" ry="1.10915" transform="matrix(-0.895075 0.445916 0.445916 0.895075 154.584 41.8271)" fill="white"/>
<ellipse opacity="0.2" cx="0.705823" cy="1.10915" rx="0.705823" ry="1.10915" transform="matrix(-0.895075 0.445916 0.445916 0.895075 171.234 41.3711)" fill="white"/>
<path d="M169.139 47.7141C169.166 39.8785 161.609 38.8915 161.645 38.9867C154.187 41.3282 155.152 48.0403 155.462 49.0266C156.314 51.741 151.843 54.3624 153.331 57.1655C154.819 59.9685 155.054 65.9286 156.354 70.0382C157.151 72.5568 158.231 73.4427 158.976 73.6484C158.779 73.6585 158.862 73.6651 159.06 73.669C159.252 73.7104 159.418 73.7059 159.548 73.6735C159.366 73.673 159.189 73.6716 159.06 73.669C159.032 73.6631 159.004 73.6562 158.976 73.6484C159.234 73.635 159.975 73.6155 161.57 73.5876C166.069 73.5091 166.1 67.5982 169.69 60.6919C173.28 53.7855 169.104 57.5087 169.139 47.7141Z" fill="#FF6B0A"/>
<path d="M161.448 70.7223C165.031 70.255 165.853 62.2242 165.816 58.2673C163.586 57.8742 158.766 57.396 157.333 58.6276C155.541 60.167 156.971 71.3064 161.448 70.7223Z" fill="#1F0C02"/>
<path d="M160.675 69.7422C158.145 69.5345 158.705 63.9913 159.301 61.2457L164.189 61.0381C164.072 64.026 163.205 69.9499 160.675 69.7422Z" fill="#956C7C"/>
<path d="M160.87 67.7586C160.335 67.4092 160.862 61.9251 161.193 59.2267L162.271 59.2959C162.027 62.2624 161.405 68.108 160.87 67.7586Z" fill="#86616F"/>
<path d="M167.148 55.1715C164.501 50.1059 165.796 47.1806 166.773 46.3511C162.786 41.5226 158.558 44.6176 156.942 46.7686C160.022 51.7032 157.715 47.7489 156.193 55.6367C154.975 61.947 159.189 63.8955 161.448 64.081C164.451 63.2218 169.795 60.237 167.148 55.1715Z" fill="#EB6005"/>
<path d="M155.996 58.2572C161.417 50.1925 165.907 55.7351 167.475 59.5145C167.017 61.1098 165.144 64.2624 161.31 64.11C157.477 63.9576 156.17 60.1447 155.996 58.2572Z" fill="#EFE5D5"/>
<path d="M162.375 56.9994C162.41 56.3308 162.583 55.0896 162.997 55.4735C163.411 55.8573 162.755 56.6507 162.375 56.9994Z" fill="#DACAB0"/>
<path d="M161.109 57.0557C161.123 56.3864 161.04 55.1359 160.599 55.4887C160.158 55.8415 160.755 56.6804 161.109 57.0557Z" fill="#DACAB0"/>
<path d="M157.785 30.5449L157.518 36.2719C160.769 39.1421 166.5 37.7952 168.96 36.763L169.145 30.9237L157.785 30.5449Z" fill="#373500"/>
<path d="M157.519 36.2718C158.37 39.3234 161.907 43.4095 168.946 36.7211L157.519 36.2718Z" fill="#373500"/>
<ellipse cx="5.69268" cy="0.981278" rx="5.69268" ry="0.981278" transform="matrix(-0.99961 -0.0279109 -0.0279109 0.99961 169.169 29.9138)" fill="#373500"/>
<path d="M157.785 30.5449L157.518 36.2719C160.769 39.1421 166.5 37.7952 168.96 36.763L169.145 30.9237C169.145 30.9237 168.226 31.0904 167.633 31.0773C166.922 31.0615 165.839 30.7689 165.839 30.7689L162.539 35.7507L160.861 30.4049C160.861 30.4049 159.948 30.8667 159.316 30.8901C158.703 30.9127 157.785 30.5449 157.785 30.5449Z" fill="#4B4800"/>
<path d="M163.797 32.3617C163.765 32.3776 163.739 32.3892 163.715 32.4043C163.516 32.5241 163.388 32.673 163.326 32.8945C163.299 32.9883 163.283 33.0863 163.263 33.1808C163.245 33.2644 163.228 33.3465 163.209 33.4299C163.203 33.4515 163.206 33.4612 163.231 33.4668C163.284 33.4767 163.327 33.5062 163.344 33.56C163.36 33.6074 163.348 33.6504 163.316 33.6853C163.284 33.7217 163.24 33.7332 163.192 33.7302C163.169 33.7279 163.154 33.717 163.143 33.6939C163.06 33.5183 163.019 33.3342 163.014 33.1409C163.01 32.9809 163.038 32.824 163.06 32.668C163.072 32.5791 163.08 32.4883 163.095 32.3996C163.104 32.3436 163.108 32.2902 163.099 32.234C163.09 32.1778 163.069 32.1253 163.034 32.0761C162.989 32.1144 162.958 32.1619 162.941 32.2156C162.927 32.2664 162.918 32.3209 162.912 32.3724C162.905 32.4286 162.906 32.4856 162.902 32.5405C162.893 32.6866 162.885 32.8328 162.871 32.9784C162.846 33.221 162.762 33.442 162.618 33.6382C162.599 33.6649 162.576 33.6706 162.547 33.6646C162.472 33.651 162.421 33.5876 162.427 33.5171C162.434 33.4513 162.498 33.3975 162.572 33.4015C162.599 33.4026 162.602 33.3933 162.601 33.3711C162.597 33.2554 162.596 33.1383 162.595 33.0228C162.591 32.8913 162.596 32.7606 162.554 32.6333C162.499 32.4652 162.405 32.3471 162.265 32.2371C162.255 32.2298 162.244 32.2224 162.229 32.2115C162.228 32.2256 162.227 32.235 162.226 32.2444C162.168 32.8503 162.111 33.4312 162.053 34.0371C162.049 34.0716 162.049 34.0716 162.082 34.0748C162.207 34.0868 162.333 34.099 162.457 34.1111C162.479 34.1132 162.488 34.1204 162.491 34.1428C162.511 34.3122 162.583 34.4582 162.71 34.5748C162.736 34.5995 162.759 34.6301 162.783 34.6578C162.862 34.5832 162.966 34.5364 163.036 34.4467C163.092 34.3732 163.139 34.294 163.166 34.2049C163.172 34.185 163.182 34.1796 163.201 34.1815C163.329 34.1938 163.455 34.206 163.582 34.2184C163.604 34.2205 163.614 34.2167 163.617 34.1917C163.676 33.5826 163.732 32.997 163.791 32.388C163.795 32.3851 163.795 32.3789 163.797 32.3617ZM163.631 32.6269C163.634 32.6288 163.639 32.6293 163.642 32.6311C163.641 32.6421 163.64 32.6531 163.639 32.664C163.611 32.9568 163.585 33.2261 163.556 33.5189C163.552 33.5674 163.552 33.5674 163.501 33.5625C163.482 33.5607 163.473 33.5551 163.47 33.5359C163.457 33.4761 163.423 33.4286 163.374 33.3954C163.353 33.3807 163.352 33.3663 163.357 33.3447C163.382 33.2381 163.408 33.13 163.428 33.0229C163.45 32.9112 163.483 32.8291 163.549 32.7359C163.575 32.6974 163.604 32.6638 163.631 32.6269ZM162.333 32.506C162.336 32.5063 162.338 32.5049 162.341 32.5052C162.349 32.5186 162.357 32.5321 162.364 32.5454C162.416 32.6453 162.46 32.7237 162.465 32.8364C162.47 32.9792 162.472 33.1216 162.476 33.2642C162.477 33.2833 162.471 33.2953 162.451 33.3045C162.396 33.3292 162.354 33.3678 162.328 33.4238C162.316 33.4495 162.298 33.454 162.258 33.4423C162.233 33.4351 162.245 33.4172 162.246 33.4032C162.275 33.1057 162.301 32.8317 162.33 32.5326C162.33 32.5231 162.331 32.5137 162.333 32.506ZM163.202 33.8607C163.21 33.8599 163.22 33.8593 163.231 33.8572C163.332 33.8449 163.414 33.8038 163.456 33.7051C163.462 33.6915 163.469 33.6858 163.483 33.6888C163.494 33.6898 163.505 33.6909 163.516 33.692C163.531 33.6935 163.537 33.7004 163.536 33.716C163.524 33.8334 163.513 33.9524 163.5 34.0697C163.499 34.076 163.485 34.0888 163.479 34.0882C163.394 34.0816 163.307 34.0732 163.222 34.0634C163.216 34.0628 163.204 34.0506 163.203 34.0442C163.203 33.9841 163.202 33.924 163.202 33.8607ZM162.528 33.7955C162.515 33.8575 162.502 33.9162 162.49 33.9767C162.486 33.9937 162.474 33.9925 162.461 33.9913C162.381 33.9835 162.302 33.9743 162.222 33.9681C162.196 33.9657 162.189 33.9555 162.193 33.9322C162.205 33.8275 162.214 33.7224 162.224 33.6159C162.229 33.5674 162.229 33.5674 162.277 33.5721C162.292 33.5735 162.304 33.5747 162.307 33.5924C162.327 33.6875 162.39 33.7442 162.475 33.7793C162.494 33.7859 162.512 33.7892 162.528 33.7955ZM162.904 33.3863C162.937 33.5111 162.97 33.6328 163.027 33.7489C162.975 33.7771 162.926 33.804 162.876 33.8292C162.869 33.8333 162.854 33.8286 162.846 33.8231C162.808 33.7941 162.773 33.7623 162.734 33.7333C162.722 33.7242 162.72 33.7161 162.729 33.7028C162.797 33.6129 162.846 33.5134 162.891 33.4102C162.896 33.4029 162.901 33.3938 162.904 33.3863ZM163.034 34.1684C163.032 34.2505 162.93 34.4049 162.876 34.4202C162.875 34.4185 162.873 34.4168 162.873 34.4168C162.881 34.3354 162.887 34.2538 162.897 34.1741C162.897 34.1678 162.909 34.1595 162.916 34.1586C162.955 34.1592 162.994 34.1646 163.034 34.1684ZM162.743 34.4105C162.679 34.3648 162.617 34.1897 162.634 34.1281C162.669 34.1315 162.706 34.1351 162.741 34.1385C162.761 34.1405 162.767 34.1489 162.765 34.1677C162.759 34.2335 162.752 34.2992 162.746 34.365C162.746 34.3792 162.745 34.3933 162.743 34.4105ZM162.991 34.0394C162.97 34.0374 162.948 34.0369 162.928 34.0317C162.922 34.0311 162.91 34.0174 162.912 34.0128C162.928 33.9449 162.978 33.8896 163.046 33.8804C163.06 33.8786 163.068 33.8825 163.07 33.8969C163.072 33.9398 163.073 33.9825 163.075 34.027C163.075 34.0428 163.065 34.0481 163.05 34.0468C163.032 34.0434 163.011 34.0414 162.991 34.0394ZM162.701 34.0113C162.682 34.0095 162.665 34.0078 162.646 34.006C162.627 34.0057 162.616 33.9969 162.621 33.9768C162.63 33.9381 162.639 33.8994 162.649 33.8609C162.654 33.8424 162.663 33.8386 162.682 33.8467C162.74 33.8697 162.787 33.9391 162.783 34.0003C162.782 34.0066 162.77 34.0165 162.764 34.0174C162.742 34.0169 162.721 34.0133 162.701 34.0113Z" fill="#FFD500"/>
<path d="M144.785 106.524C152.572 109.346 158.956 106.828 162.7 105.105L162.7 108.429C154.268 112.935 147.842 110.699 144.133 109.018L144.785 106.524Z" fill="#005BBB"/>
<path d="M144.094 109.172C153.428 112.902 158.944 110.112 162.714 108.429L163.136 111.282C154.633 115.699 147.146 113.01 143.48 111.282L144.094 109.172Z" fill="#FFD500"/>
<path d="M148.295 132.811C157.237 131.883 163.355 134.474 165.296 135.885C174.646 151.028 148.664 165.556 146.757 168.886C144.85 172.216 139.998 168.195 137.735 168.43C135.471 168.665 135.189 167.302 131.042 166.34C126.894 165.378 128.608 159.841 124.724 159.722C120.84 159.602 122.277 156.495 118.183 155.702C114.088 154.909 117.53 151.106 112.932 150.887C108.334 150.668 112.209 147.308 108.584 146.292C104.959 145.276 105.954 143.335 105.643 140.333C105.121 135.306 127.774 114.825 127.993 116.924C136.665 117.194 145.141 127.628 148.295 132.811Z" fill="white"/>
<path d="M23.0904 93.8118C110.631 84.7314 115.056 114.484 124.874 114.804C132.84 117.027 140.482 125.513 107.326 141.674C104.042 140.74 105.802 138.964 102.001 139.199C98.2006 139.433 102.546 132.163 95.0819 135.486C87.6175 138.81 89.638 134.936 84.5925 135.459C80.556 135.878 80.8433 133.936 81.4915 132.913C80.3318 133.511 77.1432 134.32 73.6674 132.768C70.8854 131.526 73.4367 129.417 74.8006 128.516C71.622 130.227 63.9487 127.909 62.2118 126.499C61.2295 125.701 63.6926 124.343 65.5602 123.532C61.6098 124.235 52.8395 123.747 51.3984 122.426C50.074 121.212 53.8289 118.509 55.8718 117.309C51.6995 117.954 43.133 118.949 42.2453 117.766C41.4897 116.76 45.6245 114.06 48.7474 112.285C42.9735 115.126 37.7449 113.983 35.7227 112.961C41.9282 108.462 52.6007 100.707 45.6458 105.686C38.691 110.665 33.0773 108.764 31.1398 107.19C37.4119 104.766 47.8432 100.136 39.3919 101.012C30.9405 101.889 23.3372 100.596 20.592 99.8392C28.4461 98.4296 42.1208 95.7322 33.9861 96.2191C25.8513 96.7059 23.3328 94.8171 23.0904 93.8118Z" fill="white"/>
<path d="M156.432 134.646C147.619 133.172 141.275 134.855 139.204 135.881C128.422 147.792 152.876 161.956 154.45 164.885C156.025 167.815 161.247 164.838 163.478 165.211C165.709 165.584 166.122 164.469 170.345 163.99C174.568 163.512 173.401 158.755 177.28 158.96C181.159 159.164 180.03 156.457 184.184 156.116C188.338 155.774 185.281 152.33 189.881 152.507C194.481 152.684 190.95 149.575 194.658 149.011C198.366 148.446 197.564 146.748 198.166 144.266C199.175 140.11 178.614 121.237 178.192 122.972C169.531 122.518 160.076 130.566 156.432 134.646Z" fill="white"/>
<path d="M284.681 112.747C198.405 98.3112 191.193 122.432 181.39 121.914C173.252 123.108 164.845 129.48 196.322 145.412C199.679 144.905 198.094 143.304 201.855 143.8C205.616 144.295 201.976 137.969 209.092 141.297C216.208 144.625 214.563 141.277 219.535 142.109C223.514 142.775 223.411 141.155 222.862 140.261C223.96 140.846 227.058 141.765 230.664 140.765C233.55 139.965 231.209 138.028 229.937 137.177C232.939 138.838 240.795 137.542 242.657 136.52C243.71 135.942 241.387 134.629 239.604 133.813C243.47 134.706 252.246 135.002 253.805 134.031C255.237 133.138 251.755 130.615 249.835 129.466C253.927 130.328 262.36 131.829 263.355 130.926C264.202 130.158 260.341 127.609 257.4 125.9C262.879 128.697 268.191 128.173 270.3 127.493C264.548 123.298 254.657 116.07 261.11 120.719C267.563 125.368 273.33 124.251 275.407 123.111C269.392 120.618 259.447 115.979 267.776 117.373C276.105 118.766 283.795 118.308 286.599 117.904C278.914 116.119 265.558 112.812 273.609 113.86C281.66 114.908 284.345 113.555 284.681 112.747Z" fill="white"/>
<path d="M143.797 110.185C137.505 110.168 126.811 114.631 134.294 130.962C141.721 147.174 142.522 157.981 137.931 156.558C137.898 156.545 137.864 156.534 137.828 156.524C137.862 156.536 137.897 156.547 137.931 156.558C139.199 157.047 138.383 159.666 138.984 160.581C144.197 160.93 145.131 150.843 135.1 130.631C132.732 125.209 131.774 114.074 142.98 112.904L143.797 110.185Z" fill="#FFD500"/>
<path d="M144.965 106.251C138.638 105.187 131.615 105.489 137.266 123.322C142.858 140.971 135.389 140.769 130.826 138.413C130.783 138.387 130.737 138.362 130.685 138.339C130.732 138.364 130.779 138.388 130.826 138.413C131.942 139.089 130.39 140.692 130.883 141.709C136.086 142.93 144.817 140.921 138.115 123.119C136.356 117.219 132.865 107.82 144.271 108.495L144.965 106.251Z" fill="#005BBB"/>
<path d="M195.165 183.766C206.974 175.794 202.721 159.821 199.118 152.831C208.5 151.985 219.152 169.524 223.305 178.399C232.852 176.548 254.674 175.035 265.585 183.792C279.224 194.738 282.04 230.585 269.697 257.038C257.354 283.491 135.711 273.217 116.011 274.426C96.3116 275.635 81.1779 249.25 89.3117 208.311C97.4456 167.372 180.403 193.732 195.165 183.766Z" fill="white" stroke="#B1CCFF" stroke-width="2"/>
<path d="M116.406 211.997V213.692H111.203V223.372H109.062V211.997H116.406ZM110.508 216.255H113.266C114.146 216.255 114.901 216.403 115.531 216.7C116.161 216.992 116.643 217.4 116.977 217.927C117.315 218.453 117.484 219.07 117.484 219.778C117.484 220.309 117.388 220.794 117.195 221.231C117.008 221.669 116.732 222.049 116.367 222.372C116.003 222.69 115.56 222.937 115.039 223.114C114.518 223.286 113.927 223.372 113.266 223.372H109.062V211.997H111.219V221.684H113.266C113.734 221.684 114.122 221.596 114.43 221.419C114.737 221.242 114.966 221.007 115.117 220.716C115.268 220.424 115.344 220.106 115.344 219.762C115.344 219.424 115.268 219.117 115.117 218.841C114.966 218.565 114.737 218.346 114.43 218.184C114.122 218.023 113.734 217.942 113.266 217.942H110.508V216.255ZM123.633 221.575V217.677C123.633 217.39 123.583 217.143 123.484 216.934C123.385 216.726 123.234 216.565 123.031 216.45C122.828 216.335 122.57 216.278 122.258 216.278C121.982 216.278 121.74 216.325 121.531 216.419C121.328 216.512 121.172 216.645 121.062 216.817C120.953 216.984 120.898 217.177 120.898 217.395H118.828C118.828 217.046 118.911 216.716 119.078 216.403C119.245 216.085 119.482 215.804 119.789 215.559C120.102 215.309 120.474 215.114 120.906 214.973C121.344 214.833 121.833 214.762 122.375 214.762C123.016 214.762 123.586 214.872 124.086 215.091C124.591 215.304 124.987 215.627 125.273 216.059C125.565 216.492 125.711 217.036 125.711 217.692V221.38C125.711 221.802 125.737 222.163 125.789 222.466C125.846 222.762 125.93 223.02 126.039 223.239V223.372H123.938C123.839 223.158 123.763 222.887 123.711 222.559C123.659 222.226 123.633 221.898 123.633 221.575ZM123.922 218.223L123.938 219.45H122.633C122.31 219.45 122.026 219.484 121.781 219.552C121.536 219.614 121.336 219.708 121.18 219.833C121.023 219.953 120.906 220.098 120.828 220.27C120.75 220.437 120.711 220.627 120.711 220.841C120.711 221.049 120.758 221.236 120.852 221.403C120.951 221.57 121.091 221.703 121.273 221.802C121.461 221.895 121.68 221.942 121.93 221.942C122.294 221.942 122.612 221.869 122.883 221.723C123.154 221.572 123.365 221.39 123.516 221.177C123.667 220.963 123.747 220.76 123.758 220.567L124.352 221.458C124.279 221.671 124.169 221.898 124.023 222.137C123.878 222.377 123.69 222.601 123.461 222.809C123.232 223.018 122.956 223.19 122.633 223.325C122.31 223.46 121.935 223.528 121.508 223.528C120.961 223.528 120.471 223.419 120.039 223.2C119.607 222.981 119.266 222.682 119.016 222.302C118.766 221.921 118.641 221.489 118.641 221.005C118.641 220.557 118.724 220.161 118.891 219.817C119.057 219.473 119.305 219.184 119.633 218.95C119.961 218.71 120.367 218.531 120.852 218.411C121.341 218.286 121.901 218.223 122.531 218.223H123.922ZM133.344 218.387V220.005H129.008V218.387H133.344ZM129.656 214.919V223.372H127.586V214.919H129.656ZM134.789 214.919V223.372H132.711V214.919H134.789ZM138.188 214.919H140.25L140.172 217.825C140.146 218.705 140.042 219.466 139.859 220.106C139.682 220.742 139.445 221.275 139.148 221.708C138.857 222.14 138.523 222.489 138.148 222.755C137.779 223.02 137.391 223.226 136.984 223.372H136.492L136.484 221.762L136.727 221.747C136.971 221.486 137.177 221.231 137.344 220.981C137.516 220.726 137.654 220.453 137.758 220.161C137.862 219.869 137.94 219.536 137.992 219.161C138.049 218.781 138.086 218.335 138.102 217.825L138.188 214.919ZM138.742 214.919H144.219V223.372H142.156V216.614H138.742V214.919ZM136.023 221.747H145.398V225.903H143.336V223.372H138.125V225.903H136.016L136.023 221.747ZM150.461 223.528C149.82 223.528 149.245 223.424 148.734 223.216C148.224 223.007 147.789 222.718 147.43 222.348C147.076 221.973 146.802 221.538 146.609 221.044C146.422 220.544 146.328 220.007 146.328 219.434V219.122C146.328 218.471 146.422 217.88 146.609 217.348C146.797 216.812 147.062 216.351 147.406 215.966C147.75 215.58 148.161 215.283 148.641 215.075C149.12 214.867 149.648 214.762 150.227 214.762C150.826 214.762 151.354 214.864 151.812 215.067C152.271 215.265 152.654 215.546 152.961 215.911C153.268 216.275 153.5 216.713 153.656 217.223C153.812 217.729 153.891 218.288 153.891 218.903V219.77H147.266V218.348H151.859V218.192C151.849 217.864 151.786 217.565 151.672 217.294C151.557 217.018 151.38 216.799 151.141 216.637C150.901 216.471 150.591 216.387 150.211 216.387C149.904 216.387 149.635 216.455 149.406 216.591C149.182 216.721 148.995 216.908 148.844 217.153C148.698 217.393 148.589 217.679 148.516 218.012C148.443 218.346 148.406 218.716 148.406 219.122V219.434C148.406 219.788 148.453 220.117 148.547 220.419C148.646 220.721 148.789 220.984 148.977 221.208C149.169 221.427 149.398 221.598 149.664 221.723C149.935 221.843 150.242 221.903 150.586 221.903C151.018 221.903 151.409 221.82 151.758 221.653C152.112 221.481 152.419 221.229 152.68 220.895L153.719 221.973C153.542 222.234 153.302 222.484 153 222.723C152.703 222.963 152.344 223.158 151.922 223.309C151.5 223.455 151.013 223.528 150.461 223.528ZM157.336 216.544V226.622H155.266V214.919H157.18L157.336 216.544ZM162.766 219.059V219.223C162.766 219.838 162.693 220.408 162.547 220.934C162.406 221.455 162.198 221.911 161.922 222.302C161.646 222.687 161.302 222.989 160.891 223.208C160.484 223.421 160.016 223.528 159.484 223.528C158.964 223.528 158.51 223.429 158.125 223.231C157.74 223.028 157.414 222.742 157.148 222.372C156.883 222.002 156.669 221.572 156.508 221.083C156.352 220.588 156.234 220.049 156.156 219.466V218.942C156.234 218.322 156.352 217.76 156.508 217.255C156.669 216.744 156.883 216.304 157.148 215.934C157.414 215.559 157.737 215.27 158.117 215.067C158.503 214.864 158.953 214.762 159.469 214.762C160.005 214.762 160.477 214.864 160.883 215.067C161.294 215.27 161.641 215.562 161.922 215.942C162.203 216.322 162.414 216.775 162.555 217.302C162.695 217.828 162.766 218.413 162.766 219.059ZM160.695 219.223V219.059C160.695 218.684 160.661 218.338 160.594 218.02C160.526 217.697 160.422 217.416 160.281 217.177C160.141 216.932 159.958 216.742 159.734 216.606C159.51 216.471 159.24 216.403 158.922 216.403C158.604 216.403 158.331 216.455 158.102 216.559C157.872 216.663 157.685 216.812 157.539 217.005C157.393 217.197 157.279 217.427 157.195 217.692C157.117 217.953 157.065 218.242 157.039 218.559V219.856C157.086 220.242 157.177 220.588 157.312 220.895C157.448 221.203 157.646 221.447 157.906 221.63C158.172 221.812 158.516 221.903 158.938 221.903C159.255 221.903 159.526 221.833 159.75 221.692C159.974 221.552 160.156 221.359 160.297 221.114C160.438 220.864 160.539 220.578 160.602 220.255C160.664 219.932 160.695 219.588 160.695 219.223ZM163.906 219.231V219.067C163.906 218.447 163.995 217.877 164.172 217.356C164.349 216.83 164.607 216.374 164.945 215.989C165.284 215.604 165.698 215.304 166.188 215.091C166.677 214.872 167.234 214.762 167.859 214.762C168.495 214.762 169.057 214.872 169.547 215.091C170.042 215.304 170.458 215.604 170.797 215.989C171.135 216.374 171.393 216.83 171.57 217.356C171.747 217.877 171.836 218.447 171.836 219.067V219.231C171.836 219.846 171.747 220.416 171.57 220.942C171.393 221.463 171.135 221.919 170.797 222.309C170.458 222.695 170.044 222.994 169.555 223.208C169.065 223.421 168.505 223.528 167.875 223.528C167.25 223.528 166.69 223.421 166.195 223.208C165.701 222.994 165.284 222.695 164.945 222.309C164.607 221.919 164.349 221.463 164.172 220.942C163.995 220.416 163.906 219.846 163.906 219.231ZM165.969 219.067V219.231C165.969 219.601 166.005 219.947 166.078 220.27C166.151 220.593 166.263 220.877 166.414 221.122C166.565 221.367 166.76 221.559 167 221.7C167.245 221.835 167.536 221.903 167.875 221.903C168.208 221.903 168.495 221.835 168.734 221.7C168.974 221.559 169.169 221.367 169.32 221.122C169.477 220.877 169.591 220.593 169.664 220.27C169.737 219.947 169.773 219.601 169.773 219.231V219.067C169.773 218.703 169.737 218.361 169.664 218.044C169.591 217.721 169.477 217.437 169.32 217.192C169.169 216.942 168.971 216.747 168.727 216.606C168.487 216.46 168.198 216.387 167.859 216.387C167.526 216.387 167.24 216.46 167 216.606C166.76 216.747 166.565 216.942 166.414 217.192C166.263 217.437 166.151 217.721 166.078 218.044C166.005 218.361 165.969 218.703 165.969 219.067ZM179.016 214.919V216.552H175.414V223.372H173.352V214.919H179.016ZM182.531 222.434L184.797 214.919H187.008L183.617 224.653C183.539 224.861 183.438 225.088 183.312 225.333C183.193 225.578 183.031 225.809 182.828 226.028C182.625 226.252 182.37 226.434 182.062 226.575C181.76 226.716 181.393 226.786 180.961 226.786C180.773 226.786 180.607 226.773 180.461 226.747C180.315 226.721 180.161 226.687 180 226.645V225.098C180.052 225.104 180.112 225.106 180.18 225.106C180.253 225.111 180.315 225.114 180.367 225.114C180.669 225.114 180.919 225.078 181.117 225.005C181.315 224.937 181.474 224.825 181.594 224.669C181.719 224.518 181.823 224.32 181.906 224.075L182.531 222.434ZM181.414 214.919L183.328 221.145L183.664 223.325L182.242 223.583L179.188 214.919H181.414ZM191.367 221.903C191.659 221.903 191.919 221.846 192.148 221.731C192.378 221.617 192.56 221.455 192.695 221.247C192.836 221.038 192.911 220.796 192.922 220.52H194.867C194.857 221.093 194.695 221.606 194.383 222.059C194.07 222.512 193.654 222.872 193.133 223.137C192.617 223.398 192.039 223.528 191.398 223.528C190.747 223.528 190.18 223.419 189.695 223.2C189.211 222.981 188.807 222.677 188.484 222.286C188.167 221.895 187.927 221.442 187.766 220.927C187.609 220.411 187.531 219.859 187.531 219.27V219.02C187.531 218.432 187.609 217.88 187.766 217.364C187.927 216.848 188.167 216.395 188.484 216.005C188.807 215.614 189.211 215.309 189.695 215.091C190.18 214.872 190.745 214.762 191.391 214.762C192.073 214.762 192.672 214.895 193.188 215.161C193.708 215.427 194.115 215.802 194.406 216.286C194.703 216.77 194.857 217.341 194.867 217.997H192.922C192.911 217.695 192.844 217.424 192.719 217.184C192.594 216.945 192.417 216.752 192.188 216.606C191.958 216.46 191.68 216.387 191.352 216.387C191.003 216.387 190.711 216.46 190.477 216.606C190.247 216.752 190.068 216.953 189.938 217.208C189.812 217.458 189.724 217.739 189.672 218.052C189.625 218.359 189.602 218.682 189.602 219.02V219.27C189.602 219.614 189.625 219.942 189.672 220.255C189.724 220.567 189.812 220.848 189.938 221.098C190.068 221.343 190.247 221.538 190.477 221.684C190.711 221.83 191.008 221.903 191.367 221.903ZM197.711 217.52H200.18C200.93 217.52 201.568 217.645 202.094 217.895C202.625 218.14 203.029 218.484 203.305 218.927C203.586 219.364 203.727 219.872 203.727 220.45C203.727 220.867 203.646 221.255 203.484 221.614C203.328 221.968 203.099 222.278 202.797 222.544C202.495 222.804 202.122 223.007 201.68 223.153C201.242 223.299 200.742 223.372 200.18 223.372H196.383V214.919H198.453V221.755H200.18C200.539 221.755 200.826 221.695 201.039 221.575C201.258 221.45 201.414 221.291 201.508 221.098C201.607 220.9 201.656 220.69 201.656 220.466C201.656 220.236 201.607 220.023 201.508 219.825C201.414 219.622 201.258 219.458 201.039 219.333C200.826 219.208 200.539 219.145 200.18 219.145H197.711V217.52ZM217.414 216.942V218.583H209.375V216.942H217.414ZM112.555 239.341H110.906V238.356H112.164C112.471 238.356 112.716 238.315 112.898 238.231C113.086 238.148 113.219 238.031 113.297 237.88C113.38 237.729 113.422 237.554 113.422 237.356C113.422 237.179 113.383 237.012 113.305 236.856C113.227 236.695 113.096 236.565 112.914 236.466C112.732 236.361 112.479 236.309 112.156 236.309C111.891 236.309 111.654 236.351 111.445 236.434C111.237 236.518 111.073 236.635 110.953 236.786C110.833 236.937 110.773 237.117 110.773 237.325H108.703C108.703 236.794 108.854 236.338 109.156 235.958C109.464 235.578 109.872 235.286 110.383 235.083C110.893 234.874 111.453 234.77 112.062 234.77C112.589 234.77 113.062 234.825 113.484 234.934C113.906 235.038 114.266 235.195 114.562 235.403C114.859 235.611 115.089 235.869 115.25 236.177C115.411 236.479 115.492 236.83 115.492 237.231C115.492 237.518 115.424 237.788 115.289 238.044C115.154 238.299 114.958 238.525 114.703 238.723C114.448 238.916 114.138 239.067 113.773 239.177C113.414 239.286 113.008 239.341 112.555 239.341ZM110.906 238.778H112.555C113.06 238.778 113.503 238.828 113.883 238.927C114.268 239.02 114.591 239.161 114.852 239.348C115.112 239.536 115.307 239.768 115.438 240.044C115.573 240.315 115.641 240.627 115.641 240.981C115.641 241.382 115.552 241.742 115.375 242.059C115.203 242.372 114.958 242.637 114.641 242.856C114.323 243.075 113.945 243.242 113.508 243.356C113.07 243.471 112.589 243.528 112.062 243.528C111.495 243.528 110.943 243.434 110.406 243.247C109.875 243.059 109.435 242.77 109.086 242.38C108.742 241.989 108.57 241.486 108.57 240.872H110.641C110.641 241.07 110.701 241.255 110.82 241.427C110.94 241.598 111.112 241.736 111.336 241.841C111.565 241.94 111.841 241.989 112.164 241.989C112.492 241.989 112.76 241.937 112.969 241.833C113.177 241.729 113.328 241.591 113.422 241.419C113.521 241.242 113.57 241.057 113.57 240.864C113.57 240.598 113.518 240.385 113.414 240.223C113.315 240.057 113.159 239.934 112.945 239.856C112.737 239.778 112.477 239.739 112.164 239.739H110.906V238.778ZM121.789 241.575V237.677C121.789 237.39 121.74 237.143 121.641 236.934C121.542 236.726 121.391 236.565 121.188 236.45C120.984 236.335 120.727 236.278 120.414 236.278C120.138 236.278 119.896 236.325 119.688 236.419C119.484 236.512 119.328 236.645 119.219 236.817C119.109 236.984 119.055 237.177 119.055 237.395H116.984C116.984 237.046 117.068 236.716 117.234 236.403C117.401 236.085 117.638 235.804 117.945 235.559C118.258 235.309 118.63 235.114 119.062 234.973C119.5 234.833 119.99 234.762 120.531 234.762C121.172 234.762 121.742 234.872 122.242 235.091C122.747 235.304 123.143 235.627 123.43 236.059C123.721 236.492 123.867 237.036 123.867 237.692V241.38C123.867 241.802 123.893 242.163 123.945 242.466C124.003 242.762 124.086 243.02 124.195 243.239V243.372H122.094C121.995 243.158 121.919 242.887 121.867 242.559C121.815 242.226 121.789 241.898 121.789 241.575ZM122.078 238.223L122.094 239.45H120.789C120.466 239.45 120.182 239.484 119.938 239.552C119.693 239.614 119.492 239.708 119.336 239.833C119.18 239.953 119.062 240.098 118.984 240.27C118.906 240.437 118.867 240.627 118.867 240.841C118.867 241.049 118.914 241.236 119.008 241.403C119.107 241.57 119.247 241.703 119.43 241.802C119.617 241.895 119.836 241.942 120.086 241.942C120.451 241.942 120.768 241.869 121.039 241.723C121.31 241.572 121.521 241.39 121.672 241.177C121.823 240.963 121.904 240.76 121.914 240.567L122.508 241.458C122.435 241.671 122.326 241.898 122.18 242.137C122.034 242.377 121.846 242.601 121.617 242.809C121.388 243.018 121.112 243.19 120.789 243.325C120.466 243.46 120.091 243.528 119.664 243.528C119.117 243.528 118.628 243.419 118.195 243.2C117.763 242.981 117.422 242.682 117.172 242.302C116.922 241.921 116.797 241.489 116.797 241.005C116.797 240.557 116.88 240.161 117.047 239.817C117.214 239.473 117.461 239.184 117.789 238.95C118.117 238.71 118.523 238.531 119.008 238.411C119.497 238.286 120.057 238.223 120.688 238.223H122.078ZM133.18 241.903C133.471 241.903 133.732 241.846 133.961 241.731C134.19 241.617 134.372 241.455 134.508 241.247C134.648 241.038 134.724 240.796 134.734 240.52H136.68C136.669 241.093 136.508 241.606 136.195 242.059C135.883 242.512 135.466 242.872 134.945 243.137C134.43 243.398 133.852 243.528 133.211 243.528C132.56 243.528 131.992 243.419 131.508 243.2C131.023 242.981 130.62 242.677 130.297 242.286C129.979 241.895 129.74 241.442 129.578 240.927C129.422 240.411 129.344 239.859 129.344 239.27V239.02C129.344 238.432 129.422 237.88 129.578 237.364C129.74 236.848 129.979 236.395 130.297 236.005C130.62 235.614 131.023 235.309 131.508 235.091C131.992 234.872 132.557 234.762 133.203 234.762C133.885 234.762 134.484 234.895 135 235.161C135.521 235.427 135.927 235.802 136.219 236.286C136.516 236.77 136.669 237.341 136.68 237.997H134.734C134.724 237.695 134.656 237.424 134.531 237.184C134.406 236.945 134.229 236.752 134 236.606C133.771 236.46 133.492 236.387 133.164 236.387C132.815 236.387 132.523 236.46 132.289 236.606C132.06 236.752 131.88 236.953 131.75 237.208C131.625 237.458 131.536 237.739 131.484 238.052C131.438 238.359 131.414 238.682 131.414 239.02V239.27C131.414 239.614 131.438 239.942 131.484 240.255C131.536 240.567 131.625 240.848 131.75 241.098C131.88 241.343 132.06 241.538 132.289 241.684C132.523 241.83 132.82 241.903 133.18 241.903ZM140.117 236.544V246.622H138.047V234.919H139.961L140.117 236.544ZM145.547 239.059V239.223C145.547 239.838 145.474 240.408 145.328 240.934C145.188 241.455 144.979 241.911 144.703 242.302C144.427 242.687 144.083 242.989 143.672 243.208C143.266 243.421 142.797 243.528 142.266 243.528C141.745 243.528 141.292 243.429 140.906 243.231C140.521 243.028 140.195 242.742 139.93 242.372C139.664 242.002 139.451 241.572 139.289 241.083C139.133 240.588 139.016 240.049 138.938 239.466V238.942C139.016 238.322 139.133 237.76 139.289 237.255C139.451 236.744 139.664 236.304 139.93 235.934C140.195 235.559 140.518 235.27 140.898 235.067C141.284 234.864 141.734 234.762 142.25 234.762C142.786 234.762 143.258 234.864 143.664 235.067C144.076 235.27 144.422 235.562 144.703 235.942C144.984 236.322 145.195 236.775 145.336 237.302C145.477 237.828 145.547 238.413 145.547 239.059ZM143.477 239.223V239.059C143.477 238.684 143.443 238.338 143.375 238.02C143.307 237.697 143.203 237.416 143.062 237.177C142.922 236.932 142.74 236.742 142.516 236.606C142.292 236.471 142.021 236.403 141.703 236.403C141.385 236.403 141.112 236.455 140.883 236.559C140.654 236.663 140.466 236.812 140.32 237.005C140.174 237.197 140.06 237.427 139.977 237.692C139.898 237.953 139.846 238.242 139.82 238.559V239.856C139.867 240.242 139.958 240.588 140.094 240.895C140.229 241.203 140.427 241.447 140.688 241.63C140.953 241.812 141.297 241.903 141.719 241.903C142.036 241.903 142.307 241.833 142.531 241.692C142.755 241.552 142.938 241.359 143.078 241.114C143.219 240.864 143.32 240.578 143.383 240.255C143.445 239.932 143.477 239.588 143.477 239.223ZM151.711 241.575V237.677C151.711 237.39 151.661 237.143 151.562 236.934C151.464 236.726 151.312 236.565 151.109 236.45C150.906 236.335 150.648 236.278 150.336 236.278C150.06 236.278 149.818 236.325 149.609 236.419C149.406 236.512 149.25 236.645 149.141 236.817C149.031 236.984 148.977 237.177 148.977 237.395H146.906C146.906 237.046 146.99 236.716 147.156 236.403C147.323 236.085 147.56 235.804 147.867 235.559C148.18 235.309 148.552 235.114 148.984 234.973C149.422 234.833 149.911 234.762 150.453 234.762C151.094 234.762 151.664 234.872 152.164 235.091C152.669 235.304 153.065 235.627 153.352 236.059C153.643 236.492 153.789 237.036 153.789 237.692V241.38C153.789 241.802 153.815 242.163 153.867 242.466C153.924 242.762 154.008 243.02 154.117 243.239V243.372H152.016C151.917 243.158 151.841 242.887 151.789 242.559C151.737 242.226 151.711 241.898 151.711 241.575ZM152 238.223L152.016 239.45H150.711C150.388 239.45 150.104 239.484 149.859 239.552C149.615 239.614 149.414 239.708 149.258 239.833C149.102 239.953 148.984 240.098 148.906 240.27C148.828 240.437 148.789 240.627 148.789 240.841C148.789 241.049 148.836 241.236 148.93 241.403C149.029 241.57 149.169 241.703 149.352 241.802C149.539 241.895 149.758 241.942 150.008 241.942C150.372 241.942 150.69 241.869 150.961 241.723C151.232 241.572 151.443 241.39 151.594 241.177C151.745 240.963 151.826 240.76 151.836 240.567L152.43 241.458C152.357 241.671 152.247 241.898 152.102 242.137C151.956 242.377 151.768 242.601 151.539 242.809C151.31 243.018 151.034 243.19 150.711 243.325C150.388 243.46 150.013 243.528 149.586 243.528C149.039 243.528 148.549 243.419 148.117 243.2C147.685 242.981 147.344 242.682 147.094 242.302C146.844 241.921 146.719 241.489 146.719 241.005C146.719 240.557 146.802 240.161 146.969 239.817C147.135 239.473 147.383 239.184 147.711 238.95C148.039 238.71 148.445 238.531 148.93 238.411C149.419 238.286 149.979 238.223 150.609 238.223H152ZM157.852 234.919V243.372H155.789V234.919H157.852ZM163.359 234.919L159.633 240.106H157.438L157.18 238.216H158.703L160.758 234.919H163.359ZM160.883 243.372L158.57 239.747L160.289 238.669L163.625 243.372H160.883ZM167.047 242.434L169.312 234.919H171.523L168.133 244.653C168.055 244.861 167.953 245.088 167.828 245.333C167.708 245.578 167.547 245.809 167.344 246.028C167.141 246.252 166.885 246.434 166.578 246.575C166.276 246.716 165.909 246.786 165.477 246.786C165.289 246.786 165.122 246.773 164.977 246.747C164.831 246.721 164.677 246.687 164.516 246.645V245.098C164.568 245.104 164.628 245.106 164.695 245.106C164.768 245.111 164.831 245.114 164.883 245.114C165.185 245.114 165.435 245.078 165.633 245.005C165.831 244.937 165.99 244.825 166.109 244.669C166.234 244.518 166.339 244.32 166.422 244.075L167.047 242.434ZM165.93 234.919L167.844 241.145L168.18 243.325L166.758 243.583L163.703 234.919H165.93ZM176.141 239.231V239.067C176.141 238.447 176.229 237.877 176.406 237.356C176.583 236.83 176.841 236.374 177.18 235.989C177.518 235.604 177.932 235.304 178.422 235.091C178.911 234.872 179.469 234.762 180.094 234.762C180.729 234.762 181.292 234.872 181.781 235.091C182.276 235.304 182.693 235.604 183.031 235.989C183.37 236.374 183.628 236.83 183.805 237.356C183.982 237.877 184.07 238.447 184.07 239.067V239.231C184.07 239.846 183.982 240.416 183.805 240.942C183.628 241.463 183.37 241.919 183.031 242.309C182.693 242.695 182.279 242.994 181.789 243.208C181.299 243.421 180.74 243.528 180.109 243.528C179.484 243.528 178.924 243.421 178.43 243.208C177.935 242.994 177.518 242.695 177.18 242.309C176.841 241.919 176.583 241.463 176.406 240.942C176.229 240.416 176.141 239.846 176.141 239.231ZM178.203 239.067V239.231C178.203 239.601 178.24 239.947 178.312 240.27C178.385 240.593 178.497 240.877 178.648 241.122C178.799 241.367 178.995 241.559 179.234 241.7C179.479 241.835 179.771 241.903 180.109 241.903C180.443 241.903 180.729 241.835 180.969 241.7C181.208 241.559 181.404 241.367 181.555 241.122C181.711 240.877 181.826 240.593 181.898 240.27C181.971 239.947 182.008 239.601 182.008 239.231V239.067C182.008 238.703 181.971 238.361 181.898 238.044C181.826 237.721 181.711 237.437 181.555 237.192C181.404 236.942 181.206 236.747 180.961 236.606C180.721 236.46 180.432 236.387 180.094 236.387C179.76 236.387 179.474 236.46 179.234 236.606C178.995 236.747 178.799 236.942 178.648 237.192C178.497 237.437 178.385 237.721 178.312 238.044C178.24 238.361 178.203 238.703 178.203 239.067ZM187.633 236.544V246.622H185.562V234.919H187.477L187.633 236.544ZM193.062 239.059V239.223C193.062 239.838 192.99 240.408 192.844 240.934C192.703 241.455 192.495 241.911 192.219 242.302C191.943 242.687 191.599 242.989 191.188 243.208C190.781 243.421 190.312 243.528 189.781 243.528C189.26 243.528 188.807 243.429 188.422 243.231C188.036 243.028 187.711 242.742 187.445 242.372C187.18 242.002 186.966 241.572 186.805 241.083C186.648 240.588 186.531 240.049 186.453 239.466V238.942C186.531 238.322 186.648 237.76 186.805 237.255C186.966 236.744 187.18 236.304 187.445 235.934C187.711 235.559 188.034 235.27 188.414 235.067C188.799 234.864 189.25 234.762 189.766 234.762C190.302 234.762 190.773 234.864 191.18 235.067C191.591 235.27 191.938 235.562 192.219 235.942C192.5 236.322 192.711 236.775 192.852 237.302C192.992 237.828 193.062 238.413 193.062 239.059ZM190.992 239.223V239.059C190.992 238.684 190.958 238.338 190.891 238.02C190.823 237.697 190.719 237.416 190.578 237.177C190.438 236.932 190.255 236.742 190.031 236.606C189.807 236.471 189.536 236.403 189.219 236.403C188.901 236.403 188.628 236.455 188.398 236.559C188.169 236.663 187.982 236.812 187.836 237.005C187.69 237.197 187.576 237.427 187.492 237.692C187.414 237.953 187.362 238.242 187.336 238.559V239.856C187.383 240.242 187.474 240.588 187.609 240.895C187.745 241.203 187.943 241.447 188.203 241.63C188.469 241.812 188.812 241.903 189.234 241.903C189.552 241.903 189.823 241.833 190.047 241.692C190.271 241.552 190.453 241.359 190.594 241.114C190.734 240.864 190.836 240.578 190.898 240.255C190.961 239.932 190.992 239.588 190.992 239.223ZM196.773 234.919V243.372H194.711V234.919H196.773ZM202.281 234.919L198.555 240.106H196.359L196.102 238.216H197.625L199.68 234.919H202.281ZM199.805 243.372L197.492 239.747L199.211 238.669L202.547 243.372H199.805ZM205.68 234.919V243.372H203.609V234.919H205.68ZM203.469 232.708C203.469 232.4 203.573 232.145 203.781 231.942C203.995 231.739 204.281 231.637 204.641 231.637C205 231.637 205.284 231.739 205.492 231.942C205.706 232.145 205.812 232.4 205.812 232.708C205.812 233.01 205.706 233.262 205.492 233.466C205.284 233.669 205 233.77 204.641 233.77C204.281 233.77 203.995 233.669 203.781 233.466C203.573 233.262 203.469 233.01 203.469 232.708ZM211.805 239.794H209.125L209.109 238.395H211.312C211.641 238.395 211.909 238.361 212.117 238.294C212.326 238.226 212.479 238.124 212.578 237.989C212.682 237.854 212.734 237.69 212.734 237.497C212.734 237.33 212.703 237.187 212.641 237.067C212.578 236.942 212.484 236.841 212.359 236.762C212.24 236.684 212.086 236.627 211.898 236.591C211.716 236.549 211.503 236.528 211.258 236.528H209.859V243.372H207.789V234.919H211.258C211.805 234.919 212.297 234.968 212.734 235.067C213.172 235.161 213.544 235.304 213.852 235.497C214.159 235.69 214.393 235.934 214.555 236.231C214.721 236.523 214.805 236.867 214.805 237.262C214.805 237.523 214.747 237.768 214.633 237.997C214.518 238.226 214.349 238.429 214.125 238.606C213.901 238.783 213.625 238.929 213.297 239.044C212.969 239.153 212.594 239.221 212.172 239.247L211.805 239.794ZM211.805 243.372H208.57L209.336 241.762H211.805C212.107 241.762 212.357 241.726 212.555 241.653C212.753 241.575 212.898 241.463 212.992 241.317C213.091 241.171 213.141 240.994 213.141 240.786C213.141 240.583 213.094 240.408 213 240.262C212.911 240.111 212.768 239.997 212.57 239.919C212.378 239.835 212.122 239.794 211.805 239.794H209.672L209.688 238.395H212.164L212.711 238.95C213.273 238.986 213.74 239.101 214.109 239.294C214.479 239.481 214.755 239.721 214.938 240.012C215.12 240.299 215.211 240.614 215.211 240.958C215.211 241.359 215.135 241.71 214.984 242.012C214.833 242.315 214.612 242.567 214.32 242.77C214.029 242.968 213.672 243.119 213.25 243.223C212.828 243.322 212.346 243.372 211.805 243.372ZM222.898 234.919V243.372H220.836V234.919H222.898ZM228.406 234.919L224.68 240.106H222.484L222.227 238.216H223.75L225.805 234.919H228.406ZM225.93 243.372L223.617 239.747L225.336 238.669L228.672 243.372H225.93ZM232.094 242.434L234.359 234.919H236.57L233.18 244.653C233.102 244.861 233 245.088 232.875 245.333C232.755 245.578 232.594 245.809 232.391 246.028C232.188 246.252 231.932 246.434 231.625 246.575C231.323 246.716 230.956 246.786 230.523 246.786C230.336 246.786 230.169 246.773 230.023 246.747C229.878 246.721 229.724 246.687 229.562 246.645V245.098C229.615 245.104 229.674 245.106 229.742 245.106C229.815 245.111 229.878 245.114 229.93 245.114C230.232 245.114 230.482 245.078 230.68 245.005C230.878 244.937 231.036 244.825 231.156 244.669C231.281 244.518 231.385 244.32 231.469 244.075L232.094 242.434ZM230.977 234.919L232.891 241.145L233.227 243.325L231.805 243.583L228.75 234.919H230.977ZM240.93 241.903C241.221 241.903 241.482 241.846 241.711 241.731C241.94 241.617 242.122 241.455 242.258 241.247C242.398 241.038 242.474 240.796 242.484 240.52H244.43C244.419 241.093 244.258 241.606 243.945 242.059C243.633 242.512 243.216 242.872 242.695 243.137C242.18 243.398 241.602 243.528 240.961 243.528C240.31 243.528 239.742 243.419 239.258 243.2C238.773 242.981 238.37 242.677 238.047 242.286C237.729 241.895 237.49 241.442 237.328 240.927C237.172 240.411 237.094 239.859 237.094 239.27V239.02C237.094 238.432 237.172 237.88 237.328 237.364C237.49 236.848 237.729 236.395 238.047 236.005C238.37 235.614 238.773 235.309 239.258 235.091C239.742 234.872 240.307 234.762 240.953 234.762C241.635 234.762 242.234 234.895 242.75 235.161C243.271 235.427 243.677 235.802 243.969 236.286C244.266 236.77 244.419 237.341 244.43 237.997H242.484C242.474 237.695 242.406 237.424 242.281 237.184C242.156 236.945 241.979 236.752 241.75 236.606C241.521 236.46 241.242 236.387 240.914 236.387C240.565 236.387 240.273 236.46 240.039 236.606C239.81 236.752 239.63 236.953 239.5 237.208C239.375 237.458 239.286 237.739 239.234 238.052C239.188 238.359 239.164 238.682 239.164 239.02V239.27C239.164 239.614 239.188 239.942 239.234 240.255C239.286 240.567 239.375 240.848 239.5 241.098C239.63 241.343 239.81 241.538 240.039 241.684C240.273 241.83 240.57 241.903 240.93 241.903ZM247.273 237.52H249.742C250.492 237.52 251.13 237.645 251.656 237.895C252.188 238.14 252.591 238.484 252.867 238.927C253.148 239.364 253.289 239.872 253.289 240.45C253.289 240.867 253.208 241.255 253.047 241.614C252.891 241.968 252.661 242.278 252.359 242.544C252.057 242.804 251.685 243.007 251.242 243.153C250.805 243.299 250.305 243.372 249.742 243.372H245.945V234.919H248.016V241.755H249.742C250.102 241.755 250.388 241.695 250.602 241.575C250.82 241.45 250.977 241.291 251.07 241.098C251.169 240.9 251.219 240.69 251.219 240.466C251.219 240.236 251.169 240.023 251.07 239.825C250.977 239.622 250.82 239.458 250.602 239.333C250.388 239.208 250.102 239.145 249.742 239.145H247.273V237.52Z" fill="#707070"/>
<defs>
<radialGradient id="paint0_radial_191953_7908" cx="0" cy="0" r="1" gradientUnits="userSpaceOnUse" gradientTransform="translate(171.944 55.2605) rotate(90) scale(5.35976 3.80513)">
<stop stop-color="#FFBBBB"/>
<stop offset="1" stop-color="#FFBBBB" stop-opacity="0"/>
</radialGradient>
<radialGradient id="paint1_radial_191953_7908" cx="0" cy="0" r="1" gradientUnits="userSpaceOnUse" gradientTransform="translate(153.62 56.3126) rotate(90) scale(5.35976 3.80513)">
<stop stop-color="#FFBBBB"/>
<stop offset="1" stop-color="#FFBBBB" stop-opacity="0"/>
</radialGradient>
</defs>
</svg>
