<svg width="308" height="308" viewBox="0 0 308 308" fill="none" xmlns="http://www.w3.org/2000/svg">
<path d="M70.5963 172.273C82.7984 168.085 88.2866 171.127 89.5054 173.172C90.5719 177.246 86.7304 176.888 77.1828 175.647C67.6351 174.407 61.7784 177.179 59.1745 178.75C56.5705 180.322 50.966 190.272 50.5326 188.029C50.1859 186.235 52.7483 182.937 54.0728 181.512C51.0571 182.618 46.6205 183.413 53.0004 177.748C60.9753 170.665 56.7973 160.102 57.6997 159.185C58.4215 158.451 59.6034 160.469 60.104 161.57C60.1176 163.124 60.2143 167.111 60.4933 170.631C60.7723 174.152 67.3449 173.192 70.5963 172.273Z" fill="#FF6B0A"/>
<path d="M136.428 125.576C144.3 120.679 151.592 78.0581 154.254 57.3599C162.256 56.1268 177.155 54.4005 172.743 57.3599C167.227 61.0591 168.418 67.1805 164.756 86.2494C161.094 105.318 164.756 120.543 164.756 139.465C164.756 181.477 127.083 189.822 101.978 183.315C83.256 178.463 75.4551 168.604 75.4551 157.43C75.455 134.321 46.3791 120.794 105.24 136.636C126.52 142.364 126.588 131.697 136.428 125.576Z" fill="white"/>
<path d="M69.1935 166.181C81.3956 161.992 86.8838 165.035 88.1026 167.08C89.1691 171.154 85.3276 170.796 75.7799 169.555C66.2323 168.315 60.3756 171.087 57.7716 172.658C55.1677 174.23 49.5632 184.18 49.1298 181.937C48.783 180.143 51.3455 176.845 52.67 175.42C49.6542 176.526 45.2177 177.321 51.5976 171.656C59.5724 164.573 55.3945 154.01 56.2968 153.093C57.0187 152.359 58.2005 154.377 58.7012 155.478C58.7147 157.032 58.8115 161.019 59.0905 164.539C59.3695 168.06 65.9421 167.1 69.1935 166.181Z" fill="#FF6B0A"/>
<path d="M154.628 40.9865C154.874 34.6829 160.917 34.6538 163.909 35.4271C171.963 33.6262 170.869 44.7073 172.707 46.9836C174.546 49.2598 174.414 51.4923 173.802 58.1461C173.189 64.7998 163.909 70.6656 159.137 70.0089C154.366 69.3523 151.258 62.6111 149.375 55.826C147.493 49.041 154.322 48.8659 154.628 40.9865Z" fill="white"/>
<ellipse cx="1.57448" cy="2.47418" rx="1.57448" ry="2.47418" transform="matrix(-0.978865 0.204508 0.204508 0.978865 172.092 40.938)" fill="#0D070C"/>
<ellipse cx="154.387" cy="43.959" rx="1.57448" ry="2.47418" transform="rotate(6.93695 154.387 43.959)" fill="#0D070C"/>
<ellipse cx="171.944" cy="55.2605" rx="3.80513" ry="5.35976" transform="rotate(22.9491 171.944 55.2605)" fill="url(#paint0_radial_191953_7946)"/>
<ellipse cx="153.62" cy="56.3126" rx="3.80513" ry="5.35976" transform="rotate(-35.1816 153.62 56.3126)" fill="url(#paint1_radial_191953_7946)"/>
<ellipse opacity="0.2" cx="0.705823" cy="1.10915" rx="0.705823" ry="1.10915" transform="matrix(-0.895075 0.445916 0.445916 0.895075 154.584 41.8271)" fill="white"/>
<ellipse opacity="0.2" cx="0.705823" cy="1.10915" rx="0.705823" ry="1.10915" transform="matrix(-0.895075 0.445916 0.445916 0.895075 171.234 41.3711)" fill="white"/>
<path d="M169.139 47.7141C169.166 39.8785 161.609 38.8915 161.645 38.9867C154.187 41.3282 155.152 48.0403 155.462 49.0266C156.314 51.741 151.843 54.3624 153.331 57.1655C154.819 59.9685 155.054 65.9286 156.354 70.0382C157.151 72.5568 158.231 73.4427 158.976 73.6484C158.779 73.6585 158.862 73.6651 159.06 73.669C159.252 73.7104 159.418 73.7059 159.548 73.6735C159.366 73.673 159.189 73.6716 159.06 73.669C159.032 73.6631 159.004 73.6562 158.976 73.6484C159.234 73.635 159.975 73.6155 161.57 73.5876C166.069 73.5091 166.1 67.5982 169.69 60.6919C173.28 53.7855 169.104 57.5087 169.139 47.7141Z" fill="#FF6B0A"/>
<path d="M161.448 70.7223C165.031 70.255 165.853 62.2242 165.816 58.2673C163.586 57.8742 158.766 57.396 157.333 58.6276C155.541 60.167 156.971 71.3064 161.448 70.7223Z" fill="#1F0C02"/>
<path d="M160.675 69.7422C158.145 69.5345 158.705 63.9913 159.301 61.2457L164.189 61.0381C164.072 64.026 163.205 69.9499 160.675 69.7422Z" fill="#956C7C"/>
<path d="M160.87 67.7586C160.335 67.4092 160.862 61.9251 161.193 59.2267L162.271 59.2959C162.027 62.2624 161.405 68.108 160.87 67.7586Z" fill="#86616F"/>
<path d="M167.148 55.1715C164.501 50.1059 165.796 47.1806 166.773 46.3511C162.786 41.5226 158.558 44.6176 156.942 46.7686C160.022 51.7032 157.715 47.7489 156.193 55.6367C154.975 61.947 159.189 63.8955 161.448 64.081C164.451 63.2218 169.795 60.237 167.148 55.1715Z" fill="#EB6005"/>
<path d="M155.996 58.2572C161.417 50.1925 165.907 55.7351 167.475 59.5145C167.017 61.1098 165.144 64.2624 161.31 64.11C157.477 63.9576 156.17 60.1447 155.996 58.2572Z" fill="#EFE5D5"/>
<path d="M162.375 56.9994C162.41 56.3308 162.583 55.0896 162.997 55.4735C163.411 55.8573 162.755 56.6507 162.375 56.9994Z" fill="#DACAB0"/>
<path d="M161.109 57.0557C161.123 56.3864 161.04 55.1359 160.599 55.4887C160.158 55.8415 160.755 56.6804 161.109 57.0557Z" fill="#DACAB0"/>
<path d="M157.785 30.5449L157.518 36.2719C160.769 39.1421 166.5 37.7952 168.96 36.763L169.145 30.9237L157.785 30.5449Z" fill="#373500"/>
<path d="M157.519 36.2718C158.37 39.3234 161.907 43.4095 168.946 36.7211L157.519 36.2718Z" fill="#373500"/>
<ellipse cx="5.69268" cy="0.981278" rx="5.69268" ry="0.981278" transform="matrix(-0.99961 -0.0279109 -0.0279109 0.99961 169.169 29.9138)" fill="#373500"/>
<path d="M157.785 30.5449L157.518 36.2719C160.769 39.1421 166.5 37.7952 168.96 36.763L169.145 30.9237C169.145 30.9237 168.226 31.0904 167.633 31.0773C166.922 31.0615 165.839 30.7689 165.839 30.7689L162.539 35.7507L160.861 30.4049C160.861 30.4049 159.948 30.8667 159.316 30.8901C158.703 30.9127 157.785 30.5449 157.785 30.5449Z" fill="#4B4800"/>
<path d="M163.797 32.3617C163.765 32.3776 163.739 32.3892 163.715 32.4043C163.516 32.5241 163.388 32.673 163.326 32.8945C163.299 32.9883 163.283 33.0863 163.263 33.1808C163.245 33.2644 163.228 33.3465 163.209 33.4299C163.203 33.4515 163.206 33.4612 163.231 33.4668C163.284 33.4767 163.327 33.5062 163.344 33.56C163.36 33.6074 163.348 33.6504 163.316 33.6853C163.284 33.7217 163.24 33.7332 163.192 33.7302C163.169 33.7279 163.154 33.717 163.143 33.6939C163.06 33.5183 163.019 33.3342 163.014 33.1409C163.01 32.9809 163.038 32.824 163.06 32.668C163.072 32.5791 163.08 32.4883 163.095 32.3996C163.104 32.3436 163.108 32.2902 163.099 32.234C163.09 32.1778 163.069 32.1253 163.034 32.0761C162.989 32.1144 162.958 32.1619 162.941 32.2156C162.927 32.2664 162.918 32.3209 162.912 32.3724C162.905 32.4286 162.906 32.4856 162.902 32.5405C162.893 32.6866 162.885 32.8328 162.871 32.9784C162.846 33.221 162.762 33.442 162.618 33.6382C162.599 33.6649 162.576 33.6706 162.547 33.6646C162.472 33.651 162.421 33.5876 162.427 33.5171C162.434 33.4513 162.498 33.3975 162.572 33.4015C162.599 33.4026 162.602 33.3933 162.601 33.3711C162.597 33.2554 162.596 33.1383 162.595 33.0228C162.591 32.8913 162.596 32.7606 162.554 32.6333C162.499 32.4652 162.405 32.3471 162.265 32.2371C162.255 32.2298 162.244 32.2224 162.229 32.2115C162.228 32.2256 162.227 32.235 162.226 32.2444C162.168 32.8503 162.111 33.4312 162.053 34.0371C162.049 34.0716 162.049 34.0716 162.082 34.0748C162.207 34.0868 162.333 34.099 162.457 34.1111C162.479 34.1132 162.488 34.1204 162.491 34.1428C162.511 34.3122 162.583 34.4582 162.71 34.5748C162.736 34.5995 162.759 34.6301 162.783 34.6578C162.862 34.5832 162.966 34.5364 163.036 34.4467C163.092 34.3732 163.139 34.294 163.166 34.2049C163.172 34.185 163.182 34.1796 163.201 34.1815C163.329 34.1938 163.455 34.206 163.582 34.2184C163.604 34.2205 163.614 34.2167 163.617 34.1917C163.676 33.5826 163.732 32.997 163.791 32.388C163.795 32.3851 163.795 32.3789 163.797 32.3617ZM163.631 32.6269C163.634 32.6288 163.639 32.6293 163.642 32.6311C163.641 32.6421 163.64 32.6531 163.639 32.664C163.611 32.9568 163.585 33.2261 163.556 33.5189C163.552 33.5674 163.552 33.5674 163.501 33.5625C163.482 33.5607 163.473 33.5551 163.47 33.5359C163.457 33.4761 163.423 33.4286 163.374 33.3954C163.353 33.3807 163.352 33.3663 163.357 33.3447C163.382 33.2381 163.408 33.13 163.428 33.0229C163.45 32.9112 163.483 32.8291 163.549 32.7359C163.575 32.6974 163.604 32.6638 163.631 32.6269ZM162.333 32.506C162.336 32.5063 162.338 32.5049 162.341 32.5052C162.349 32.5186 162.357 32.5321 162.364 32.5454C162.416 32.6453 162.46 32.7237 162.465 32.8364C162.47 32.9792 162.472 33.1216 162.476 33.2642C162.477 33.2833 162.471 33.2953 162.451 33.3045C162.396 33.3292 162.354 33.3678 162.328 33.4238C162.316 33.4495 162.298 33.454 162.258 33.4423C162.233 33.4351 162.245 33.4172 162.246 33.4032C162.275 33.1057 162.301 32.8317 162.33 32.5326C162.33 32.5231 162.331 32.5137 162.333 32.506ZM163.202 33.8607C163.21 33.8599 163.22 33.8593 163.231 33.8572C163.332 33.8449 163.414 33.8038 163.456 33.7051C163.462 33.6915 163.469 33.6858 163.483 33.6888C163.494 33.6898 163.505 33.6909 163.516 33.692C163.531 33.6935 163.537 33.7004 163.536 33.716C163.524 33.8334 163.513 33.9524 163.5 34.0697C163.499 34.076 163.485 34.0888 163.479 34.0882C163.394 34.0816 163.307 34.0732 163.222 34.0634C163.216 34.0628 163.204 34.0506 163.203 34.0442C163.203 33.9841 163.202 33.924 163.202 33.8607ZM162.528 33.7955C162.515 33.8575 162.502 33.9162 162.49 33.9767C162.486 33.9937 162.474 33.9925 162.461 33.9913C162.381 33.9835 162.302 33.9743 162.222 33.9681C162.196 33.9657 162.189 33.9555 162.193 33.9322C162.205 33.8275 162.214 33.7224 162.224 33.6159C162.229 33.5674 162.229 33.5674 162.277 33.5721C162.292 33.5735 162.304 33.5747 162.307 33.5924C162.327 33.6875 162.39 33.7442 162.475 33.7793C162.494 33.7859 162.512 33.7892 162.528 33.7955ZM162.904 33.3863C162.937 33.5111 162.97 33.6328 163.027 33.7489C162.975 33.7771 162.926 33.804 162.876 33.8292C162.869 33.8333 162.854 33.8286 162.846 33.8231C162.808 33.7941 162.773 33.7623 162.734 33.7333C162.722 33.7242 162.72 33.7161 162.729 33.7028C162.797 33.6129 162.846 33.5134 162.891 33.4102C162.896 33.4029 162.901 33.3938 162.904 33.3863ZM163.034 34.1684C163.032 34.2505 162.93 34.4049 162.876 34.4202C162.875 34.4185 162.873 34.4168 162.873 34.4168C162.881 34.3354 162.887 34.2538 162.897 34.1741C162.897 34.1678 162.909 34.1595 162.916 34.1586C162.955 34.1592 162.994 34.1646 163.034 34.1684ZM162.743 34.4105C162.679 34.3648 162.617 34.1897 162.634 34.1281C162.669 34.1315 162.706 34.1351 162.741 34.1385C162.761 34.1405 162.767 34.1489 162.765 34.1677C162.759 34.2335 162.752 34.2992 162.746 34.365C162.746 34.3792 162.745 34.3933 162.743 34.4105ZM162.991 34.0394C162.97 34.0374 162.948 34.0369 162.928 34.0317C162.922 34.0311 162.91 34.0174 162.912 34.0128C162.928 33.9449 162.978 33.8896 163.046 33.8804C163.06 33.8786 163.068 33.8825 163.07 33.8969C163.072 33.9398 163.073 33.9825 163.075 34.027C163.075 34.0428 163.065 34.0481 163.05 34.0468C163.032 34.0434 163.011 34.0414 162.991 34.0394ZM162.701 34.0113C162.682 34.0095 162.665 34.0078 162.646 34.006C162.627 34.0057 162.616 33.9969 162.621 33.9768C162.63 33.9381 162.639 33.8994 162.649 33.8609C162.654 33.8424 162.663 33.8386 162.682 33.8467C162.74 33.8697 162.787 33.9391 162.783 34.0003C162.782 34.0066 162.77 34.0165 162.764 34.0174C162.742 34.0169 162.721 34.0133 162.701 34.0113Z" fill="#FFD500"/>
<path d="M144.785 106.524C152.572 109.346 158.956 106.828 162.7 105.105L162.7 108.429C154.268 112.935 147.842 110.699 144.133 109.018L144.785 106.524Z" fill="#005BBB"/>
<path d="M144.094 109.172C153.428 112.902 158.944 110.112 162.714 108.429L163.136 111.282C154.633 115.699 147.146 113.01 143.48 111.282L144.094 109.172Z" fill="#FFD500"/>
<path d="M148.295 132.811C157.237 131.883 163.355 134.474 165.296 135.885C174.646 151.028 148.664 165.556 146.757 168.886C144.85 172.216 139.998 168.195 137.735 168.43C135.471 168.665 135.189 167.302 131.042 166.34C126.894 165.378 128.608 159.841 124.724 159.722C120.84 159.602 122.277 156.495 118.183 155.702C114.088 154.909 117.53 151.106 112.932 150.887C108.334 150.668 112.209 147.308 108.584 146.292C104.959 145.276 105.954 143.335 105.643 140.333C105.121 135.306 127.774 114.825 127.993 116.924C136.665 117.194 145.141 127.628 148.295 132.811Z" fill="white"/>
<path d="M23.0904 93.8118C110.631 84.7314 115.056 114.484 124.874 114.804C132.84 117.027 140.482 125.513 107.326 141.674C104.042 140.74 105.802 138.964 102.001 139.199C98.2006 139.433 102.546 132.163 95.0819 135.486C87.6175 138.81 89.638 134.936 84.5925 135.459C80.556 135.878 80.8433 133.936 81.4915 132.913C80.3318 133.511 77.1432 134.32 73.6674 132.768C70.8854 131.526 73.4367 129.417 74.8006 128.516C71.622 130.227 63.9487 127.909 62.2118 126.499C61.2295 125.701 63.6926 124.343 65.5602 123.532C61.6098 124.235 52.8395 123.747 51.3984 122.426C50.074 121.212 53.8289 118.509 55.8718 117.309C51.6995 117.954 43.133 118.949 42.2453 117.766C41.4897 116.76 45.6245 114.06 48.7474 112.285C42.9735 115.126 37.7449 113.983 35.7227 112.961C41.9282 108.462 52.6007 100.707 45.6458 105.686C38.691 110.665 33.0773 108.764 31.1398 107.19C37.4119 104.766 47.8432 100.136 39.3919 101.012C30.9405 101.889 23.3372 100.596 20.592 99.8392C28.4461 98.4296 42.1208 95.7322 33.9861 96.2191C25.8513 96.7059 23.3328 94.8171 23.0904 93.8118Z" fill="white"/>
<path d="M156.432 134.646C147.619 133.172 141.275 134.855 139.204 135.881C128.422 147.792 152.876 161.956 154.45 164.885C156.025 167.815 161.247 164.838 163.478 165.211C165.709 165.584 166.122 164.469 170.345 163.99C174.568 163.512 173.401 158.755 177.28 158.96C181.159 159.164 180.03 156.457 184.184 156.116C188.338 155.774 185.281 152.33 189.881 152.507C194.481 152.684 190.95 149.575 194.658 149.011C198.366 148.446 197.564 146.748 198.166 144.266C199.175 140.11 178.614 121.237 178.192 122.972C169.531 122.518 160.076 130.566 156.432 134.646Z" fill="white"/>
<path d="M284.681 112.747C198.405 98.3112 191.193 122.432 181.39 121.914C173.252 123.108 164.845 129.48 196.322 145.412C199.679 144.905 198.094 143.304 201.855 143.8C205.616 144.295 201.976 137.969 209.092 141.297C216.208 144.625 214.563 141.277 219.535 142.109C223.514 142.775 223.411 141.155 222.862 140.261C223.96 140.846 227.058 141.765 230.664 140.765C233.55 139.965 231.209 138.028 229.937 137.177C232.939 138.838 240.795 137.542 242.657 136.52C243.71 135.942 241.387 134.629 239.604 133.813C243.47 134.706 252.246 135.002 253.805 134.031C255.237 133.138 251.755 130.615 249.835 129.466C253.927 130.328 262.36 131.829 263.355 130.926C264.202 130.158 260.341 127.609 257.4 125.9C262.879 128.697 268.191 128.173 270.3 127.493C264.548 123.298 254.657 116.07 261.11 120.719C267.563 125.368 273.33 124.251 275.407 123.111C269.392 120.618 259.447 115.979 267.776 117.373C276.105 118.766 283.795 118.308 286.599 117.904C278.914 116.119 265.558 112.812 273.609 113.86C281.66 114.908 284.345 113.555 284.681 112.747Z" fill="white"/>
<path d="M143.797 110.185C137.505 110.168 126.811 114.631 134.294 130.962C141.721 147.174 142.522 157.981 137.931 156.558C137.898 156.545 137.864 156.534 137.828 156.524C137.862 156.536 137.897 156.547 137.931 156.558C139.199 157.047 138.383 159.666 138.984 160.581C144.197 160.93 145.131 150.843 135.1 130.631C132.732 125.209 131.774 114.074 142.98 112.904L143.797 110.185Z" fill="#FFD500"/>
<path d="M144.965 106.251C138.638 105.187 131.615 105.489 137.266 123.322C142.858 140.971 135.389 140.769 130.826 138.413C130.783 138.387 130.737 138.362 130.685 138.339C130.732 138.364 130.779 138.388 130.826 138.413C131.942 139.089 130.39 140.692 130.883 141.709C136.086 142.93 144.817 140.921 138.115 123.119C136.356 117.219 132.865 107.82 144.271 108.495L144.965 106.251Z" fill="#005BBB"/>
<path d="M195.165 183.766C206.974 175.794 202.721 159.821 199.118 152.831C208.5 151.985 219.152 169.524 223.305 178.399C232.852 176.548 254.674 175.035 265.585 183.792C279.224 194.738 282.04 230.585 269.697 257.038C257.354 283.491 135.711 273.217 116.011 274.426C96.3116 275.635 81.1779 249.25 89.3117 208.311C97.4456 167.372 180.403 193.732 195.165 183.766Z" fill="white" stroke="#B1CCFF" stroke-width="2"/>
<path d="M113.445 218.302H110.539L110.523 216.786H113.016C113.443 216.786 113.799 216.726 114.086 216.606C114.372 216.486 114.589 216.312 114.734 216.083C114.885 215.854 114.961 215.575 114.961 215.247C114.961 214.882 114.891 214.585 114.75 214.356C114.615 214.127 114.401 213.96 114.109 213.856C113.818 213.747 113.448 213.692 113 213.692H111.234V223.372H109.086V211.997H113C113.646 211.997 114.221 212.059 114.727 212.184C115.237 212.304 115.669 212.492 116.023 212.747C116.378 213.002 116.646 213.322 116.828 213.708C117.016 214.093 117.109 214.552 117.109 215.083C117.109 215.552 117 215.984 116.781 216.38C116.568 216.77 116.237 217.088 115.789 217.333C115.346 217.578 114.784 217.718 114.102 217.755L113.445 218.302ZM113.352 223.372H109.906L110.805 221.684H113.352C113.779 221.684 114.13 221.614 114.406 221.473C114.688 221.333 114.896 221.14 115.031 220.895C115.172 220.645 115.242 220.359 115.242 220.036C115.242 219.682 115.18 219.374 115.055 219.114C114.935 218.854 114.742 218.653 114.477 218.512C114.216 218.372 113.872 218.302 113.445 218.302H111.211L111.227 216.786H114.07L114.562 217.372C115.219 217.377 115.753 217.507 116.164 217.762C116.581 218.018 116.888 218.346 117.086 218.747C117.284 219.148 117.383 219.58 117.383 220.044C117.383 220.773 117.224 221.385 116.906 221.88C116.594 222.374 116.135 222.747 115.531 222.997C114.932 223.247 114.206 223.372 113.352 223.372ZM123.742 221.575V217.677C123.742 217.39 123.693 217.143 123.594 216.934C123.495 216.726 123.344 216.565 123.141 216.45C122.938 216.335 122.68 216.278 122.367 216.278C122.091 216.278 121.849 216.325 121.641 216.419C121.438 216.512 121.281 216.645 121.172 216.817C121.062 216.984 121.008 217.177 121.008 217.395H118.938C118.938 217.046 119.021 216.716 119.188 216.403C119.354 216.085 119.591 215.804 119.898 215.559C120.211 215.309 120.583 215.114 121.016 214.973C121.453 214.833 121.943 214.762 122.484 214.762C123.125 214.762 123.695 214.872 124.195 215.091C124.701 215.304 125.096 215.627 125.383 216.059C125.674 216.492 125.82 217.036 125.82 217.692V221.38C125.82 221.802 125.846 222.163 125.898 222.466C125.956 222.762 126.039 223.02 126.148 223.239V223.372H124.047C123.948 223.158 123.872 222.887 123.82 222.559C123.768 222.226 123.742 221.898 123.742 221.575ZM124.031 218.223L124.047 219.45H122.742C122.419 219.45 122.135 219.484 121.891 219.552C121.646 219.614 121.445 219.708 121.289 219.833C121.133 219.953 121.016 220.098 120.938 220.27C120.859 220.437 120.82 220.627 120.82 220.841C120.82 221.049 120.867 221.236 120.961 221.403C121.06 221.57 121.201 221.703 121.383 221.802C121.57 221.895 121.789 221.942 122.039 221.942C122.404 221.942 122.721 221.869 122.992 221.723C123.263 221.572 123.474 221.39 123.625 221.177C123.776 220.963 123.857 220.76 123.867 220.567L124.461 221.458C124.388 221.671 124.279 221.898 124.133 222.137C123.987 222.377 123.799 222.601 123.57 222.809C123.341 223.018 123.065 223.19 122.742 223.325C122.419 223.46 122.044 223.528 121.617 223.528C121.07 223.528 120.581 223.419 120.148 223.2C119.716 222.981 119.375 222.682 119.125 222.302C118.875 221.921 118.75 221.489 118.75 221.005C118.75 220.557 118.833 220.161 119 219.817C119.167 219.473 119.414 219.184 119.742 218.95C120.07 218.71 120.477 218.531 120.961 218.411C121.451 218.286 122.01 218.223 122.641 218.223H124.031ZM129.703 216.723V223.372H127.641V214.919H129.578L129.703 216.723ZM129.375 218.841H128.766C128.771 218.226 128.854 217.669 129.016 217.169C129.177 216.669 129.404 216.239 129.695 215.88C129.992 215.52 130.344 215.244 130.75 215.052C131.156 214.859 131.609 214.762 132.109 214.762C132.516 214.762 132.883 214.82 133.211 214.934C133.539 215.049 133.82 215.231 134.055 215.481C134.294 215.731 134.477 216.059 134.602 216.466C134.732 216.867 134.797 217.361 134.797 217.95V223.372H132.719V217.934C132.719 217.549 132.661 217.244 132.547 217.02C132.438 216.796 132.276 216.637 132.062 216.544C131.854 216.45 131.596 216.403 131.289 216.403C130.971 216.403 130.693 216.468 130.453 216.598C130.219 216.723 130.021 216.898 129.859 217.122C129.703 217.346 129.583 217.604 129.5 217.895C129.417 218.187 129.375 218.502 129.375 218.841ZM141.688 221.575V211.372H143.766V223.372H141.891L141.688 221.575ZM136.258 219.247V219.083C136.258 218.437 136.331 217.851 136.477 217.325C136.628 216.794 136.846 216.338 137.133 215.958C137.419 215.578 137.766 215.283 138.172 215.075C138.583 214.867 139.049 214.762 139.57 214.762C140.076 214.762 140.516 214.864 140.891 215.067C141.271 215.27 141.594 215.559 141.859 215.934C142.13 216.309 142.346 216.755 142.508 217.27C142.669 217.781 142.786 218.343 142.859 218.958V219.403C142.786 220.002 142.669 220.552 142.508 221.052C142.346 221.552 142.13 221.989 141.859 222.364C141.594 222.734 141.271 223.02 140.891 223.223C140.51 223.427 140.065 223.528 139.555 223.528C139.039 223.528 138.576 223.421 138.164 223.208C137.758 222.994 137.411 222.695 137.125 222.309C136.844 221.924 136.628 221.471 136.477 220.95C136.331 220.429 136.258 219.861 136.258 219.247ZM138.328 219.083V219.247C138.328 219.611 138.359 219.953 138.422 220.27C138.484 220.588 138.586 220.869 138.727 221.114C138.867 221.354 139.047 221.541 139.266 221.677C139.49 221.812 139.76 221.88 140.078 221.88C140.484 221.88 140.818 221.791 141.078 221.614C141.344 221.432 141.549 221.184 141.695 220.872C141.841 220.554 141.935 220.197 141.977 219.802V218.575C141.956 218.262 141.901 217.973 141.812 217.708C141.729 217.442 141.609 217.213 141.453 217.02C141.302 216.828 141.115 216.677 140.891 216.567C140.667 216.458 140.401 216.403 140.094 216.403C139.776 216.403 139.505 216.473 139.281 216.614C139.057 216.749 138.875 216.94 138.734 217.184C138.594 217.429 138.49 217.713 138.422 218.036C138.359 218.359 138.328 218.708 138.328 219.083ZM149.43 223.528C148.789 223.528 148.214 223.424 147.703 223.216C147.193 223.007 146.758 222.718 146.398 222.348C146.044 221.973 145.771 221.538 145.578 221.044C145.391 220.544 145.297 220.007 145.297 219.434V219.122C145.297 218.471 145.391 217.88 145.578 217.348C145.766 216.812 146.031 216.351 146.375 215.966C146.719 215.58 147.13 215.283 147.609 215.075C148.089 214.867 148.617 214.762 149.195 214.762C149.794 214.762 150.323 214.864 150.781 215.067C151.24 215.265 151.622 215.546 151.93 215.911C152.237 216.275 152.469 216.713 152.625 217.223C152.781 217.729 152.859 218.288 152.859 218.903V219.77H146.234V218.348H150.828V218.192C150.818 217.864 150.755 217.565 150.641 217.294C150.526 217.018 150.349 216.799 150.109 216.637C149.87 216.471 149.56 216.387 149.18 216.387C148.872 216.387 148.604 216.455 148.375 216.591C148.151 216.721 147.964 216.908 147.812 217.153C147.667 217.393 147.557 217.679 147.484 218.012C147.411 218.346 147.375 218.716 147.375 219.122V219.434C147.375 219.788 147.422 220.117 147.516 220.419C147.615 220.721 147.758 220.984 147.945 221.208C148.138 221.427 148.367 221.598 148.633 221.723C148.904 221.843 149.211 221.903 149.555 221.903C149.987 221.903 150.378 221.82 150.727 221.653C151.081 221.481 151.388 221.229 151.648 220.895L152.688 221.973C152.51 222.234 152.271 222.484 151.969 222.723C151.672 222.963 151.312 223.158 150.891 223.309C150.469 223.455 149.982 223.528 149.43 223.528ZM156.305 216.645V223.372H154.242V214.919H156.195L156.305 216.645ZM158.875 214.864L158.844 216.786C158.729 216.765 158.599 216.749 158.453 216.739C158.312 216.729 158.18 216.723 158.055 216.723C157.737 216.723 157.458 216.768 157.219 216.856C156.979 216.94 156.779 217.062 156.617 217.223C156.461 217.385 156.341 217.583 156.258 217.817C156.174 218.046 156.128 218.307 156.117 218.598L155.672 218.544C155.672 218.007 155.727 217.51 155.836 217.052C155.945 216.593 156.104 216.192 156.312 215.848C156.521 215.505 156.781 215.239 157.094 215.052C157.411 214.859 157.776 214.762 158.188 214.762C158.302 214.762 158.424 214.773 158.555 214.794C158.69 214.809 158.797 214.833 158.875 214.864ZM159.422 219.231V219.067C159.422 218.447 159.51 217.877 159.688 217.356C159.865 216.83 160.122 216.374 160.461 215.989C160.799 215.604 161.214 215.304 161.703 215.091C162.193 214.872 162.75 214.762 163.375 214.762C164.01 214.762 164.573 214.872 165.062 215.091C165.557 215.304 165.974 215.604 166.312 215.989C166.651 216.374 166.909 216.83 167.086 217.356C167.263 217.877 167.352 218.447 167.352 219.067V219.231C167.352 219.846 167.263 220.416 167.086 220.942C166.909 221.463 166.651 221.919 166.312 222.309C165.974 222.695 165.56 222.994 165.07 223.208C164.581 223.421 164.021 223.528 163.391 223.528C162.766 223.528 162.206 223.421 161.711 223.208C161.216 222.994 160.799 222.695 160.461 222.309C160.122 221.919 159.865 221.463 159.688 220.942C159.51 220.416 159.422 219.846 159.422 219.231ZM161.484 219.067V219.231C161.484 219.601 161.521 219.947 161.594 220.27C161.667 220.593 161.779 220.877 161.93 221.122C162.081 221.367 162.276 221.559 162.516 221.7C162.76 221.835 163.052 221.903 163.391 221.903C163.724 221.903 164.01 221.835 164.25 221.7C164.49 221.559 164.685 221.367 164.836 221.122C164.992 220.877 165.107 220.593 165.18 220.27C165.253 219.947 165.289 219.601 165.289 219.231V219.067C165.289 218.703 165.253 218.361 165.18 218.044C165.107 217.721 164.992 217.437 164.836 217.192C164.685 216.942 164.487 216.747 164.242 216.606C164.003 216.46 163.714 216.387 163.375 216.387C163.042 216.387 162.755 216.46 162.516 216.606C162.276 216.747 162.081 216.942 161.93 217.192C161.779 217.437 161.667 217.721 161.594 218.044C161.521 218.361 161.484 218.703 161.484 219.067ZM174.227 214.919H176.102V223.114C176.102 223.88 175.935 224.528 175.602 225.059C175.273 225.596 174.812 226.002 174.219 226.278C173.625 226.559 172.935 226.7 172.148 226.7C171.81 226.7 171.443 226.653 171.047 226.559C170.656 226.466 170.279 226.317 169.914 226.114C169.555 225.916 169.255 225.658 169.016 225.341L169.945 224.122C170.227 224.45 170.544 224.697 170.898 224.864C171.253 225.036 171.635 225.122 172.047 225.122C172.464 225.122 172.818 225.044 173.109 224.887C173.406 224.736 173.633 224.512 173.789 224.216C173.951 223.924 174.031 223.565 174.031 223.137V216.848L174.227 214.919ZM168.516 219.247V219.083C168.516 218.437 168.594 217.851 168.75 217.325C168.906 216.794 169.13 216.338 169.422 215.958C169.719 215.578 170.076 215.283 170.492 215.075C170.914 214.867 171.388 214.762 171.914 214.762C172.471 214.762 172.94 214.864 173.32 215.067C173.706 215.27 174.023 215.559 174.273 215.934C174.529 216.309 174.727 216.755 174.867 217.27C175.013 217.781 175.125 218.343 175.203 218.958V219.403C175.13 220.002 175.013 220.552 174.852 221.052C174.695 221.552 174.487 221.989 174.227 222.364C173.966 222.734 173.643 223.02 173.258 223.223C172.872 223.427 172.419 223.528 171.898 223.528C171.378 223.528 170.909 223.421 170.492 223.208C170.076 222.994 169.719 222.695 169.422 222.309C169.13 221.924 168.906 221.471 168.75 220.95C168.594 220.429 168.516 219.861 168.516 219.247ZM170.578 219.083V219.247C170.578 219.611 170.615 219.953 170.688 220.27C170.76 220.588 170.872 220.869 171.023 221.114C171.174 221.354 171.365 221.541 171.594 221.677C171.823 221.812 172.096 221.88 172.414 221.88C172.841 221.88 173.19 221.791 173.461 221.614C173.737 221.432 173.945 221.184 174.086 220.872C174.232 220.554 174.326 220.197 174.367 219.802V218.575C174.341 218.262 174.284 217.973 174.195 217.708C174.112 217.442 173.995 217.213 173.844 217.02C173.693 216.828 173.5 216.677 173.266 216.567C173.031 216.458 172.753 216.403 172.43 216.403C172.117 216.403 171.844 216.473 171.609 216.614C171.375 216.749 171.182 216.94 171.031 217.184C170.88 217.429 170.766 217.713 170.688 218.036C170.615 218.359 170.578 218.708 170.578 219.083ZM182.992 221.364V214.919H185.07V223.372H183.117L182.992 221.364ZM183.258 219.614L183.898 219.598C183.898 220.166 183.836 220.69 183.711 221.169C183.586 221.648 183.391 222.065 183.125 222.419C182.865 222.768 182.534 223.041 182.133 223.239C181.732 223.432 181.258 223.528 180.711 223.528C180.294 223.528 179.914 223.471 179.57 223.356C179.227 223.236 178.93 223.052 178.68 222.802C178.435 222.546 178.245 222.221 178.109 221.825C177.974 221.424 177.906 220.942 177.906 220.38V214.919H179.969V220.395C179.969 220.677 180 220.911 180.062 221.098C180.13 221.286 180.221 221.44 180.336 221.559C180.456 221.674 180.594 221.757 180.75 221.809C180.911 221.856 181.083 221.88 181.266 221.88C181.766 221.88 182.159 221.781 182.445 221.583C182.737 221.38 182.945 221.109 183.07 220.77C183.195 220.427 183.258 220.041 183.258 219.614ZM191.547 221.059C191.547 220.882 191.5 220.723 191.406 220.583C191.312 220.442 191.135 220.315 190.875 220.2C190.62 220.08 190.245 219.968 189.75 219.864C189.312 219.77 188.909 219.653 188.539 219.512C188.169 219.372 187.852 219.203 187.586 219.005C187.32 218.802 187.112 218.565 186.961 218.294C186.815 218.018 186.742 217.7 186.742 217.341C186.742 216.992 186.818 216.663 186.969 216.356C187.12 216.044 187.339 215.77 187.625 215.536C187.911 215.296 188.26 215.109 188.672 214.973C189.083 214.833 189.547 214.762 190.062 214.762C190.781 214.762 191.398 214.88 191.914 215.114C192.435 215.348 192.833 215.671 193.109 216.083C193.385 216.489 193.523 216.947 193.523 217.458H191.461C191.461 217.234 191.409 217.031 191.305 216.848C191.206 216.666 191.052 216.52 190.844 216.411C190.635 216.296 190.372 216.239 190.055 216.239C189.768 216.239 189.526 216.286 189.328 216.38C189.135 216.473 188.99 216.596 188.891 216.747C188.792 216.898 188.742 217.065 188.742 217.247C188.742 217.382 188.768 217.505 188.82 217.614C188.878 217.718 188.969 217.815 189.094 217.903C189.219 217.992 189.388 218.072 189.602 218.145C189.82 218.218 190.089 218.288 190.406 218.356C191.036 218.481 191.586 218.648 192.055 218.856C192.529 219.059 192.898 219.33 193.164 219.669C193.43 220.007 193.562 220.44 193.562 220.966C193.562 221.341 193.482 221.684 193.32 221.997C193.159 222.304 192.924 222.572 192.617 222.802C192.31 223.031 191.943 223.21 191.516 223.341C191.089 223.466 190.607 223.528 190.07 223.528C189.294 223.528 188.638 223.39 188.102 223.114C187.565 222.833 187.159 222.479 186.883 222.052C186.607 221.619 186.469 221.171 186.469 220.708H188.445C188.461 221.036 188.549 221.299 188.711 221.497C188.872 221.695 189.076 221.838 189.32 221.927C189.57 222.01 189.833 222.052 190.109 222.052C190.422 222.052 190.685 222.01 190.898 221.927C191.112 221.838 191.273 221.721 191.383 221.575C191.492 221.424 191.547 221.252 191.547 221.059ZM111.633 243.372H109.555V234.137C109.555 233.502 109.677 232.968 109.922 232.536C110.167 232.098 110.516 231.768 110.969 231.544C111.422 231.32 111.956 231.208 112.57 231.208C112.773 231.208 112.966 231.221 113.148 231.247C113.336 231.273 113.521 231.309 113.703 231.356L113.664 232.927C113.565 232.9 113.456 232.882 113.336 232.872C113.221 232.861 113.094 232.856 112.953 232.856C112.672 232.856 112.432 232.906 112.234 233.005C112.036 233.104 111.885 233.249 111.781 233.442C111.682 233.63 111.633 233.861 111.633 234.137V243.372ZM113.344 234.919V236.403H108.281V234.919H113.344ZM114.25 239.231V239.067C114.25 238.447 114.339 237.877 114.516 237.356C114.693 236.83 114.951 236.374 115.289 235.989C115.628 235.604 116.042 235.304 116.531 235.091C117.021 234.872 117.578 234.762 118.203 234.762C118.839 234.762 119.401 234.872 119.891 235.091C120.385 235.304 120.802 235.604 121.141 235.989C121.479 236.374 121.737 236.83 121.914 237.356C122.091 237.877 122.18 238.447 122.18 239.067V239.231C122.18 239.846 122.091 240.416 121.914 240.942C121.737 241.463 121.479 241.919 121.141 242.309C120.802 242.695 120.388 242.994 119.898 243.208C119.409 243.421 118.849 243.528 118.219 243.528C117.594 243.528 117.034 243.421 116.539 243.208C116.044 242.994 115.628 242.695 115.289 242.309C114.951 241.919 114.693 241.463 114.516 240.942C114.339 240.416 114.25 239.846 114.25 239.231ZM116.312 239.067V239.231C116.312 239.601 116.349 239.947 116.422 240.27C116.495 240.593 116.607 240.877 116.758 241.122C116.909 241.367 117.104 241.559 117.344 241.7C117.589 241.835 117.88 241.903 118.219 241.903C118.552 241.903 118.839 241.835 119.078 241.7C119.318 241.559 119.513 241.367 119.664 241.122C119.82 240.877 119.935 240.593 120.008 240.27C120.081 239.947 120.117 239.601 120.117 239.231V239.067C120.117 238.703 120.081 238.361 120.008 238.044C119.935 237.721 119.82 237.437 119.664 237.192C119.513 236.942 119.315 236.747 119.07 236.606C118.831 236.46 118.542 236.387 118.203 236.387C117.87 236.387 117.583 236.46 117.344 236.606C117.104 236.747 116.909 236.942 116.758 237.192C116.607 237.437 116.495 237.721 116.422 238.044C116.349 238.361 116.312 238.703 116.312 239.067ZM125.742 236.645V243.372H123.68V234.919H125.633L125.742 236.645ZM128.312 234.864L128.281 236.786C128.167 236.765 128.036 236.749 127.891 236.739C127.75 236.729 127.617 236.723 127.492 236.723C127.174 236.723 126.896 236.768 126.656 236.856C126.417 236.94 126.216 237.062 126.055 237.223C125.898 237.385 125.779 237.583 125.695 237.817C125.612 238.046 125.565 238.307 125.555 238.598L125.109 238.544C125.109 238.007 125.164 237.51 125.273 237.052C125.383 236.593 125.542 236.192 125.75 235.848C125.958 235.505 126.219 235.239 126.531 235.052C126.849 234.859 127.214 234.762 127.625 234.762C127.74 234.762 127.862 234.773 127.992 234.794C128.128 234.809 128.234 234.833 128.312 234.864ZM137.43 234.919V236.403H132.586V234.919H137.43ZM133.883 232.841H135.953V240.934C135.953 241.184 135.987 241.377 136.055 241.512C136.122 241.648 136.224 241.739 136.359 241.786C136.495 241.833 136.656 241.856 136.844 241.856C136.979 241.856 137.104 241.848 137.219 241.833C137.333 241.817 137.43 241.802 137.508 241.786L137.516 243.333C137.344 243.39 137.148 243.437 136.93 243.473C136.716 243.51 136.474 243.528 136.203 243.528C135.74 243.528 135.333 243.45 134.984 243.294C134.635 243.132 134.365 242.874 134.172 242.52C133.979 242.161 133.883 241.687 133.883 241.098V232.841ZM140.828 231.372V243.372H138.758V231.372H140.828ZM140.5 238.841H139.891C139.891 238.252 139.969 237.71 140.125 237.216C140.281 236.721 140.503 236.291 140.789 235.927C141.076 235.557 141.417 235.27 141.812 235.067C142.214 234.864 142.656 234.762 143.141 234.762C143.557 234.762 143.935 234.822 144.273 234.942C144.617 235.057 144.911 235.242 145.156 235.497C145.401 235.752 145.589 236.085 145.719 236.497C145.854 236.903 145.922 237.398 145.922 237.981V243.372H143.844V237.966C143.844 237.575 143.786 237.268 143.672 237.044C143.557 236.815 143.393 236.65 143.18 236.552C142.971 236.453 142.714 236.403 142.406 236.403C142.073 236.403 141.786 236.468 141.547 236.598C141.307 236.723 141.109 236.898 140.953 237.122C140.802 237.346 140.688 237.604 140.609 237.895C140.536 238.187 140.5 238.502 140.5 238.841ZM151.539 243.528C150.898 243.528 150.323 243.424 149.812 243.216C149.302 243.007 148.867 242.718 148.508 242.348C148.154 241.973 147.88 241.538 147.688 241.044C147.5 240.544 147.406 240.007 147.406 239.434V239.122C147.406 238.471 147.5 237.88 147.688 237.348C147.875 236.812 148.141 236.351 148.484 235.966C148.828 235.58 149.24 235.283 149.719 235.075C150.198 234.867 150.727 234.762 151.305 234.762C151.904 234.762 152.432 234.864 152.891 235.067C153.349 235.265 153.732 235.546 154.039 235.911C154.346 236.275 154.578 236.713 154.734 237.223C154.891 237.729 154.969 238.288 154.969 238.903V239.77H148.344V238.348H152.938V238.192C152.927 237.864 152.865 237.565 152.75 237.294C152.635 237.018 152.458 236.799 152.219 236.637C151.979 236.471 151.669 236.387 151.289 236.387C150.982 236.387 150.714 236.455 150.484 236.591C150.26 236.721 150.073 236.908 149.922 237.153C149.776 237.393 149.667 237.679 149.594 238.012C149.521 238.346 149.484 238.716 149.484 239.122V239.434C149.484 239.788 149.531 240.117 149.625 240.419C149.724 240.721 149.867 240.984 150.055 241.208C150.247 241.427 150.477 241.598 150.742 241.723C151.013 241.843 151.32 241.903 151.664 241.903C152.096 241.903 152.487 241.82 152.836 241.653C153.19 241.481 153.497 241.229 153.758 240.895L154.797 241.973C154.62 242.234 154.38 242.484 154.078 242.723C153.781 242.963 153.422 243.158 153 243.309C152.578 243.455 152.091 243.528 151.539 243.528ZM159.969 239.231V239.067C159.969 238.447 160.057 237.877 160.234 237.356C160.411 236.83 160.669 236.374 161.008 235.989C161.346 235.604 161.76 235.304 162.25 235.091C162.74 234.872 163.297 234.762 163.922 234.762C164.557 234.762 165.12 234.872 165.609 235.091C166.104 235.304 166.521 235.604 166.859 235.989C167.198 236.374 167.456 236.83 167.633 237.356C167.81 237.877 167.898 238.447 167.898 239.067V239.231C167.898 239.846 167.81 240.416 167.633 240.942C167.456 241.463 167.198 241.919 166.859 242.309C166.521 242.695 166.107 242.994 165.617 243.208C165.128 243.421 164.568 243.528 163.938 243.528C163.312 243.528 162.753 243.421 162.258 243.208C161.763 242.994 161.346 242.695 161.008 242.309C160.669 241.919 160.411 241.463 160.234 240.942C160.057 240.416 159.969 239.846 159.969 239.231ZM162.031 239.067V239.231C162.031 239.601 162.068 239.947 162.141 240.27C162.214 240.593 162.326 240.877 162.477 241.122C162.628 241.367 162.823 241.559 163.062 241.7C163.307 241.835 163.599 241.903 163.938 241.903C164.271 241.903 164.557 241.835 164.797 241.7C165.036 241.559 165.232 241.367 165.383 241.122C165.539 240.877 165.654 240.593 165.727 240.27C165.799 239.947 165.836 239.601 165.836 239.231V239.067C165.836 238.703 165.799 238.361 165.727 238.044C165.654 237.721 165.539 237.437 165.383 237.192C165.232 236.942 165.034 236.747 164.789 236.606C164.549 236.46 164.26 236.387 163.922 236.387C163.589 236.387 163.302 236.46 163.062 236.606C162.823 236.747 162.628 236.942 162.477 237.192C162.326 237.437 162.214 237.721 162.141 238.044C162.068 238.361 162.031 238.703 162.031 239.067ZM171.461 236.645V243.372H169.398V234.919H171.352L171.461 236.645ZM174.031 234.864L174 236.786C173.885 236.765 173.755 236.749 173.609 236.739C173.469 236.729 173.336 236.723 173.211 236.723C172.893 236.723 172.615 236.768 172.375 236.856C172.135 236.94 171.935 237.062 171.773 237.223C171.617 237.385 171.497 237.583 171.414 237.817C171.331 238.046 171.284 238.307 171.273 238.598L170.828 238.544C170.828 238.007 170.883 237.51 170.992 237.052C171.102 236.593 171.26 236.192 171.469 235.848C171.677 235.505 171.938 235.239 172.25 235.052C172.568 234.859 172.932 234.762 173.344 234.762C173.458 234.762 173.581 234.773 173.711 234.794C173.846 234.809 173.953 234.833 174.031 234.864ZM178.477 241.903C178.768 241.903 179.029 241.846 179.258 241.731C179.487 241.617 179.669 241.455 179.805 241.247C179.945 241.038 180.021 240.796 180.031 240.52H181.977C181.966 241.093 181.805 241.606 181.492 242.059C181.18 242.512 180.763 242.872 180.242 243.137C179.727 243.398 179.148 243.528 178.508 243.528C177.857 243.528 177.289 243.419 176.805 243.2C176.32 242.981 175.917 242.677 175.594 242.286C175.276 241.895 175.036 241.442 174.875 240.927C174.719 240.411 174.641 239.859 174.641 239.27V239.02C174.641 238.432 174.719 237.88 174.875 237.364C175.036 236.848 175.276 236.395 175.594 236.005C175.917 235.614 176.32 235.309 176.805 235.091C177.289 234.872 177.854 234.762 178.5 234.762C179.182 234.762 179.781 234.895 180.297 235.161C180.818 235.427 181.224 235.802 181.516 236.286C181.812 236.77 181.966 237.341 181.977 237.997H180.031C180.021 237.695 179.953 237.424 179.828 237.184C179.703 236.945 179.526 236.752 179.297 236.606C179.068 236.46 178.789 236.387 178.461 236.387C178.112 236.387 177.82 236.46 177.586 236.606C177.357 236.752 177.177 236.953 177.047 237.208C176.922 237.458 176.833 237.739 176.781 238.052C176.734 238.359 176.711 238.682 176.711 239.02V239.27C176.711 239.614 176.734 239.942 176.781 240.255C176.833 240.567 176.922 240.848 177.047 241.098C177.177 241.343 177.357 241.538 177.586 241.684C177.82 241.83 178.117 241.903 178.477 241.903ZM188 241.059C188 240.882 187.953 240.723 187.859 240.583C187.766 240.442 187.589 240.315 187.328 240.2C187.073 240.08 186.698 239.968 186.203 239.864C185.766 239.77 185.362 239.653 184.992 239.512C184.622 239.372 184.305 239.203 184.039 239.005C183.773 238.802 183.565 238.565 183.414 238.294C183.268 238.018 183.195 237.7 183.195 237.341C183.195 236.992 183.271 236.663 183.422 236.356C183.573 236.044 183.792 235.77 184.078 235.536C184.365 235.296 184.714 235.109 185.125 234.973C185.536 234.833 186 234.762 186.516 234.762C187.234 234.762 187.852 234.88 188.367 235.114C188.888 235.348 189.286 235.671 189.562 236.083C189.839 236.489 189.977 236.947 189.977 237.458H187.914C187.914 237.234 187.862 237.031 187.758 236.848C187.659 236.666 187.505 236.52 187.297 236.411C187.089 236.296 186.826 236.239 186.508 236.239C186.221 236.239 185.979 236.286 185.781 236.38C185.589 236.473 185.443 236.596 185.344 236.747C185.245 236.898 185.195 237.065 185.195 237.247C185.195 237.382 185.221 237.505 185.273 237.614C185.331 237.718 185.422 237.815 185.547 237.903C185.672 237.992 185.841 238.072 186.055 238.145C186.273 238.218 186.542 238.288 186.859 238.356C187.49 238.481 188.039 238.648 188.508 238.856C188.982 239.059 189.352 239.33 189.617 239.669C189.883 240.007 190.016 240.44 190.016 240.966C190.016 241.341 189.935 241.684 189.773 241.997C189.612 242.304 189.378 242.572 189.07 242.802C188.763 243.031 188.396 243.21 187.969 243.341C187.542 243.466 187.06 243.528 186.523 243.528C185.747 243.528 185.091 243.39 184.555 243.114C184.018 242.833 183.612 242.479 183.336 242.052C183.06 241.619 182.922 241.171 182.922 240.708H184.898C184.914 241.036 185.003 241.299 185.164 241.497C185.326 241.695 185.529 241.838 185.773 241.927C186.023 242.01 186.286 242.052 186.562 242.052C186.875 242.052 187.138 242.01 187.352 241.927C187.565 241.838 187.727 241.721 187.836 241.575C187.945 241.424 188 241.252 188 241.059ZM192.766 231.372V232.442L192.547 235.505H191.227V232.559V231.372H192.766ZM202.852 241.575V237.677C202.852 237.39 202.802 237.143 202.703 236.934C202.604 236.726 202.453 236.565 202.25 236.45C202.047 236.335 201.789 236.278 201.477 236.278C201.201 236.278 200.958 236.325 200.75 236.419C200.547 236.512 200.391 236.645 200.281 236.817C200.172 236.984 200.117 237.177 200.117 237.395H198.047C198.047 237.046 198.13 236.716 198.297 236.403C198.464 236.085 198.701 235.804 199.008 235.559C199.32 235.309 199.693 235.114 200.125 234.973C200.562 234.833 201.052 234.762 201.594 234.762C202.234 234.762 202.805 234.872 203.305 235.091C203.81 235.304 204.206 235.627 204.492 236.059C204.784 236.492 204.93 237.036 204.93 237.692V241.38C204.93 241.802 204.956 242.163 205.008 242.466C205.065 242.762 205.148 243.02 205.258 243.239V243.372H203.156C203.057 243.158 202.982 242.887 202.93 242.559C202.878 242.226 202.852 241.898 202.852 241.575ZM203.141 238.223L203.156 239.45H201.852C201.529 239.45 201.245 239.484 201 239.552C200.755 239.614 200.555 239.708 200.398 239.833C200.242 239.953 200.125 240.098 200.047 240.27C199.969 240.437 199.93 240.627 199.93 240.841C199.93 241.049 199.977 241.236 200.07 241.403C200.169 241.57 200.31 241.703 200.492 241.802C200.68 241.895 200.898 241.942 201.148 241.942C201.513 241.942 201.831 241.869 202.102 241.723C202.372 241.572 202.583 241.39 202.734 241.177C202.885 240.963 202.966 240.76 202.977 240.567L203.57 241.458C203.497 241.671 203.388 241.898 203.242 242.137C203.096 242.377 202.909 242.601 202.68 242.809C202.451 243.018 202.174 243.19 201.852 243.325C201.529 243.46 201.154 243.528 200.727 243.528C200.18 243.528 199.69 243.419 199.258 243.2C198.826 242.981 198.484 242.682 198.234 242.302C197.984 241.921 197.859 241.489 197.859 241.005C197.859 240.557 197.943 240.161 198.109 239.817C198.276 239.473 198.523 239.184 198.852 238.95C199.18 238.71 199.586 238.531 200.07 238.411C200.56 238.286 201.12 238.223 201.75 238.223H203.141ZM208.852 236.645V243.372H206.789V234.919H208.742L208.852 236.645ZM211.422 234.864L211.391 236.786C211.276 236.765 211.146 236.749 211 236.739C210.859 236.729 210.727 236.723 210.602 236.723C210.284 236.723 210.005 236.768 209.766 236.856C209.526 236.94 209.326 237.062 209.164 237.223C209.008 237.385 208.888 237.583 208.805 237.817C208.721 238.046 208.674 238.307 208.664 238.598L208.219 238.544C208.219 238.007 208.273 237.51 208.383 237.052C208.492 236.593 208.651 236.192 208.859 235.848C209.068 235.505 209.328 235.239 209.641 235.052C209.958 234.859 210.323 234.762 210.734 234.762C210.849 234.762 210.971 234.773 211.102 234.794C211.237 234.809 211.344 234.833 211.422 234.864ZM217.203 241.059C217.203 240.882 217.156 240.723 217.062 240.583C216.969 240.442 216.792 240.315 216.531 240.2C216.276 240.08 215.901 239.968 215.406 239.864C214.969 239.77 214.565 239.653 214.195 239.512C213.826 239.372 213.508 239.203 213.242 239.005C212.977 238.802 212.768 238.565 212.617 238.294C212.471 238.018 212.398 237.7 212.398 237.341C212.398 236.992 212.474 236.663 212.625 236.356C212.776 236.044 212.995 235.77 213.281 235.536C213.568 235.296 213.917 235.109 214.328 234.973C214.74 234.833 215.203 234.762 215.719 234.762C216.438 234.762 217.055 234.88 217.57 235.114C218.091 235.348 218.49 235.671 218.766 236.083C219.042 236.489 219.18 236.947 219.18 237.458H217.117C217.117 237.234 217.065 237.031 216.961 236.848C216.862 236.666 216.708 236.52 216.5 236.411C216.292 236.296 216.029 236.239 215.711 236.239C215.424 236.239 215.182 236.286 214.984 236.38C214.792 236.473 214.646 236.596 214.547 236.747C214.448 236.898 214.398 237.065 214.398 237.247C214.398 237.382 214.424 237.505 214.477 237.614C214.534 237.718 214.625 237.815 214.75 237.903C214.875 237.992 215.044 238.072 215.258 238.145C215.477 238.218 215.745 238.288 216.062 238.356C216.693 238.481 217.242 238.648 217.711 238.856C218.185 239.059 218.555 239.33 218.82 239.669C219.086 240.007 219.219 240.44 219.219 240.966C219.219 241.341 219.138 241.684 218.977 241.997C218.815 242.304 218.581 242.572 218.273 242.802C217.966 243.031 217.599 243.21 217.172 243.341C216.745 243.466 216.263 243.528 215.727 243.528C214.951 243.528 214.294 243.39 213.758 243.114C213.221 242.833 212.815 242.479 212.539 242.052C212.263 241.619 212.125 241.171 212.125 240.708H214.102C214.117 241.036 214.206 241.299 214.367 241.497C214.529 241.695 214.732 241.838 214.977 241.927C215.227 242.01 215.49 242.052 215.766 242.052C216.078 242.052 216.341 242.01 216.555 241.927C216.768 241.838 216.93 241.721 217.039 241.575C217.148 241.424 217.203 241.252 217.203 241.059ZM224.586 243.528C223.945 243.528 223.37 243.424 222.859 243.216C222.349 243.007 221.914 242.718 221.555 242.348C221.201 241.973 220.927 241.538 220.734 241.044C220.547 240.544 220.453 240.007 220.453 239.434V239.122C220.453 238.471 220.547 237.88 220.734 237.348C220.922 236.812 221.188 236.351 221.531 235.966C221.875 235.58 222.286 235.283 222.766 235.075C223.245 234.867 223.773 234.762 224.352 234.762C224.951 234.762 225.479 234.864 225.938 235.067C226.396 235.265 226.779 235.546 227.086 235.911C227.393 236.275 227.625 236.713 227.781 237.223C227.938 237.729 228.016 238.288 228.016 238.903V239.77H221.391V238.348H225.984V238.192C225.974 237.864 225.911 237.565 225.797 237.294C225.682 237.018 225.505 236.799 225.266 236.637C225.026 236.471 224.716 236.387 224.336 236.387C224.029 236.387 223.76 236.455 223.531 236.591C223.307 236.721 223.12 236.908 222.969 237.153C222.823 237.393 222.714 237.679 222.641 238.012C222.568 238.346 222.531 238.716 222.531 239.122V239.434C222.531 239.788 222.578 240.117 222.672 240.419C222.771 240.721 222.914 240.984 223.102 241.208C223.294 241.427 223.523 241.598 223.789 241.723C224.06 241.843 224.367 241.903 224.711 241.903C225.143 241.903 225.534 241.82 225.883 241.653C226.237 241.481 226.544 241.229 226.805 240.895L227.844 241.973C227.667 242.234 227.427 242.484 227.125 242.723C226.828 242.963 226.469 243.158 226.047 243.309C225.625 243.455 225.138 243.528 224.586 243.528Z" fill="#707070"/>
<defs>
<radialGradient id="paint0_radial_191953_7946" cx="0" cy="0" r="1" gradientUnits="userSpaceOnUse" gradientTransform="translate(171.944 55.2605) rotate(90) scale(5.35976 3.80513)">
<stop stop-color="#FFBBBB"/>
<stop offset="1" stop-color="#FFBBBB" stop-opacity="0"/>
</radialGradient>
<radialGradient id="paint1_radial_191953_7946" cx="0" cy="0" r="1" gradientUnits="userSpaceOnUse" gradientTransform="translate(153.62 56.3126) rotate(90) scale(5.35976 3.80513)">
<stop stop-color="#FFBBBB"/>
<stop offset="1" stop-color="#FFBBBB" stop-opacity="0"/>
</radialGradient>
</defs>
</svg>
