<svg width="308" height="288" viewBox="0 0 308 288" fill="none" xmlns="http://www.w3.org/2000/svg">
<path d="M146.089 96.668C131.414 103.747 134.71 120.505 138.193 128C127.114 128 116.488 109.046 112.56 99.5691C101.181 100.584 75.4594 100.12 63.6028 90.1404C48.782 77.6656 49.2679 40.6764 66.5183 14.7114C83.7688 -11.2535 225.174 10.5048 248.377 11.085C271.58 11.6653 286.523 40.0962 272.674 81.292C258.825 122.488 164.433 87.8195 146.089 96.668Z" fill="white" stroke="#B1CCFF" stroke-width="2"/>
<path d="M177.528 245.139L184.158 247.688L194.421 240.194L163.616 197.325L130.183 171.002L177.528 245.139Z" fill="#808080"/>
<rect x="145.301" y="208.375" width="11.1564" height="6.3013" transform="rotate(-119.719 145.301 208.375)" fill="#C4C4C4"/>
<path d="M155.277 178.511L153.238 182.108L154.699 184.666L156.325 180.346L155.277 178.511Z" fill="#A7A7A7"/>
<rect x="138.337" y="196.173" width="11.1564" height="6.3013" transform="rotate(-119.719 138.337 196.173)" fill="#C4C4C4"/>
<path d="M187.769 252.764L183.85 247.983C194.138 237.709 203.529 234.202 206.939 233.733L209.115 237.546C198.288 243.25 190.373 250.068 187.769 252.764Z" fill="#A7A7A7"/>
<path d="M146.648 219.589L123.419 183.22C124.717 179.576 128.326 179.209 129.968 179.481L152.749 216.107C152.088 219.41 148.407 219.805 146.648 219.589Z" fill="#A7A7A7"/>
<path d="M125.761 158.985L107.74 131.27C108.742 125.44 113.465 125.811 115.702 126.725L134.207 155.235L125.761 158.985Z" fill="#9B9B9B"/>
<path d="M135.087 161.782L125.614 147.214C126.14 144.15 128.623 144.345 129.798 144.825L139.525 159.811L135.087 161.782Z" fill="#A7A7A7"/>
<path d="M122.285 168.106L124.561 164.488L129.861 173.773L126.023 174.655L122.285 168.106Z" fill="#C4C4C4"/>
<path d="M124.076 159.888L126.352 156.269L131.652 165.555L127.815 166.437L124.076 159.888Z" fill="#C4C4C4"/>
<path fill-rule="evenodd" clip-rule="evenodd" d="M155.034 184.872L160.952 193.701C161.249 192.085 162.219 189.106 163.728 190.124C165.614 191.397 177.909 189.077 179.463 187.476C181.017 185.875 174.276 168.491 171.475 171.607C168.681 174.714 143.357 167.373 142.92 166.8L142.917 166.796C142.918 166.797 142.919 166.799 142.92 166.8L148.409 174.988C155.39 176.276 166.173 177.858 169.143 176.642C173.632 174.804 174.018 181.429 171.587 182.381C169.55 183.179 159.168 184.724 155.034 184.872ZM134.403 153.13L136.444 151.965L144.962 164.231L142.316 165.742L134.403 153.13Z" fill="#A7A7A7"/>
<path d="M206.81 233.925L194.997 241.62L163.769 197.594L158.364 200.68L165.97 212.545L159.997 216.876L158.943 217.477L155.071 215.227L123.725 164.846L125.227 163.988C125.669 163.737 126.705 163.002 127.32 162.08C127.935 161.158 126.128 157.527 125.148 155.827L134.839 152.644L149.285 174.669C154.873 183.364 166.677 200.865 169.191 201.309C172.333 201.865 179.708 206.814 184.283 210.298C187.944 213.085 185.973 215.984 184.53 217.085C185.746 221.173 195.543 224.448 200.289 225.574L206.81 233.925Z" fill="#9B9B9B"/>
<path d="M130.967 174.75C140.489 174.75 146.653 178.256 148.544 180.009C156.739 197.528 127.777 210.394 125.404 213.799C123.031 217.205 118.358 212.285 115.948 212.285C113.538 212.285 113.389 210.772 109.125 209.258C104.86 207.745 107.271 201.918 103.192 201.35C99.1125 200.783 100.967 197.566 96.7392 196.242C92.5118 194.918 96.5538 191.172 91.7331 190.415C86.9123 189.658 91.3622 186.442 87.654 184.928C83.9457 183.415 85.2066 181.417 85.2066 178.117C85.2066 172.593 111.312 152.879 111.313 155.187C120.42 156.458 128.21 168.758 130.967 174.75Z" fill="white"/>
<path d="M3.32566 121C97.5302 121 98.9555 153.027 109.374 154.446C117.609 157.678 124.807 167.514 87.7229 181C84.3293 179.649 86.3994 177.959 82.3271 177.791C78.2549 177.622 83.6846 170.392 75.3704 173.095C67.0562 175.797 69.6353 171.912 64.2057 171.912C59.8619 171.912 60.3823 169.885 61.1854 168.872C59.8846 169.378 56.4005 169.885 52.8713 167.858C50.0465 166.236 52.9957 164.281 54.5474 163.475C50.9743 164.94 43.0607 161.639 41.3672 159.953C40.4094 158.999 43.1818 157.831 45.2598 157.176C40.9762 157.487 31.6927 156.005 30.3043 154.446C29.0283 153.014 33.3245 150.561 35.6321 149.514C31.1187 149.739 21.8883 149.851 21.0738 148.5C20.3805 147.35 25.0809 144.943 28.6017 143.405C22.1407 145.781 16.7002 143.995 14.6601 142.689C21.7639 138.601 33.9829 131.554 26.0284 136.068C18.074 140.581 12.3072 137.948 10.4181 136.068C17.3636 134.187 28.9808 130.426 19.8861 130.426C10.7914 130.426 2.83926 128.218 0 127.115C8.51777 126.484 23.3747 125.128 14.6601 124.75C5.94547 124.372 3.47272 122.092 3.32566 121Z" fill="white"/>
<path d="M176.033 173.75C166.511 173.75 160.347 177.256 158.456 179.009C150.261 196.528 179.223 209.394 181.596 212.799C183.969 216.205 188.642 211.285 191.052 211.285C193.462 211.285 193.611 209.772 197.875 208.258C202.14 206.745 199.729 200.918 203.808 200.35C207.887 199.783 206.033 196.566 210.261 195.242C214.488 193.918 210.446 190.172 215.267 189.415C220.088 188.658 215.638 185.442 219.346 183.928C223.054 182.415 221.793 180.417 221.793 177.117C221.793 171.593 195.688 151.879 195.687 154.187C186.58 155.458 178.79 167.758 176.033 173.75Z" fill="white"/>
<path d="M303.674 118C209.47 118 208.045 151.095 197.626 152.561C189.391 155.901 182.193 166.064 219.277 180C222.671 178.604 220.601 176.858 224.673 176.684C228.745 176.509 223.315 169.038 231.63 171.831C239.944 174.624 237.365 170.609 242.794 170.609C247.138 170.609 246.618 168.515 245.815 167.467C247.115 167.991 250.599 168.515 254.129 166.42C256.953 164.744 254.004 162.724 252.453 161.891C256.026 163.405 263.939 159.993 265.633 158.251C266.591 157.266 263.818 156.058 261.74 155.381C266.024 155.703 275.307 154.171 276.696 152.561C277.972 151.081 273.675 148.546 271.368 147.464C275.881 147.697 285.112 147.813 285.926 146.417C286.619 145.228 281.919 142.741 278.398 141.151C284.859 143.607 290.3 141.761 292.34 140.412C285.236 136.188 273.017 128.906 280.972 133.57C288.926 138.234 294.693 135.513 296.582 133.57C289.636 131.627 278.019 127.74 287.114 127.74C296.209 127.74 304.161 125.459 307 124.319C298.482 123.667 283.625 122.266 292.34 121.875C301.055 121.484 303.527 119.129 303.674 118Z" fill="white"/>
<path d="M133.455 179.767C140.095 175.647 146.246 139.789 148.492 122.375C155.241 121.337 167.81 119.885 164.088 122.375C159.435 125.487 160.44 130.637 157.35 146.68C154.261 162.723 164.088 175.098 177.078 184.398C190.068 193.698 179.125 224.191 168.74 243.828C158.355 263.465 148.492 261.946 129.807 256.24C111.122 250.534 116.817 231.971 116.817 211.816C116.817 191.66 125.154 184.917 133.455 179.767Z" fill="white"/>
<path d="M129.079 268.551C134.538 258.748 132.635 253.658 131.001 252.338C127.549 250.867 127.314 254.186 127.039 262.481C126.765 270.776 123.47 275.376 121.705 277.375C119.94 279.373 110.331 282.766 112.253 283.445C113.79 283.988 117.077 282.264 118.528 281.334C117.116 283.747 115.775 287.412 121.705 282.766C129.118 276.96 137.864 281.975 138.806 281.334C139.559 280.821 137.943 279.536 137.041 278.958C135.668 278.732 132.154 278.099 129.079 277.375C126.004 276.651 127.798 271.191 129.079 268.551Z" fill="#FF6B0A"/>
<path d="M155.554 268.551C150.296 258.748 152.129 253.658 153.703 252.338C157.027 250.867 157.253 254.186 157.518 262.481C157.782 270.776 160.955 275.376 162.654 277.375C164.354 279.373 173.607 282.766 171.757 283.445C170.276 283.988 167.111 282.264 165.714 281.334C167.073 283.747 168.365 287.412 162.654 282.766C155.516 276.96 147.094 281.975 146.187 281.334C145.462 280.821 147.018 279.536 147.887 278.958C149.209 278.732 152.593 278.099 155.554 277.375C158.515 276.651 156.788 271.191 155.554 268.551Z" fill="#FF6B0A"/>
<path d="M149.178 108.247C149.386 102.904 154.508 102.88 157.044 103.535C163.871 102.009 162.943 111.401 164.501 113.33C166.06 115.26 165.948 117.152 165.429 122.791C164.909 128.431 157.044 133.403 152.999 132.846C148.955 132.29 146.321 126.576 144.725 120.825C143.13 115.074 148.918 114.926 149.178 108.247Z" fill="white"/>
<ellipse cx="1.33452" cy="2.0971" rx="1.33452" ry="2.0971" transform="matrix(-0.978865 0.204508 0.204508 0.978865 163.98 108.206)" fill="#0D070C"/>
<ellipse cx="148.973" cy="110.767" rx="1.33452" ry="2.0971" transform="rotate(6.93695 148.973 110.767)" fill="#0D070C"/>
<ellipse cx="162.207" cy="120.446" rx="3.2252" ry="4.5429" transform="rotate(22.9491 162.207 120.446)" fill="url(#paint0_radial_191951_7737)"/>
<ellipse cx="148.546" cy="119.983" rx="3.2252" ry="4.5429" transform="rotate(-35.1816 148.546 119.983)" fill="url(#paint1_radial_191951_7737)"/>
<ellipse opacity="0.2" cx="0.598251" cy="0.940109" rx="0.598251" ry="0.940109" transform="matrix(-0.895075 0.445916 0.445916 0.895075 149.14 108.96)" fill="white"/>
<ellipse opacity="0.2" cx="0.598251" cy="0.940109" rx="0.598251" ry="0.940109" transform="matrix(-0.895075 0.445916 0.445916 0.895075 163.252 108.573)" fill="white"/>
<path d="M161.476 113.949C161.5 107.308 155.094 106.471 155.125 106.552C148.804 108.537 149.621 114.226 149.884 115.062C150.606 117.363 146.816 119.584 148.078 121.96C149.339 124.336 149.538 129.388 150.64 132.871C151.316 135.006 152.231 135.757 152.862 135.931C152.696 135.94 152.766 135.945 152.934 135.949C153.096 135.984 153.238 135.98 153.347 135.952C153.193 135.952 153.043 135.951 152.934 135.949C152.91 135.944 152.887 135.938 152.862 135.931C153.081 135.92 153.709 135.903 155.061 135.88C158.875 135.813 158.901 130.803 161.944 124.949C164.987 119.096 161.447 122.251 161.476 113.949Z" fill="#FF6B0A"/>
<path d="M154.958 133.451C157.994 133.055 158.691 126.248 158.66 122.894C156.77 122.561 152.685 122.156 151.47 123.2C149.951 124.504 151.163 133.946 154.958 133.451Z" fill="#1F0C02"/>
<path d="M154.303 132.62C152.158 132.444 152.633 127.746 153.138 125.419L157.281 125.243C157.182 127.775 156.447 132.796 154.303 132.62Z" fill="#956C7C"/>
<path d="M154.468 130.939C154.014 130.643 154.461 125.995 154.742 123.708L155.656 123.766C155.449 126.281 154.922 131.235 154.468 130.939Z" fill="#86616F"/>
<path d="M159.789 120.27C157.546 115.977 158.643 113.497 159.472 112.794C156.092 108.702 152.508 111.325 151.138 113.148C153.749 117.331 151.794 113.979 150.503 120.665C149.471 126.013 153.043 127.665 154.958 127.822C157.503 127.094 162.032 124.564 159.789 120.27Z" fill="#EA5F03"/>
<path d="M150.337 122.886C154.932 116.05 158.738 120.748 160.066 123.951C159.678 125.304 158.09 127.976 154.841 127.847C151.592 127.717 150.484 124.486 150.337 122.886Z" fill="#EFE5D5"/>
<path d="M155.744 121.82C155.773 121.253 155.92 120.201 156.271 120.526C156.622 120.852 156.066 121.524 155.744 121.82Z" fill="#DACAB0"/>
<path d="M154.67 121.867C154.682 121.3 154.612 120.24 154.238 120.539C153.864 120.838 154.371 121.549 154.67 121.867Z" fill="#DACAB0"/>
<path d="M151.853 99.3969L151.627 104.251C154.382 106.684 159.24 105.542 161.325 104.667L161.482 99.718L151.853 99.3969Z" fill="#373500"/>
<path d="M151.627 104.251C152.349 106.838 155.347 110.301 161.314 104.632L151.627 104.251Z" fill="#373500"/>
<ellipse cx="4.82508" cy="0.831725" rx="4.82508" ry="0.831725" transform="matrix(-0.99961 -0.0279109 -0.0279109 0.99961 161.503 98.8621)" fill="#373500"/>
<path d="M151.853 99.3969L151.627 104.251C154.382 106.684 159.24 105.542 161.325 104.667L161.482 99.718C161.482 99.718 160.703 99.8593 160.2 99.8481C159.598 99.8348 158.679 99.5868 158.679 99.5868L155.883 103.809L154.46 99.2782C154.46 99.2782 153.686 99.6697 153.151 99.6895C152.632 99.7087 151.853 99.3969 151.853 99.3969Z" fill="#4B4800"/>
<path d="M156.959 100.13C156.935 100.142 156.916 100.15 156.898 100.161C156.751 100.25 156.657 100.359 156.611 100.523C156.591 100.592 156.58 100.664 156.565 100.734C156.552 100.796 156.539 100.856 156.525 100.918C156.521 100.934 156.522 100.941 156.541 100.945C156.58 100.952 156.612 100.974 156.625 101.014C156.636 101.049 156.627 101.08 156.604 101.106C156.58 101.133 156.548 101.141 156.513 101.139C156.495 101.137 156.484 101.129 156.477 101.112C156.415 100.983 156.385 100.847 156.381 100.705C156.379 100.587 156.399 100.471 156.415 100.356C156.424 100.29 156.43 100.223 156.441 100.158C156.447 100.116 156.45 100.077 156.444 100.036C156.437 99.9943 156.422 99.9555 156.396 99.9192C156.363 99.9475 156.34 99.9825 156.328 100.022C156.317 100.06 156.311 100.1 156.306 100.138C156.301 100.179 156.301 100.221 156.299 100.262C156.292 100.369 156.286 100.477 156.275 100.585C156.257 100.764 156.195 100.927 156.089 101.071C156.075 101.091 156.058 101.095 156.037 101.091C155.981 101.081 155.943 101.034 155.949 100.982C155.953 100.933 156 100.894 156.055 100.897C156.075 100.898 156.077 100.891 156.076 100.874C156.074 100.789 156.073 100.703 156.072 100.617C156.069 100.52 156.073 100.424 156.042 100.33C156.001 100.206 155.932 100.119 155.829 100.038C155.821 100.033 155.813 100.027 155.802 100.019C155.801 100.03 155.801 100.036 155.8 100.043C155.757 100.49 155.715 100.919 155.672 101.366C155.67 101.391 155.67 101.391 155.694 101.393C155.786 101.402 155.879 101.411 155.971 101.42C155.987 101.422 155.993 101.427 155.995 101.443C156.01 101.568 156.063 101.676 156.157 101.762C156.176 101.78 156.193 101.803 156.211 101.823C156.269 101.768 156.346 101.734 156.397 101.668C156.439 101.613 156.474 101.555 156.493 101.489C156.498 101.475 156.505 101.471 156.519 101.472C156.613 101.481 156.706 101.49 156.8 101.499C156.817 101.501 156.824 101.498 156.826 101.479C156.869 101.03 156.911 100.598 156.954 100.149C156.957 100.147 156.957 100.143 156.959 100.13ZM156.837 100.325C156.839 100.327 156.842 100.327 156.844 100.329C156.844 100.337 156.843 100.345 156.842 100.353C156.821 100.569 156.802 100.767 156.781 100.983C156.778 101.019 156.778 101.019 156.74 101.016C156.726 101.014 156.72 101.01 156.718 100.996C156.708 100.952 156.683 100.917 156.647 100.892C156.631 100.881 156.63 100.871 156.634 100.855C156.652 100.776 156.672 100.696 156.686 100.617C156.702 100.535 156.727 100.475 156.776 100.406C156.795 100.377 156.816 100.353 156.837 100.325ZM155.879 100.236C155.881 100.237 155.882 100.235 155.885 100.236C155.891 100.246 155.897 100.256 155.902 100.265C155.94 100.339 155.972 100.397 155.976 100.48C155.98 100.585 155.981 100.69 155.984 100.795C155.985 100.81 155.981 100.818 155.966 100.825C155.926 100.843 155.895 100.872 155.875 100.913C155.867 100.932 155.853 100.935 155.824 100.927C155.805 100.922 155.814 100.908 155.815 100.898C155.836 100.679 155.856 100.476 155.877 100.256C155.876 100.249 155.877 100.242 155.879 100.236ZM156.52 101.235C156.526 101.235 156.533 101.234 156.541 101.233C156.616 101.224 156.676 101.193 156.707 101.121C156.711 101.111 156.716 101.106 156.727 101.109C156.735 101.109 156.743 101.11 156.751 101.111C156.763 101.112 156.767 101.117 156.766 101.129C156.757 101.215 156.749 101.303 156.739 101.39C156.739 101.394 156.729 101.404 156.724 101.403C156.661 101.398 156.597 101.392 156.535 101.385C156.53 101.384 156.521 101.375 156.521 101.371C156.52 101.326 156.52 101.282 156.52 101.235ZM156.022 101.187C156.013 101.233 156.003 101.276 155.994 101.321C155.992 101.334 155.983 101.333 155.973 101.332C155.914 101.326 155.856 101.319 155.797 101.315C155.778 101.313 155.773 101.305 155.776 101.288C155.784 101.211 155.791 101.133 155.798 101.055C155.802 101.019 155.802 101.019 155.838 101.023C155.848 101.024 155.858 101.024 155.86 101.038C155.874 101.108 155.921 101.149 155.984 101.175C155.997 101.18 156.011 101.183 156.022 101.187ZM156.3 100.885C156.324 100.978 156.348 101.067 156.391 101.153C156.352 101.174 156.316 101.194 156.279 101.212C156.274 101.215 156.263 101.212 156.257 101.208C156.229 101.186 156.203 101.163 156.175 101.141C156.166 101.135 156.164 101.129 156.171 101.119C156.221 101.053 156.257 100.979 156.29 100.903C156.294 100.898 156.297 100.891 156.3 100.885ZM156.396 101.462C156.395 101.523 156.319 101.637 156.279 101.648C156.278 101.647 156.277 101.646 156.277 101.646C156.283 101.585 156.288 101.525 156.295 101.467C156.295 101.462 156.304 101.456 156.309 101.455C156.338 101.456 156.367 101.46 156.396 101.462ZM156.181 101.641C156.134 101.607 156.088 101.478 156.101 101.433C156.126 101.435 156.154 101.438 156.18 101.44C156.195 101.442 156.199 101.448 156.198 101.462C156.193 101.51 156.188 101.559 156.184 101.607C156.184 101.618 156.183 101.628 156.181 101.641ZM156.364 101.367C156.349 101.366 156.332 101.365 156.318 101.362C156.313 101.361 156.305 101.351 156.306 101.348C156.318 101.297 156.355 101.257 156.405 101.25C156.415 101.249 156.421 101.251 156.422 101.262C156.424 101.294 156.424 101.325 156.426 101.358C156.426 101.37 156.418 101.374 156.408 101.373C156.394 101.37 156.379 101.369 156.364 101.367ZM156.15 101.347C156.136 101.345 156.123 101.344 156.109 101.343C156.095 101.342 156.088 101.336 156.092 101.321C156.098 101.292 156.104 101.264 156.112 101.236C156.115 101.222 156.123 101.219 156.136 101.225C156.179 101.242 156.214 101.293 156.211 101.338C156.21 101.343 156.201 101.35 156.197 101.351C156.18 101.351 156.165 101.348 156.15 101.347Z" fill="#FFD500"/>
<path d="M141.066 162.794C148.597 165.522 154.772 163.087 158.393 161.421L159.283 163.981C151.128 168.339 144.022 166.832 140.435 165.205L141.066 162.794Z" fill="#005BBB"/>
<path d="M140.398 165.354C149.425 168.962 155.712 165.72 159.357 164.092L160.396 166.652C152.172 170.925 143.349 169.066 139.804 167.394L140.398 165.354Z" fill="#FFD500"/>
<path d="M139.997 166.899C134.664 166.885 125.6 170.667 131.942 184.51C138.237 198.25 138.917 207.41 135.025 206.204C134.997 206.194 134.968 206.184 134.938 206.176C134.967 206.186 134.996 206.195 135.025 206.204C136.1 206.619 135.409 208.839 135.917 209.614C140.336 209.91 141.128 201.36 132.626 184.229C130.619 179.634 129.806 170.195 139.304 169.204L139.997 166.899Z" fill="#FFD500"/>
<path d="M140.986 163.564C135.624 162.663 129.671 162.919 134.46 178.033C139.201 192.993 132.87 192.822 129.003 190.824C128.966 190.802 128.926 190.781 128.883 190.762C128.923 190.783 128.963 190.804 129.003 190.824C129.948 191.398 128.633 192.757 129.05 193.618C133.461 194.653 140.861 192.95 135.18 177.862C133.689 172.861 130.731 164.894 140.398 165.466L140.986 163.564Z" fill="#005BBB"/>
<path d="M116.5 212.5C159.807 240.401 167.893 199.168 166.273 175.15L169 174H172.283C176.291 237.461 135.311 233.838 116.5 221V212.5Z" fill="#9B9B9B"/>
<path d="M82.6094 25.3516L79.3672 35H77.0938L81.3438 23.625H82.7969L82.6094 25.3516ZM85.3203 35L82.0625 25.3516L81.8672 23.625H83.3281L87.6016 35H85.3203ZM85.1719 30.7734V32.4688H79.0703V30.7734H85.1719ZM90.8047 23V35H88.7344V23H90.8047ZM94.9609 23V35H92.8906V23H94.9609ZM105.562 32.6875C105.562 32.5104 105.516 32.3516 105.422 32.2109C105.328 32.0703 105.151 31.9427 104.891 31.8281C104.635 31.7083 104.26 31.5964 103.766 31.4922C103.328 31.3984 102.924 31.2812 102.555 31.1406C102.185 31 101.867 30.8307 101.602 30.6328C101.336 30.4297 101.128 30.1927 100.977 29.9219C100.831 29.6458 100.758 29.3281 100.758 28.9688C100.758 28.6198 100.833 28.2917 100.984 27.9844C101.135 27.6719 101.354 27.3984 101.641 27.1641C101.927 26.9245 102.276 26.737 102.688 26.6016C103.099 26.4609 103.562 26.3906 104.078 26.3906C104.797 26.3906 105.414 26.5078 105.93 26.7422C106.451 26.9766 106.849 27.2995 107.125 27.7109C107.401 28.1172 107.539 28.5755 107.539 29.0859H105.477C105.477 28.862 105.424 28.6589 105.32 28.4766C105.221 28.2943 105.068 28.1484 104.859 28.0391C104.651 27.9245 104.388 27.8672 104.07 27.8672C103.784 27.8672 103.542 27.9141 103.344 28.0078C103.151 28.1016 103.005 28.224 102.906 28.375C102.807 28.526 102.758 28.6927 102.758 28.875C102.758 29.0104 102.784 29.1328 102.836 29.2422C102.893 29.3464 102.984 29.4427 103.109 29.5312C103.234 29.6198 103.404 29.7005 103.617 29.7734C103.836 29.8464 104.104 29.9167 104.422 29.9844C105.052 30.1094 105.602 30.276 106.07 30.4844C106.544 30.6875 106.914 30.9583 107.18 31.2969C107.445 31.6354 107.578 32.0677 107.578 32.5938C107.578 32.9688 107.497 33.3125 107.336 33.625C107.174 33.9323 106.94 34.2005 106.633 34.4297C106.326 34.6589 105.958 34.8385 105.531 34.9688C105.104 35.0938 104.622 35.1562 104.086 35.1562C103.31 35.1562 102.654 35.0182 102.117 34.7422C101.581 34.4609 101.174 34.1068 100.898 33.6797C100.622 33.2474 100.484 32.7995 100.484 32.3359H102.461C102.477 32.6641 102.565 32.9271 102.727 33.125C102.888 33.3229 103.091 33.4661 103.336 33.5547C103.586 33.638 103.849 33.6797 104.125 33.6797C104.438 33.6797 104.701 33.638 104.914 33.5547C105.128 33.4661 105.289 33.349 105.398 33.2031C105.508 33.0521 105.562 32.8802 105.562 32.6875ZM111.625 34.0625L113.891 26.5469H116.102L112.711 36.2812C112.633 36.4896 112.531 36.7161 112.406 36.9609C112.286 37.2057 112.125 37.4375 111.922 37.6562C111.719 37.8802 111.464 38.0625 111.156 38.2031C110.854 38.3438 110.487 38.4141 110.055 38.4141C109.867 38.4141 109.701 38.401 109.555 38.375C109.409 38.349 109.255 38.3151 109.094 38.2734V36.7266C109.146 36.7318 109.206 36.7344 109.273 36.7344C109.346 36.7396 109.409 36.7422 109.461 36.7422C109.763 36.7422 110.013 36.7057 110.211 36.6328C110.409 36.5651 110.568 36.4531 110.688 36.2969C110.812 36.1458 110.917 35.9479 111 35.7031L111.625 34.0625ZM110.508 26.5469L112.422 32.7734L112.758 34.9531L111.336 35.2109L108.281 26.5469H110.508ZM121.75 32.6875C121.75 32.5104 121.703 32.3516 121.609 32.2109C121.516 32.0703 121.339 31.9427 121.078 31.8281C120.823 31.7083 120.448 31.5964 119.953 31.4922C119.516 31.3984 119.112 31.2812 118.742 31.1406C118.372 31 118.055 30.8307 117.789 30.6328C117.523 30.4297 117.315 30.1927 117.164 29.9219C117.018 29.6458 116.945 29.3281 116.945 28.9688C116.945 28.6198 117.021 28.2917 117.172 27.9844C117.323 27.6719 117.542 27.3984 117.828 27.1641C118.115 26.9245 118.464 26.737 118.875 26.6016C119.286 26.4609 119.75 26.3906 120.266 26.3906C120.984 26.3906 121.602 26.5078 122.117 26.7422C122.638 26.9766 123.036 27.2995 123.312 27.7109C123.589 28.1172 123.727 28.5755 123.727 29.0859H121.664C121.664 28.862 121.612 28.6589 121.508 28.4766C121.409 28.2943 121.255 28.1484 121.047 28.0391C120.839 27.9245 120.576 27.8672 120.258 27.8672C119.971 27.8672 119.729 27.9141 119.531 28.0078C119.339 28.1016 119.193 28.224 119.094 28.375C118.995 28.526 118.945 28.6927 118.945 28.875C118.945 29.0104 118.971 29.1328 119.023 29.2422C119.081 29.3464 119.172 29.4427 119.297 29.5312C119.422 29.6198 119.591 29.7005 119.805 29.7734C120.023 29.8464 120.292 29.9167 120.609 29.9844C121.24 30.1094 121.789 30.276 122.258 30.4844C122.732 30.6875 123.102 30.9583 123.367 31.2969C123.633 31.6354 123.766 32.0677 123.766 32.5938C123.766 32.9688 123.685 33.3125 123.523 33.625C123.362 33.9323 123.128 34.2005 122.82 34.4297C122.513 34.6589 122.146 34.8385 121.719 34.9688C121.292 35.0938 120.81 35.1562 120.273 35.1562C119.497 35.1562 118.841 35.0182 118.305 34.7422C117.768 34.4609 117.362 34.1068 117.086 33.6797C116.81 33.2474 116.672 32.7995 116.672 32.3359H118.648C118.664 32.6641 118.753 32.9271 118.914 33.125C119.076 33.3229 119.279 33.4661 119.523 33.5547C119.773 33.638 120.036 33.6797 120.312 33.6797C120.625 33.6797 120.888 33.638 121.102 33.5547C121.315 33.4661 121.477 33.349 121.586 33.2031C121.695 33.0521 121.75 32.8802 121.75 32.6875ZM129.336 26.5469V28.0312H124.492V26.5469H129.336ZM125.789 24.4688H127.859V32.5625C127.859 32.8125 127.893 33.0052 127.961 33.1406C128.029 33.276 128.13 33.3672 128.266 33.4141C128.401 33.4609 128.562 33.4844 128.75 33.4844C128.885 33.4844 129.01 33.4766 129.125 33.4609C129.24 33.4453 129.336 33.4297 129.414 33.4141L129.422 34.9609C129.25 35.0182 129.055 35.0651 128.836 35.1016C128.622 35.138 128.38 35.1562 128.109 35.1562C127.646 35.1562 127.24 35.0781 126.891 34.9219C126.542 34.7604 126.271 34.5026 126.078 34.1484C125.885 33.7891 125.789 33.3151 125.789 32.7266V24.4688ZM134.508 35.1562C133.867 35.1562 133.292 35.0521 132.781 34.8438C132.271 34.6354 131.836 34.3464 131.477 33.9766C131.122 33.6016 130.849 33.1667 130.656 32.6719C130.469 32.1719 130.375 31.6354 130.375 31.0625V30.75C130.375 30.099 130.469 29.5078 130.656 28.9766C130.844 28.4401 131.109 27.9792 131.453 27.5938C131.797 27.2083 132.208 26.9115 132.688 26.7031C133.167 26.4948 133.695 26.3906 134.273 26.3906C134.872 26.3906 135.401 26.4922 135.859 26.6953C136.318 26.8932 136.701 27.1745 137.008 27.5391C137.315 27.9036 137.547 28.3411 137.703 28.8516C137.859 29.3568 137.938 29.9167 137.938 30.5312V31.3984H131.312V29.9766H135.906V29.8203C135.896 29.4922 135.833 29.1927 135.719 28.9219C135.604 28.6458 135.427 28.4271 135.188 28.2656C134.948 28.099 134.638 28.0156 134.258 28.0156C133.951 28.0156 133.682 28.0833 133.453 28.2188C133.229 28.349 133.042 28.5365 132.891 28.7812C132.745 29.0208 132.635 29.3073 132.562 29.6406C132.49 29.974 132.453 30.3438 132.453 30.75V31.0625C132.453 31.4167 132.5 31.7448 132.594 32.0469C132.693 32.349 132.836 32.612 133.023 32.8359C133.216 33.0547 133.445 33.2266 133.711 33.3516C133.982 33.4714 134.289 33.5312 134.633 33.5312C135.065 33.5312 135.456 33.4479 135.805 33.2812C136.159 33.1094 136.466 32.8568 136.727 32.5234L137.766 33.6016C137.589 33.862 137.349 34.112 137.047 34.3516C136.75 34.5911 136.391 34.7865 135.969 34.9375C135.547 35.0833 135.06 35.1562 134.508 35.1562ZM141.375 28.2812V35H139.312V26.5469H141.258L141.375 28.2812ZM141.07 30.4688H140.438C140.438 29.8802 140.508 29.3385 140.648 28.8438C140.794 28.349 141.008 27.9193 141.289 27.5547C141.57 27.1849 141.917 26.8984 142.328 26.6953C142.745 26.4922 143.227 26.3906 143.773 26.3906C144.154 26.3906 144.503 26.4479 144.82 26.5625C145.138 26.6719 145.411 26.8464 145.641 27.0859C145.875 27.3203 146.055 27.6276 146.18 28.0078C146.305 28.3828 146.367 28.8333 146.367 29.3594V35H144.305V29.5703C144.305 29.1745 144.247 28.8646 144.133 28.6406C144.023 28.4167 143.865 28.2604 143.656 28.1719C143.448 28.0781 143.198 28.0312 142.906 28.0312C142.583 28.0312 142.305 28.0964 142.07 28.2266C141.841 28.3516 141.651 28.526 141.5 28.75C141.354 28.974 141.245 29.2318 141.172 29.5234C141.104 29.8151 141.07 30.1302 141.07 30.4688ZM146.211 30.0859L145.359 30.2422C145.365 29.7109 145.438 29.2135 145.578 28.75C145.719 28.2812 145.924 27.8724 146.195 27.5234C146.471 27.1693 146.812 26.8932 147.219 26.6953C147.63 26.4922 148.104 26.3906 148.641 26.3906C149.057 26.3906 149.432 26.4505 149.766 26.5703C150.104 26.6849 150.393 26.8698 150.633 27.125C150.872 27.375 151.055 27.7005 151.18 28.1016C151.31 28.5026 151.375 28.9922 151.375 29.5703V35H149.297V29.5625C149.297 29.151 149.24 28.8359 149.125 28.6172C149.016 28.3984 148.857 28.2474 148.648 28.1641C148.44 28.0755 148.195 28.0312 147.914 28.0312C147.628 28.0312 147.378 28.0859 147.164 28.1953C146.956 28.2995 146.779 28.4453 146.633 28.6328C146.492 28.8203 146.385 29.0391 146.312 29.2891C146.245 29.5339 146.211 29.7995 146.211 30.0859ZM157.875 32.6875C157.875 32.5104 157.828 32.3516 157.734 32.2109C157.641 32.0703 157.464 31.9427 157.203 31.8281C156.948 31.7083 156.573 31.5964 156.078 31.4922C155.641 31.3984 155.237 31.2812 154.867 31.1406C154.497 31 154.18 30.8307 153.914 30.6328C153.648 30.4297 153.44 30.1927 153.289 29.9219C153.143 29.6458 153.07 29.3281 153.07 28.9688C153.07 28.6198 153.146 28.2917 153.297 27.9844C153.448 27.6719 153.667 27.3984 153.953 27.1641C154.24 26.9245 154.589 26.737 155 26.6016C155.411 26.4609 155.875 26.3906 156.391 26.3906C157.109 26.3906 157.727 26.5078 158.242 26.7422C158.763 26.9766 159.161 27.2995 159.438 27.7109C159.714 28.1172 159.852 28.5755 159.852 29.0859H157.789C157.789 28.862 157.737 28.6589 157.633 28.4766C157.534 28.2943 157.38 28.1484 157.172 28.0391C156.964 27.9245 156.701 27.8672 156.383 27.8672C156.096 27.8672 155.854 27.9141 155.656 28.0078C155.464 28.1016 155.318 28.224 155.219 28.375C155.12 28.526 155.07 28.6927 155.07 28.875C155.07 29.0104 155.096 29.1328 155.148 29.2422C155.206 29.3464 155.297 29.4427 155.422 29.5312C155.547 29.6198 155.716 29.7005 155.93 29.7734C156.148 29.8464 156.417 29.9167 156.734 29.9844C157.365 30.1094 157.914 30.276 158.383 30.4844C158.857 30.6875 159.227 30.9583 159.492 31.2969C159.758 31.6354 159.891 32.0677 159.891 32.5938C159.891 32.9688 159.81 33.3125 159.648 33.625C159.487 33.9323 159.253 34.2005 158.945 34.4297C158.638 34.6589 158.271 34.8385 157.844 34.9688C157.417 35.0938 156.935 35.1562 156.398 35.1562C155.622 35.1562 154.966 35.0182 154.43 34.7422C153.893 34.4609 153.487 34.1068 153.211 33.6797C152.935 33.2474 152.797 32.7995 152.797 32.3359H154.773C154.789 32.6641 154.878 32.9271 155.039 33.125C155.201 33.3229 155.404 33.4661 155.648 33.5547C155.898 33.638 156.161 33.6797 156.438 33.6797C156.75 33.6797 157.013 33.638 157.227 33.5547C157.44 33.4661 157.602 33.349 157.711 33.2031C157.82 33.0521 157.875 32.8802 157.875 32.6875ZM170.102 33.2031V29.3047C170.102 29.0182 170.052 28.7708 169.953 28.5625C169.854 28.3542 169.703 28.1927 169.5 28.0781C169.297 27.9635 169.039 27.9062 168.727 27.9062C168.451 27.9062 168.208 27.9531 168 28.0469C167.797 28.1406 167.641 28.2734 167.531 28.4453C167.422 28.612 167.367 28.8047 167.367 29.0234H165.297C165.297 28.6745 165.38 28.3438 165.547 28.0312C165.714 27.7135 165.951 27.4323 166.258 27.1875C166.57 26.9375 166.943 26.7422 167.375 26.6016C167.812 26.4609 168.302 26.3906 168.844 26.3906C169.484 26.3906 170.055 26.5 170.555 26.7188C171.06 26.9323 171.456 27.2552 171.742 27.6875C172.034 28.1198 172.18 28.6641 172.18 29.3203V33.0078C172.18 33.4297 172.206 33.7917 172.258 34.0938C172.315 34.3906 172.398 34.6484 172.508 34.8672V35H170.406C170.307 34.7865 170.232 34.5156 170.18 34.1875C170.128 33.8542 170.102 33.526 170.102 33.2031ZM170.391 29.8516L170.406 31.0781H169.102C168.779 31.0781 168.495 31.112 168.25 31.1797C168.005 31.2422 167.805 31.3359 167.648 31.4609C167.492 31.5807 167.375 31.7266 167.297 31.8984C167.219 32.0651 167.18 32.2552 167.18 32.4688C167.18 32.6771 167.227 32.8646 167.32 33.0312C167.419 33.1979 167.56 33.3307 167.742 33.4297C167.93 33.5234 168.148 33.5703 168.398 33.5703C168.763 33.5703 169.081 33.4974 169.352 33.3516C169.622 33.2005 169.833 33.0182 169.984 32.8047C170.135 32.5911 170.216 32.388 170.227 32.1953L170.82 33.0859C170.747 33.2995 170.638 33.526 170.492 33.7656C170.346 34.0052 170.159 34.2292 169.93 34.4375C169.701 34.6458 169.424 34.8177 169.102 34.9531C168.779 35.0885 168.404 35.1562 167.977 35.1562C167.43 35.1562 166.94 35.0469 166.508 34.8281C166.076 34.6094 165.734 34.3099 165.484 33.9297C165.234 33.5495 165.109 33.1172 165.109 32.6328C165.109 32.1849 165.193 31.7891 165.359 31.4453C165.526 31.1016 165.773 30.8125 166.102 30.5781C166.43 30.3385 166.836 30.1589 167.32 30.0391C167.81 29.9141 168.37 29.8516 169 29.8516H170.391ZM176.102 28.2734V35H174.039V26.5469H175.992L176.102 28.2734ZM178.672 26.4922L178.641 28.4141C178.526 28.3932 178.396 28.3776 178.25 28.3672C178.109 28.3568 177.977 28.3516 177.852 28.3516C177.534 28.3516 177.255 28.3958 177.016 28.4844C176.776 28.5677 176.576 28.6901 176.414 28.8516C176.258 29.013 176.138 29.2109 176.055 29.4453C175.971 29.6745 175.924 29.9349 175.914 30.2266L175.469 30.1719C175.469 29.6354 175.523 29.138 175.633 28.6797C175.742 28.2214 175.901 27.8203 176.109 27.4766C176.318 27.1328 176.578 26.8672 176.891 26.6797C177.208 26.487 177.573 26.3906 177.984 26.3906C178.099 26.3906 178.221 26.401 178.352 26.4219C178.487 26.4375 178.594 26.4609 178.672 26.4922ZM183.445 35.1562C182.805 35.1562 182.229 35.0521 181.719 34.8438C181.208 34.6354 180.773 34.3464 180.414 33.9766C180.06 33.6016 179.786 33.1667 179.594 32.6719C179.406 32.1719 179.312 31.6354 179.312 31.0625V30.75C179.312 30.099 179.406 29.5078 179.594 28.9766C179.781 28.4401 180.047 27.9792 180.391 27.5938C180.734 27.2083 181.146 26.9115 181.625 26.7031C182.104 26.4948 182.633 26.3906 183.211 26.3906C183.81 26.3906 184.339 26.4922 184.797 26.6953C185.255 26.8932 185.638 27.1745 185.945 27.5391C186.253 27.9036 186.484 28.3411 186.641 28.8516C186.797 29.3568 186.875 29.9167 186.875 30.5312V31.3984H180.25V29.9766H184.844V29.8203C184.833 29.4922 184.771 29.1927 184.656 28.9219C184.542 28.6458 184.365 28.4271 184.125 28.2656C183.885 28.099 183.576 28.0156 183.195 28.0156C182.888 28.0156 182.62 28.0833 182.391 28.2188C182.167 28.349 181.979 28.5365 181.828 28.7812C181.682 29.0208 181.573 29.3073 181.5 29.6406C181.427 29.974 181.391 30.3438 181.391 30.75V31.0625C181.391 31.4167 181.438 31.7448 181.531 32.0469C181.63 32.349 181.773 32.612 181.961 32.8359C182.154 33.0547 182.383 33.2266 182.648 33.3516C182.919 33.4714 183.227 33.5312 183.57 33.5312C184.003 33.5312 184.393 33.4479 184.742 33.2812C185.096 33.1094 185.404 32.8568 185.664 32.5234L186.703 33.6016C186.526 33.862 186.286 34.112 185.984 34.3516C185.688 34.5911 185.328 34.7865 184.906 34.9375C184.484 35.0833 183.997 35.1562 183.445 35.1562ZM79.9844 48.2812V55H77.9219V46.5469H79.8672L79.9844 48.2812ZM79.6797 50.4688H79.0469C79.0469 49.8802 79.1172 49.3385 79.2578 48.8438C79.4036 48.349 79.6172 47.9193 79.8984 47.5547C80.1797 47.1849 80.526 46.8984 80.9375 46.6953C81.3542 46.4922 81.8359 46.3906 82.3828 46.3906C82.763 46.3906 83.112 46.4479 83.4297 46.5625C83.7474 46.6719 84.0208 46.8464 84.25 47.0859C84.4844 47.3203 84.6641 47.6276 84.7891 48.0078C84.9141 48.3828 84.9766 48.8333 84.9766 49.3594V55H82.9141V49.5703C82.9141 49.1745 82.8568 48.8646 82.7422 48.6406C82.6328 48.4167 82.474 48.2604 82.2656 48.1719C82.0573 48.0781 81.8073 48.0312 81.5156 48.0312C81.1927 48.0312 80.9141 48.0964 80.6797 48.2266C80.4505 48.3516 80.2604 48.526 80.1094 48.75C79.9635 48.974 79.8542 49.2318 79.7812 49.5234C79.7135 49.8151 79.6797 50.1302 79.6797 50.4688ZM84.8203 50.0859L83.9688 50.2422C83.974 49.7109 84.0469 49.2135 84.1875 48.75C84.3281 48.2812 84.5339 47.8724 84.8047 47.5234C85.0807 47.1693 85.4219 46.8932 85.8281 46.6953C86.2396 46.4922 86.7135 46.3906 87.25 46.3906C87.6667 46.3906 88.0417 46.4505 88.375 46.5703C88.7135 46.6849 89.0026 46.8698 89.2422 47.125C89.4818 47.375 89.6641 47.7005 89.7891 48.1016C89.9193 48.5026 89.9844 48.9922 89.9844 49.5703V55H87.9062V49.5625C87.9062 49.151 87.849 48.8359 87.7344 48.6172C87.625 48.3984 87.4661 48.2474 87.2578 48.1641C87.0495 48.0755 86.8047 48.0312 86.5234 48.0312C86.237 48.0312 85.987 48.0859 85.7734 48.1953C85.5651 48.2995 85.388 48.4453 85.2422 48.6328C85.1016 48.8203 84.9948 49.0391 84.9219 49.2891C84.8542 49.5339 84.8203 49.7995 84.8203 50.0859ZM95.6328 55.1562C94.9922 55.1562 94.4167 55.0521 93.9062 54.8438C93.3958 54.6354 92.9609 54.3464 92.6016 53.9766C92.2474 53.6016 91.974 53.1667 91.7812 52.6719C91.5938 52.1719 91.5 51.6354 91.5 51.0625V50.75C91.5 50.099 91.5938 49.5078 91.7812 48.9766C91.9688 48.4401 92.2344 47.9792 92.5781 47.5938C92.9219 47.2083 93.3333 46.9115 93.8125 46.7031C94.2917 46.4948 94.8203 46.3906 95.3984 46.3906C95.9974 46.3906 96.526 46.4922 96.9844 46.6953C97.4427 46.8932 97.8255 47.1745 98.1328 47.5391C98.4401 47.9036 98.6719 48.3411 98.8281 48.8516C98.9844 49.3568 99.0625 49.9167 99.0625 50.5312V51.3984H92.4375V49.9766H97.0312V49.8203C97.0208 49.4922 96.9583 49.1927 96.8438 48.9219C96.7292 48.6458 96.5521 48.4271 96.3125 48.2656C96.0729 48.099 95.763 48.0156 95.3828 48.0156C95.0755 48.0156 94.8073 48.0833 94.5781 48.2188C94.3542 48.349 94.1667 48.5365 94.0156 48.7812C93.8698 49.0208 93.7604 49.3073 93.6875 49.6406C93.6146 49.974 93.5781 50.3438 93.5781 50.75V51.0625C93.5781 51.4167 93.625 51.7448 93.7188 52.0469C93.8177 52.349 93.9609 52.612 94.1484 52.8359C94.3411 53.0547 94.5703 53.2266 94.8359 53.3516C95.1068 53.4714 95.4141 53.5312 95.7578 53.5312C96.1901 53.5312 96.5807 53.4479 96.9297 53.2812C97.2839 53.1094 97.5911 52.8568 97.8516 52.5234L98.8906 53.6016C98.7135 53.862 98.474 54.112 98.1719 54.3516C97.875 54.5911 97.5156 54.7865 97.0938 54.9375C96.6719 55.0833 96.1849 55.1562 95.6328 55.1562ZM105.82 46.5469H107.695V54.7422C107.695 55.5078 107.529 56.1562 107.195 56.6875C106.867 57.224 106.406 57.6302 105.812 57.9062C105.219 58.1875 104.529 58.3281 103.742 58.3281C103.404 58.3281 103.036 58.2812 102.641 58.1875C102.25 58.0938 101.872 57.9453 101.508 57.7422C101.148 57.5443 100.849 57.2865 100.609 56.9688L101.539 55.75C101.82 56.0781 102.138 56.3255 102.492 56.4922C102.846 56.6641 103.229 56.75 103.641 56.75C104.057 56.75 104.411 56.6719 104.703 56.5156C105 56.3646 105.227 56.1406 105.383 55.8438C105.544 55.5521 105.625 55.1927 105.625 54.7656V48.4766L105.82 46.5469ZM100.109 50.875V50.7109C100.109 50.0651 100.188 49.4792 100.344 48.9531C100.5 48.4219 100.724 47.9661 101.016 47.5859C101.312 47.2057 101.669 46.9115 102.086 46.7031C102.508 46.4948 102.982 46.3906 103.508 46.3906C104.065 46.3906 104.534 46.4922 104.914 46.6953C105.299 46.8984 105.617 47.1875 105.867 47.5625C106.122 47.9375 106.32 48.3828 106.461 48.8984C106.607 49.4089 106.719 49.9714 106.797 50.5859V51.0312C106.724 51.6302 106.607 52.1797 106.445 52.6797C106.289 53.1797 106.081 53.6172 105.82 53.9922C105.56 54.362 105.237 54.6484 104.852 54.8516C104.466 55.0547 104.013 55.1562 103.492 55.1562C102.971 55.1562 102.503 55.0495 102.086 54.8359C101.669 54.6224 101.312 54.3229 101.016 53.9375C100.724 53.5521 100.5 53.099 100.344 52.5781C100.188 52.0573 100.109 51.4896 100.109 50.875ZM102.172 50.7109V50.875C102.172 51.2396 102.208 51.5807 102.281 51.8984C102.354 52.2161 102.466 52.4974 102.617 52.7422C102.768 52.9818 102.958 53.1693 103.188 53.3047C103.417 53.4401 103.69 53.5078 104.008 53.5078C104.435 53.5078 104.784 53.4193 105.055 53.2422C105.331 53.0599 105.539 52.8125 105.68 52.5C105.826 52.1823 105.919 51.8255 105.961 51.4297V50.2031C105.935 49.8906 105.878 49.6016 105.789 49.3359C105.706 49.0703 105.589 48.8411 105.438 48.6484C105.286 48.4557 105.094 48.3047 104.859 48.1953C104.625 48.0859 104.346 48.0312 104.023 48.0312C103.711 48.0312 103.438 48.1016 103.203 48.2422C102.969 48.3776 102.776 48.5677 102.625 48.8125C102.474 49.0573 102.359 49.3411 102.281 49.6641C102.208 49.987 102.172 50.3359 102.172 50.7109ZM114.211 53.2031V49.3047C114.211 49.0182 114.161 48.7708 114.062 48.5625C113.964 48.3542 113.812 48.1927 113.609 48.0781C113.406 47.9635 113.148 47.9062 112.836 47.9062C112.56 47.9062 112.318 47.9531 112.109 48.0469C111.906 48.1406 111.75 48.2734 111.641 48.4453C111.531 48.612 111.477 48.8047 111.477 49.0234H109.406C109.406 48.6745 109.49 48.3438 109.656 48.0312C109.823 47.7135 110.06 47.4323 110.367 47.1875C110.68 46.9375 111.052 46.7422 111.484 46.6016C111.922 46.4609 112.411 46.3906 112.953 46.3906C113.594 46.3906 114.164 46.5 114.664 46.7188C115.169 46.9323 115.565 47.2552 115.852 47.6875C116.143 48.1198 116.289 48.6641 116.289 49.3203V53.0078C116.289 53.4297 116.315 53.7917 116.367 54.0938C116.424 54.3906 116.508 54.6484 116.617 54.8672V55H114.516C114.417 54.7865 114.341 54.5156 114.289 54.1875C114.237 53.8542 114.211 53.526 114.211 53.2031ZM114.5 49.8516L114.516 51.0781H113.211C112.888 51.0781 112.604 51.112 112.359 51.1797C112.115 51.2422 111.914 51.3359 111.758 51.4609C111.602 51.5807 111.484 51.7266 111.406 51.8984C111.328 52.0651 111.289 52.2552 111.289 52.4688C111.289 52.6771 111.336 52.8646 111.43 53.0312C111.529 53.1979 111.669 53.3307 111.852 53.4297C112.039 53.5234 112.258 53.5703 112.508 53.5703C112.872 53.5703 113.19 53.4974 113.461 53.3516C113.732 53.2005 113.943 53.0182 114.094 52.8047C114.245 52.5911 114.326 52.388 114.336 52.1953L114.93 53.0859C114.857 53.2995 114.747 53.526 114.602 53.7656C114.456 54.0052 114.268 54.2292 114.039 54.4375C113.81 54.6458 113.534 54.8177 113.211 54.9531C112.888 55.0885 112.513 55.1562 112.086 55.1562C111.539 55.1562 111.049 55.0469 110.617 54.8281C110.185 54.6094 109.844 54.3099 109.594 53.9297C109.344 53.5495 109.219 53.1172 109.219 52.6328C109.219 52.1849 109.302 51.7891 109.469 51.4453C109.635 51.1016 109.883 50.8125 110.211 50.5781C110.539 50.3385 110.945 50.1589 111.43 50.0391C111.919 49.9141 112.479 49.8516 113.109 49.8516H114.5ZM122.258 49.3125V50.9453H117.984V49.3125H122.258ZM128.68 53.2031V49.3047C128.68 49.0182 128.63 48.7708 128.531 48.5625C128.432 48.3542 128.281 48.1927 128.078 48.0781C127.875 47.9635 127.617 47.9062 127.305 47.9062C127.029 47.9062 126.786 47.9531 126.578 48.0469C126.375 48.1406 126.219 48.2734 126.109 48.4453C126 48.612 125.945 48.8047 125.945 49.0234H123.875C123.875 48.6745 123.958 48.3438 124.125 48.0312C124.292 47.7135 124.529 47.4323 124.836 47.1875C125.148 46.9375 125.521 46.7422 125.953 46.6016C126.391 46.4609 126.88 46.3906 127.422 46.3906C128.062 46.3906 128.633 46.5 129.133 46.7188C129.638 46.9323 130.034 47.2552 130.32 47.6875C130.612 48.1198 130.758 48.6641 130.758 49.3203V53.0078C130.758 53.4297 130.784 53.7917 130.836 54.0938C130.893 54.3906 130.977 54.6484 131.086 54.8672V55H128.984C128.885 54.7865 128.81 54.5156 128.758 54.1875C128.706 53.8542 128.68 53.526 128.68 53.2031ZM128.969 49.8516L128.984 51.0781H127.68C127.357 51.0781 127.073 51.112 126.828 51.1797C126.583 51.2422 126.383 51.3359 126.227 51.4609C126.07 51.5807 125.953 51.7266 125.875 51.8984C125.797 52.0651 125.758 52.2552 125.758 52.4688C125.758 52.6771 125.805 52.8646 125.898 53.0312C125.997 53.1979 126.138 53.3307 126.32 53.4297C126.508 53.5234 126.727 53.5703 126.977 53.5703C127.341 53.5703 127.659 53.4974 127.93 53.3516C128.201 53.2005 128.411 53.0182 128.562 52.8047C128.714 52.5911 128.794 52.388 128.805 52.1953L129.398 53.0859C129.326 53.2995 129.216 53.526 129.07 53.7656C128.924 54.0052 128.737 54.2292 128.508 54.4375C128.279 54.6458 128.003 54.8177 127.68 54.9531C127.357 55.0885 126.982 55.1562 126.555 55.1562C126.008 55.1562 125.518 55.0469 125.086 54.8281C124.654 54.6094 124.312 54.3099 124.062 53.9297C123.812 53.5495 123.688 53.1172 123.688 52.6328C123.688 52.1849 123.771 51.7891 123.938 51.4453C124.104 51.1016 124.352 50.8125 124.68 50.5781C125.008 50.3385 125.414 50.1589 125.898 50.0391C126.388 49.9141 126.948 49.8516 127.578 49.8516H128.969ZM136.086 53.5312C136.378 53.5312 136.638 53.474 136.867 53.3594C137.096 53.2448 137.279 53.0833 137.414 52.875C137.555 52.6667 137.63 52.4245 137.641 52.1484H139.586C139.576 52.7214 139.414 53.2344 139.102 53.6875C138.789 54.1406 138.372 54.5 137.852 54.7656C137.336 55.026 136.758 55.1562 136.117 55.1562C135.466 55.1562 134.898 55.0469 134.414 54.8281C133.93 54.6094 133.526 54.3047 133.203 53.9141C132.885 53.5234 132.646 53.0703 132.484 52.5547C132.328 52.0391 132.25 51.487 132.25 50.8984V50.6484C132.25 50.0599 132.328 49.5078 132.484 48.9922C132.646 48.4766 132.885 48.0234 133.203 47.6328C133.526 47.2422 133.93 46.9375 134.414 46.7188C134.898 46.5 135.464 46.3906 136.109 46.3906C136.792 46.3906 137.391 46.5234 137.906 46.7891C138.427 47.0547 138.833 47.4297 139.125 47.9141C139.422 48.3984 139.576 48.9688 139.586 49.625H137.641C137.63 49.3229 137.562 49.0521 137.438 48.8125C137.312 48.5729 137.135 48.3802 136.906 48.2344C136.677 48.0885 136.398 48.0156 136.07 48.0156C135.721 48.0156 135.43 48.0885 135.195 48.2344C134.966 48.3802 134.786 48.5807 134.656 48.8359C134.531 49.0859 134.443 49.3672 134.391 49.6797C134.344 49.987 134.32 50.3099 134.32 50.6484V50.8984C134.32 51.2422 134.344 51.5703 134.391 51.8828C134.443 52.1953 134.531 52.4766 134.656 52.7266C134.786 52.9714 134.966 53.1667 135.195 53.3125C135.43 53.4583 135.727 53.5312 136.086 53.5312ZM144.961 46.5469V48.0312H140.117V46.5469H144.961ZM141.414 44.4688H143.484V52.5625C143.484 52.8125 143.518 53.0052 143.586 53.1406C143.654 53.276 143.755 53.3672 143.891 53.4141C144.026 53.4609 144.188 53.4844 144.375 53.4844C144.51 53.4844 144.635 53.4766 144.75 53.4609C144.865 53.4453 144.961 53.4297 145.039 53.4141L145.047 54.9609C144.875 55.0182 144.68 55.0651 144.461 55.1016C144.247 55.138 144.005 55.1562 143.734 55.1562C143.271 55.1562 142.865 55.0781 142.516 54.9219C142.167 54.7604 141.896 54.5026 141.703 54.1484C141.51 53.7891 141.414 53.3151 141.414 52.7266V44.4688ZM148.523 46.5469V55H146.453V46.5469H148.523ZM146.312 44.3359C146.312 44.0286 146.417 43.7734 146.625 43.5703C146.839 43.3672 147.125 43.2656 147.484 43.2656C147.844 43.2656 148.128 43.3672 148.336 43.5703C148.549 43.7734 148.656 44.0286 148.656 44.3359C148.656 44.638 148.549 44.8906 148.336 45.0938C148.128 45.2969 147.844 45.3984 147.484 45.3984C147.125 45.3984 146.839 45.2969 146.625 45.0938C146.417 44.8906 146.312 44.638 146.312 44.3359ZM153.297 53.4375L155.266 46.5469H157.422L154.523 55H153.211L153.297 53.4375ZM151.859 46.5469L153.852 53.4531L153.922 55H152.602L149.695 46.5469H151.859ZM163.039 53.2031V49.3047C163.039 49.0182 162.99 48.7708 162.891 48.5625C162.792 48.3542 162.641 48.1927 162.438 48.0781C162.234 47.9635 161.977 47.9062 161.664 47.9062C161.388 47.9062 161.146 47.9531 160.938 48.0469C160.734 48.1406 160.578 48.2734 160.469 48.4453C160.359 48.612 160.305 48.8047 160.305 49.0234H158.234C158.234 48.6745 158.318 48.3438 158.484 48.0312C158.651 47.7135 158.888 47.4323 159.195 47.1875C159.508 46.9375 159.88 46.7422 160.312 46.6016C160.75 46.4609 161.24 46.3906 161.781 46.3906C162.422 46.3906 162.992 46.5 163.492 46.7188C163.997 46.9323 164.393 47.2552 164.68 47.6875C164.971 48.1198 165.117 48.6641 165.117 49.3203V53.0078C165.117 53.4297 165.143 53.7917 165.195 54.0938C165.253 54.3906 165.336 54.6484 165.445 54.8672V55H163.344C163.245 54.7865 163.169 54.5156 163.117 54.1875C163.065 53.8542 163.039 53.526 163.039 53.2031ZM163.328 49.8516L163.344 51.0781H162.039C161.716 51.0781 161.432 51.112 161.188 51.1797C160.943 51.2422 160.742 51.3359 160.586 51.4609C160.43 51.5807 160.312 51.7266 160.234 51.8984C160.156 52.0651 160.117 52.2552 160.117 52.4688C160.117 52.6771 160.164 52.8646 160.258 53.0312C160.357 53.1979 160.497 53.3307 160.68 53.4297C160.867 53.5234 161.086 53.5703 161.336 53.5703C161.701 53.5703 162.018 53.4974 162.289 53.3516C162.56 53.2005 162.771 53.0182 162.922 52.8047C163.073 52.5911 163.154 52.388 163.164 52.1953L163.758 53.0859C163.685 53.2995 163.576 53.526 163.43 53.7656C163.284 54.0052 163.096 54.2292 162.867 54.4375C162.638 54.6458 162.362 54.8177 162.039 54.9531C161.716 55.0885 161.341 55.1562 160.914 55.1562C160.367 55.1562 159.878 55.0469 159.445 54.8281C159.013 54.6094 158.672 54.3099 158.422 53.9297C158.172 53.5495 158.047 53.1172 158.047 52.6328C158.047 52.1849 158.13 51.7891 158.297 51.4453C158.464 51.1016 158.711 50.8125 159.039 50.5781C159.367 50.3385 159.773 50.1589 160.258 50.0391C160.747 49.9141 161.307 49.8516 161.938 49.8516H163.328ZM170.977 46.5469V48.0312H166.133V46.5469H170.977ZM167.43 44.4688H169.5V52.5625C169.5 52.8125 169.534 53.0052 169.602 53.1406C169.669 53.276 169.771 53.3672 169.906 53.4141C170.042 53.4609 170.203 53.4844 170.391 53.4844C170.526 53.4844 170.651 53.4766 170.766 53.4609C170.88 53.4453 170.977 53.4297 171.055 53.4141L171.062 54.9609C170.891 55.0182 170.695 55.0651 170.477 55.1016C170.263 55.138 170.021 55.1562 169.75 55.1562C169.286 55.1562 168.88 55.0781 168.531 54.9219C168.182 54.7604 167.911 54.5026 167.719 54.1484C167.526 53.7891 167.43 53.3151 167.43 52.7266V44.4688ZM176.148 55.1562C175.508 55.1562 174.932 55.0521 174.422 54.8438C173.911 54.6354 173.477 54.3464 173.117 53.9766C172.763 53.6016 172.49 53.1667 172.297 52.6719C172.109 52.1719 172.016 51.6354 172.016 51.0625V50.75C172.016 50.099 172.109 49.5078 172.297 48.9766C172.484 48.4401 172.75 47.9792 173.094 47.5938C173.438 47.2083 173.849 46.9115 174.328 46.7031C174.807 46.4948 175.336 46.3906 175.914 46.3906C176.513 46.3906 177.042 46.4922 177.5 46.6953C177.958 46.8932 178.341 47.1745 178.648 47.5391C178.956 47.9036 179.188 48.3411 179.344 48.8516C179.5 49.3568 179.578 49.9167 179.578 50.5312V51.3984H172.953V49.9766H177.547V49.8203C177.536 49.4922 177.474 49.1927 177.359 48.9219C177.245 48.6458 177.068 48.4271 176.828 48.2656C176.589 48.099 176.279 48.0156 175.898 48.0156C175.591 48.0156 175.323 48.0833 175.094 48.2188C174.87 48.349 174.682 48.5365 174.531 48.7812C174.385 49.0208 174.276 49.3073 174.203 49.6406C174.13 49.974 174.094 50.3438 174.094 50.75V51.0625C174.094 51.4167 174.141 51.7448 174.234 52.0469C174.333 52.349 174.477 52.612 174.664 52.8359C174.857 53.0547 175.086 53.2266 175.352 53.3516C175.622 53.4714 175.93 53.5312 176.273 53.5312C176.706 53.5312 177.096 53.4479 177.445 53.2812C177.799 53.1094 178.107 52.8568 178.367 52.5234L179.406 53.6016C179.229 53.862 178.99 54.112 178.688 54.3516C178.391 54.5911 178.031 54.7865 177.609 54.9375C177.188 55.0833 176.701 55.1562 176.148 55.1562ZM186.031 53.2031V43H188.109V55H186.234L186.031 53.2031ZM180.602 50.875V50.7109C180.602 50.0651 180.674 49.4792 180.82 48.9531C180.971 48.4219 181.19 47.9661 181.477 47.5859C181.763 47.2057 182.109 46.9115 182.516 46.7031C182.927 46.4948 183.393 46.3906 183.914 46.3906C184.419 46.3906 184.859 46.4922 185.234 46.6953C185.615 46.8984 185.938 47.1875 186.203 47.5625C186.474 47.9375 186.69 48.3828 186.852 48.8984C187.013 49.4089 187.13 49.9714 187.203 50.5859V51.0312C187.13 51.6302 187.013 52.1797 186.852 52.6797C186.69 53.1797 186.474 53.6172 186.203 53.9922C185.938 54.362 185.615 54.6484 185.234 54.8516C184.854 55.0547 184.409 55.1562 183.898 55.1562C183.383 55.1562 182.919 55.0495 182.508 54.8359C182.102 54.6224 181.755 54.3229 181.469 53.9375C181.188 53.5521 180.971 53.099 180.82 52.5781C180.674 52.0573 180.602 51.4896 180.602 50.875ZM182.672 50.7109V50.875C182.672 51.2396 182.703 51.5807 182.766 51.8984C182.828 52.2161 182.93 52.4974 183.07 52.7422C183.211 52.9818 183.391 53.1693 183.609 53.3047C183.833 53.4401 184.104 53.5078 184.422 53.5078C184.828 53.5078 185.161 53.4193 185.422 53.2422C185.688 53.0599 185.893 52.8125 186.039 52.5C186.185 52.1823 186.279 51.8255 186.32 51.4297V50.2031C186.299 49.8906 186.245 49.6016 186.156 49.3359C186.073 49.0703 185.953 48.8411 185.797 48.6484C185.646 48.4557 185.458 48.3047 185.234 48.1953C185.01 48.0859 184.745 48.0312 184.438 48.0312C184.12 48.0312 183.849 48.1016 183.625 48.2422C183.401 48.3776 183.219 48.5677 183.078 48.8125C182.938 49.0573 182.833 49.3411 182.766 49.6641C182.703 49.987 182.672 50.3359 182.672 50.7109ZM190.062 53.9922C190.062 53.6797 190.169 53.4167 190.383 53.2031C190.596 52.9896 190.885 52.8828 191.25 52.8828C191.615 52.8828 191.904 52.9896 192.117 53.2031C192.331 53.4167 192.438 53.6797 192.438 53.9922C192.438 54.2995 192.331 54.5599 192.117 54.7734C191.904 54.9818 191.615 55.0859 191.25 55.0859C190.885 55.0859 190.596 54.9818 190.383 54.7734C190.169 54.5599 190.062 54.2995 190.062 53.9922ZM80.8828 72.8203L83.1484 63.625H84.375L84.4531 65.5625L82.0312 75H80.7344L80.8828 72.8203ZM79.4531 63.625L81.3125 72.7891V75H79.8984L77.3203 63.625H79.4531ZM86.8047 72.75L88.6328 63.625H90.7734L88.1953 75H86.7812L86.8047 72.75ZM84.9609 63.625L87.2266 72.8516L87.3594 75H86.0625L83.6484 65.5547L83.7422 63.625H84.9609ZM96.3672 73.2031V69.3047C96.3672 69.0182 96.3177 68.7708 96.2188 68.5625C96.1198 68.3542 95.9688 68.1927 95.7656 68.0781C95.5625 67.9635 95.3047 67.9062 94.9922 67.9062C94.7161 67.9062 94.474 67.9531 94.2656 68.0469C94.0625 68.1406 93.9062 68.2734 93.7969 68.4453C93.6875 68.612 93.6328 68.8047 93.6328 69.0234H91.5625C91.5625 68.6745 91.6458 68.3438 91.8125 68.0312C91.9792 67.7135 92.2161 67.4323 92.5234 67.1875C92.8359 66.9375 93.2083 66.7422 93.6406 66.6016C94.0781 66.4609 94.5677 66.3906 95.1094 66.3906C95.75 66.3906 96.3203 66.5 96.8203 66.7188C97.3255 66.9323 97.7214 67.2552 98.0078 67.6875C98.2995 68.1198 98.4453 68.6641 98.4453 69.3203V73.0078C98.4453 73.4297 98.4714 73.7917 98.5234 74.0938C98.5807 74.3906 98.6641 74.6484 98.7734 74.8672V75H96.6719C96.5729 74.7865 96.4974 74.5156 96.4453 74.1875C96.3932 73.8542 96.3672 73.526 96.3672 73.2031ZM96.6562 69.8516L96.6719 71.0781H95.3672C95.0443 71.0781 94.7604 71.112 94.5156 71.1797C94.2708 71.2422 94.0703 71.3359 93.9141 71.4609C93.7578 71.5807 93.6406 71.7266 93.5625 71.8984C93.4844 72.0651 93.4453 72.2552 93.4453 72.4688C93.4453 72.6771 93.4922 72.8646 93.5859 73.0312C93.6849 73.1979 93.8255 73.3307 94.0078 73.4297C94.1953 73.5234 94.4141 73.5703 94.6641 73.5703C95.0286 73.5703 95.3464 73.4974 95.6172 73.3516C95.888 73.2005 96.099 73.0182 96.25 72.8047C96.401 72.5911 96.4818 72.388 96.4922 72.1953L97.0859 73.0859C97.013 73.2995 96.9036 73.526 96.7578 73.7656C96.612 74.0052 96.4245 74.2292 96.1953 74.4375C95.9661 74.6458 95.6901 74.8177 95.3672 74.9531C95.0443 75.0885 94.6693 75.1562 94.2422 75.1562C93.6953 75.1562 93.2057 75.0469 92.7734 74.8281C92.3411 74.6094 92 74.3099 91.75 73.9297C91.5 73.5495 91.375 73.1172 91.375 72.6328C91.375 72.1849 91.4583 71.7891 91.625 71.4453C91.7917 71.1016 92.0391 70.8125 92.3672 70.5781C92.6953 70.3385 93.1016 70.1589 93.5859 70.0391C94.0755 69.9141 94.6354 69.8516 95.2656 69.8516H96.6562ZM102.492 66.5469V75H100.422V66.5469H102.492ZM100.281 64.3359C100.281 64.0286 100.385 63.7734 100.594 63.5703C100.807 63.3672 101.094 63.2656 101.453 63.2656C101.812 63.2656 102.096 63.3672 102.305 63.5703C102.518 63.7734 102.625 64.0286 102.625 64.3359C102.625 64.638 102.518 64.8906 102.305 65.0938C102.096 65.2969 101.812 65.3984 101.453 65.3984C101.094 65.3984 100.807 65.2969 100.594 65.0938C100.385 64.8906 100.281 64.638 100.281 64.3359ZM108.461 66.5469V68.0312H103.617V66.5469H108.461ZM104.914 64.4688H106.984V72.5625C106.984 72.8125 107.018 73.0052 107.086 73.1406C107.154 73.276 107.255 73.3672 107.391 73.4141C107.526 73.4609 107.688 73.4844 107.875 73.4844C108.01 73.4844 108.135 73.4766 108.25 73.4609C108.365 73.4453 108.461 73.4297 108.539 73.4141L108.547 74.9609C108.375 75.0182 108.18 75.0651 107.961 75.1016C107.747 75.138 107.505 75.1562 107.234 75.1562C106.771 75.1562 106.365 75.0781 106.016 74.9219C105.667 74.7604 105.396 74.5026 105.203 74.1484C105.01 73.7891 104.914 73.3151 104.914 72.7266V64.4688ZM112.023 66.5469V75H109.953V66.5469H112.023ZM109.812 64.3359C109.812 64.0286 109.917 63.7734 110.125 63.5703C110.339 63.3672 110.625 63.2656 110.984 63.2656C111.344 63.2656 111.628 63.3672 111.836 63.5703C112.049 63.7734 112.156 64.0286 112.156 64.3359C112.156 64.638 112.049 64.8906 111.836 65.0938C111.628 65.2969 111.344 65.3984 110.984 65.3984C110.625 65.3984 110.339 65.2969 110.125 65.0938C109.917 64.8906 109.812 64.638 109.812 64.3359ZM116.016 68.3516V75H113.953V66.5469H115.891L116.016 68.3516ZM115.688 70.4688H115.078C115.083 69.8542 115.167 69.2969 115.328 68.7969C115.49 68.2969 115.716 67.8672 116.008 67.5078C116.305 67.1484 116.656 66.8724 117.062 66.6797C117.469 66.487 117.922 66.3906 118.422 66.3906C118.828 66.3906 119.195 66.4479 119.523 66.5625C119.852 66.6771 120.133 66.8594 120.367 67.1094C120.607 67.3594 120.789 67.6875 120.914 68.0938C121.044 68.4948 121.109 68.9896 121.109 69.5781V75H119.031V69.5625C119.031 69.1771 118.974 68.8724 118.859 68.6484C118.75 68.4245 118.589 68.2656 118.375 68.1719C118.167 68.0781 117.909 68.0312 117.602 68.0312C117.284 68.0312 117.005 68.0964 116.766 68.2266C116.531 68.3516 116.333 68.526 116.172 68.75C116.016 68.974 115.896 69.2318 115.812 69.5234C115.729 69.8151 115.688 70.1302 115.688 70.4688ZM128.305 66.5469H130.18V74.7422C130.18 75.5078 130.013 76.1562 129.68 76.6875C129.352 77.224 128.891 77.6302 128.297 77.9062C127.703 78.1875 127.013 78.3281 126.227 78.3281C125.888 78.3281 125.521 78.2812 125.125 78.1875C124.734 78.0938 124.357 77.9453 123.992 77.7422C123.633 77.5443 123.333 77.2865 123.094 76.9688L124.023 75.75C124.305 76.0781 124.622 76.3255 124.977 76.4922C125.331 76.6641 125.714 76.75 126.125 76.75C126.542 76.75 126.896 76.6719 127.188 76.5156C127.484 76.3646 127.711 76.1406 127.867 75.8438C128.029 75.5521 128.109 75.1927 128.109 74.7656V68.4766L128.305 66.5469ZM122.594 70.875V70.7109C122.594 70.0651 122.672 69.4792 122.828 68.9531C122.984 68.4219 123.208 67.9661 123.5 67.5859C123.797 67.2057 124.154 66.9115 124.57 66.7031C124.992 66.4948 125.466 66.3906 125.992 66.3906C126.549 66.3906 127.018 66.4922 127.398 66.6953C127.784 66.8984 128.102 67.1875 128.352 67.5625C128.607 67.9375 128.805 68.3828 128.945 68.8984C129.091 69.4089 129.203 69.9714 129.281 70.5859V71.0312C129.208 71.6302 129.091 72.1797 128.93 72.6797C128.773 73.1797 128.565 73.6172 128.305 73.9922C128.044 74.362 127.721 74.6484 127.336 74.8516C126.951 75.0547 126.497 75.1562 125.977 75.1562C125.456 75.1562 124.987 75.0495 124.57 74.8359C124.154 74.6224 123.797 74.3229 123.5 73.9375C123.208 73.5521 122.984 73.099 122.828 72.5781C122.672 72.0573 122.594 71.4896 122.594 70.875ZM124.656 70.7109V70.875C124.656 71.2396 124.693 71.5807 124.766 71.8984C124.839 72.2161 124.951 72.4974 125.102 72.7422C125.253 72.9818 125.443 73.1693 125.672 73.3047C125.901 73.4401 126.174 73.5078 126.492 73.5078C126.919 73.5078 127.268 73.4193 127.539 73.2422C127.815 73.0599 128.023 72.8125 128.164 72.5C128.31 72.1823 128.404 71.8255 128.445 71.4297V70.2031C128.419 69.8906 128.362 69.6016 128.273 69.3359C128.19 69.0703 128.073 68.8411 127.922 68.6484C127.771 68.4557 127.578 68.3047 127.344 68.1953C127.109 68.0859 126.831 68.0312 126.508 68.0312C126.195 68.0312 125.922 68.1016 125.688 68.2422C125.453 68.3776 125.26 68.5677 125.109 68.8125C124.958 69.0573 124.844 69.3411 124.766 69.6641C124.693 69.987 124.656 70.3359 124.656 70.7109ZM138.727 75H136.648V65.7656C136.648 65.1302 136.771 64.5964 137.016 64.1641C137.26 63.7266 137.609 63.3958 138.062 63.1719C138.516 62.9479 139.049 62.8359 139.664 62.8359C139.867 62.8359 140.06 62.849 140.242 62.875C140.43 62.901 140.615 62.9375 140.797 62.9844L140.758 64.5547C140.659 64.5286 140.549 64.5104 140.43 64.5C140.315 64.4896 140.188 64.4844 140.047 64.4844C139.766 64.4844 139.526 64.5339 139.328 64.6328C139.13 64.7318 138.979 64.8776 138.875 65.0703C138.776 65.2578 138.727 65.4896 138.727 65.7656V75ZM140.438 66.5469V68.0312H135.375V66.5469H140.438ZM141.344 70.8594V70.6953C141.344 70.0755 141.432 69.5052 141.609 68.9844C141.786 68.4583 142.044 68.0026 142.383 67.6172C142.721 67.2318 143.135 66.9323 143.625 66.7188C144.115 66.5 144.672 66.3906 145.297 66.3906C145.932 66.3906 146.495 66.5 146.984 66.7188C147.479 66.9323 147.896 67.2318 148.234 67.6172C148.573 68.0026 148.831 68.4583 149.008 68.9844C149.185 69.5052 149.273 70.0755 149.273 70.6953V70.8594C149.273 71.474 149.185 72.0443 149.008 72.5703C148.831 73.0911 148.573 73.5469 148.234 73.9375C147.896 74.3229 147.482 74.6224 146.992 74.8359C146.503 75.0495 145.943 75.1562 145.312 75.1562C144.688 75.1562 144.128 75.0495 143.633 74.8359C143.138 74.6224 142.721 74.3229 142.383 73.9375C142.044 73.5469 141.786 73.0911 141.609 72.5703C141.432 72.0443 141.344 71.474 141.344 70.8594ZM143.406 70.6953V70.8594C143.406 71.2292 143.443 71.5755 143.516 71.8984C143.589 72.2214 143.701 72.5052 143.852 72.75C144.003 72.9948 144.198 73.1875 144.438 73.3281C144.682 73.4635 144.974 73.5312 145.312 73.5312C145.646 73.5312 145.932 73.4635 146.172 73.3281C146.411 73.1875 146.607 72.9948 146.758 72.75C146.914 72.5052 147.029 72.2214 147.102 71.8984C147.174 71.5755 147.211 71.2292 147.211 70.8594V70.6953C147.211 70.3307 147.174 69.9896 147.102 69.6719C147.029 69.349 146.914 69.0651 146.758 68.8203C146.607 68.5703 146.409 68.375 146.164 68.2344C145.924 68.0885 145.635 68.0156 145.297 68.0156C144.964 68.0156 144.677 68.0885 144.438 68.2344C144.198 68.375 144.003 68.5703 143.852 68.8203C143.701 69.0651 143.589 69.349 143.516 69.6719C143.443 69.9896 143.406 70.3307 143.406 70.6953ZM152.836 68.2734V75H150.773V66.5469H152.727L152.836 68.2734ZM155.406 66.4922L155.375 68.4141C155.26 68.3932 155.13 68.3776 154.984 68.3672C154.844 68.3568 154.711 68.3516 154.586 68.3516C154.268 68.3516 153.99 68.3958 153.75 68.4844C153.51 68.5677 153.31 68.6901 153.148 68.8516C152.992 69.013 152.872 69.2109 152.789 69.4453C152.706 69.6745 152.659 69.9349 152.648 70.2266L152.203 70.1719C152.203 69.6354 152.258 69.138 152.367 68.6797C152.477 68.2214 152.635 67.8203 152.844 67.4766C153.052 67.1328 153.312 66.8672 153.625 66.6797C153.943 66.487 154.307 66.3906 154.719 66.3906C154.833 66.3906 154.956 66.401 155.086 66.4219C155.221 66.4375 155.328 66.4609 155.406 66.4922ZM164.523 66.5469V68.0312H159.68V66.5469H164.523ZM160.977 64.4688H163.047V72.5625C163.047 72.8125 163.081 73.0052 163.148 73.1406C163.216 73.276 163.318 73.3672 163.453 73.4141C163.589 73.4609 163.75 73.4844 163.938 73.4844C164.073 73.4844 164.198 73.4766 164.312 73.4609C164.427 73.4453 164.523 73.4297 164.602 73.4141L164.609 74.9609C164.438 75.0182 164.242 75.0651 164.023 75.1016C163.81 75.138 163.568 75.1562 163.297 75.1562C162.833 75.1562 162.427 75.0781 162.078 74.9219C161.729 74.7604 161.458 74.5026 161.266 74.1484C161.073 73.7891 160.977 73.3151 160.977 72.7266V64.4688ZM167.922 63V75H165.852V63H167.922ZM167.594 70.4688H166.984C166.984 69.8802 167.062 69.3385 167.219 68.8438C167.375 68.349 167.596 67.9193 167.883 67.5547C168.169 67.1849 168.51 66.8984 168.906 66.6953C169.307 66.4922 169.75 66.3906 170.234 66.3906C170.651 66.3906 171.029 66.4505 171.367 66.5703C171.711 66.6849 172.005 66.8698 172.25 67.125C172.495 67.3802 172.682 67.7135 172.812 68.125C172.948 68.5312 173.016 69.026 173.016 69.6094V75H170.938V69.5938C170.938 69.2031 170.88 68.8958 170.766 68.6719C170.651 68.4427 170.487 68.2786 170.273 68.1797C170.065 68.0807 169.807 68.0312 169.5 68.0312C169.167 68.0312 168.88 68.0964 168.641 68.2266C168.401 68.3516 168.203 68.526 168.047 68.75C167.896 68.974 167.781 69.2318 167.703 69.5234C167.63 69.8151 167.594 70.1302 167.594 70.4688ZM178.633 75.1562C177.992 75.1562 177.417 75.0521 176.906 74.8438C176.396 74.6354 175.961 74.3464 175.602 73.9766C175.247 73.6016 174.974 73.1667 174.781 72.6719C174.594 72.1719 174.5 71.6354 174.5 71.0625V70.75C174.5 70.099 174.594 69.5078 174.781 68.9766C174.969 68.4401 175.234 67.9792 175.578 67.5938C175.922 67.2083 176.333 66.9115 176.812 66.7031C177.292 66.4948 177.82 66.3906 178.398 66.3906C178.997 66.3906 179.526 66.4922 179.984 66.6953C180.443 66.8932 180.826 67.1745 181.133 67.5391C181.44 67.9036 181.672 68.3411 181.828 68.8516C181.984 69.3568 182.062 69.9167 182.062 70.5312V71.3984H175.438V69.9766H180.031V69.8203C180.021 69.4922 179.958 69.1927 179.844 68.9219C179.729 68.6458 179.552 68.4271 179.312 68.2656C179.073 68.099 178.763 68.0156 178.383 68.0156C178.076 68.0156 177.807 68.0833 177.578 68.2188C177.354 68.349 177.167 68.5365 177.016 68.7812C176.87 69.0208 176.76 69.3073 176.688 69.6406C176.615 69.974 176.578 70.3438 176.578 70.75V71.0625C176.578 71.4167 176.625 71.7448 176.719 72.0469C176.818 72.349 176.961 72.612 177.148 72.8359C177.341 73.0547 177.57 73.2266 177.836 73.3516C178.107 73.4714 178.414 73.5312 178.758 73.5312C179.19 73.5312 179.581 73.4479 179.93 73.2812C180.284 73.1094 180.591 72.8568 180.852 72.5234L181.891 73.6016C181.714 73.862 181.474 74.112 181.172 74.3516C180.875 74.5911 180.516 74.7865 180.094 74.9375C179.672 75.0833 179.185 75.1562 178.633 75.1562ZM190.898 73.5312C191.19 73.5312 191.451 73.474 191.68 73.3594C191.909 73.2448 192.091 73.0833 192.227 72.875C192.367 72.6667 192.443 72.4245 192.453 72.1484H194.398C194.388 72.7214 194.227 73.2344 193.914 73.6875C193.602 74.1406 193.185 74.5 192.664 74.7656C192.148 75.026 191.57 75.1562 190.93 75.1562C190.279 75.1562 189.711 75.0469 189.227 74.8281C188.742 74.6094 188.339 74.3047 188.016 73.9141C187.698 73.5234 187.458 73.0703 187.297 72.5547C187.141 72.0391 187.062 71.487 187.062 70.8984V70.6484C187.062 70.0599 187.141 69.5078 187.297 68.9922C187.458 68.4766 187.698 68.0234 188.016 67.6328C188.339 67.2422 188.742 66.9375 189.227 66.7188C189.711 66.5 190.276 66.3906 190.922 66.3906C191.604 66.3906 192.203 66.5234 192.719 66.7891C193.24 67.0547 193.646 67.4297 193.938 67.9141C194.234 68.3984 194.388 68.9688 194.398 69.625H192.453C192.443 69.3229 192.375 69.0521 192.25 68.8125C192.125 68.5729 191.948 68.3802 191.719 68.2344C191.49 68.0885 191.211 68.0156 190.883 68.0156C190.534 68.0156 190.242 68.0885 190.008 68.2344C189.779 68.3802 189.599 68.5807 189.469 68.8359C189.344 69.0859 189.255 69.3672 189.203 69.6797C189.156 69.987 189.133 70.3099 189.133 70.6484V70.8984C189.133 71.2422 189.156 71.5703 189.203 71.8828C189.255 72.1953 189.344 72.4766 189.469 72.7266C189.599 72.9714 189.779 73.1667 190.008 73.3125C190.242 73.4583 190.539 73.5312 190.898 73.5312ZM195.406 70.8594V70.6953C195.406 70.0755 195.495 69.5052 195.672 68.9844C195.849 68.4583 196.107 68.0026 196.445 67.6172C196.784 67.2318 197.198 66.9323 197.688 66.7188C198.177 66.5 198.734 66.3906 199.359 66.3906C199.995 66.3906 200.557 66.5 201.047 66.7188C201.542 66.9323 201.958 67.2318 202.297 67.6172C202.635 68.0026 202.893 68.4583 203.07 68.9844C203.247 69.5052 203.336 70.0755 203.336 70.6953V70.8594C203.336 71.474 203.247 72.0443 203.07 72.5703C202.893 73.0911 202.635 73.5469 202.297 73.9375C201.958 74.3229 201.544 74.6224 201.055 74.8359C200.565 75.0495 200.005 75.1562 199.375 75.1562C198.75 75.1562 198.19 75.0495 197.695 74.8359C197.201 74.6224 196.784 74.3229 196.445 73.9375C196.107 73.5469 195.849 73.0911 195.672 72.5703C195.495 72.0443 195.406 71.474 195.406 70.8594ZM197.469 70.6953V70.8594C197.469 71.2292 197.505 71.5755 197.578 71.8984C197.651 72.2214 197.763 72.5052 197.914 72.75C198.065 72.9948 198.26 73.1875 198.5 73.3281C198.745 73.4635 199.036 73.5312 199.375 73.5312C199.708 73.5312 199.995 73.4635 200.234 73.3281C200.474 73.1875 200.669 72.9948 200.82 72.75C200.977 72.5052 201.091 72.2214 201.164 71.8984C201.237 71.5755 201.273 71.2292 201.273 70.8594V70.6953C201.273 70.3307 201.237 69.9896 201.164 69.6719C201.091 69.349 200.977 69.0651 200.82 68.8203C200.669 68.5703 200.471 68.375 200.227 68.2344C199.987 68.0885 199.698 68.0156 199.359 68.0156C199.026 68.0156 198.74 68.0885 198.5 68.2344C198.26 68.375 198.065 68.5703 197.914 68.8203C197.763 69.0651 197.651 69.349 197.578 69.6719C197.505 69.9896 197.469 70.3307 197.469 70.6953ZM206.891 68.2812V75H204.828V66.5469H206.773L206.891 68.2812ZM206.586 70.4688H205.953C205.953 69.8802 206.023 69.3385 206.164 68.8438C206.31 68.349 206.523 67.9193 206.805 67.5547C207.086 67.1849 207.432 66.8984 207.844 66.6953C208.26 66.4922 208.742 66.3906 209.289 66.3906C209.669 66.3906 210.018 66.4479 210.336 66.5625C210.654 66.6719 210.927 66.8464 211.156 67.0859C211.391 67.3203 211.57 67.6276 211.695 68.0078C211.82 68.3828 211.883 68.8333 211.883 69.3594V75H209.82V69.5703C209.82 69.1745 209.763 68.8646 209.648 68.6406C209.539 68.4167 209.38 68.2604 209.172 68.1719C208.964 68.0781 208.714 68.0312 208.422 68.0312C208.099 68.0312 207.82 68.0964 207.586 68.2266C207.357 68.3516 207.167 68.526 207.016 68.75C206.87 68.974 206.76 69.2318 206.688 69.5234C206.62 69.8151 206.586 70.1302 206.586 70.4688ZM211.727 70.0859L210.875 70.2422C210.88 69.7109 210.953 69.2135 211.094 68.75C211.234 68.2812 211.44 67.8724 211.711 67.5234C211.987 67.1693 212.328 66.8932 212.734 66.6953C213.146 66.4922 213.62 66.3906 214.156 66.3906C214.573 66.3906 214.948 66.4505 215.281 66.5703C215.62 66.6849 215.909 66.8698 216.148 67.125C216.388 67.375 216.57 67.7005 216.695 68.1016C216.826 68.5026 216.891 68.9922 216.891 69.5703V75H214.812V69.5625C214.812 69.151 214.755 68.8359 214.641 68.6172C214.531 68.3984 214.372 68.2474 214.164 68.1641C213.956 68.0755 213.711 68.0312 213.43 68.0312C213.143 68.0312 212.893 68.0859 212.68 68.1953C212.471 68.2995 212.294 68.4453 212.148 68.6328C212.008 68.8203 211.901 69.0391 211.828 69.2891C211.76 69.5339 211.727 69.7995 211.727 70.0859ZM220.797 68.2812V75H218.734V66.5469H220.68L220.797 68.2812ZM220.492 70.4688H219.859C219.859 69.8802 219.93 69.3385 220.07 68.8438C220.216 68.349 220.43 67.9193 220.711 67.5547C220.992 67.1849 221.339 66.8984 221.75 66.6953C222.167 66.4922 222.648 66.3906 223.195 66.3906C223.576 66.3906 223.924 66.4479 224.242 66.5625C224.56 66.6719 224.833 66.8464 225.062 67.0859C225.297 67.3203 225.477 67.6276 225.602 68.0078C225.727 68.3828 225.789 68.8333 225.789 69.3594V75H223.727V69.5703C223.727 69.1745 223.669 68.8646 223.555 68.6406C223.445 68.4167 223.286 68.2604 223.078 68.1719C222.87 68.0781 222.62 68.0312 222.328 68.0312C222.005 68.0312 221.727 68.0964 221.492 68.2266C221.263 68.3516 221.073 68.526 220.922 68.75C220.776 68.974 220.667 69.2318 220.594 69.5234C220.526 69.8151 220.492 70.1302 220.492 70.4688ZM225.633 70.0859L224.781 70.2422C224.786 69.7109 224.859 69.2135 225 68.75C225.141 68.2812 225.346 67.8724 225.617 67.5234C225.893 67.1693 226.234 66.8932 226.641 66.6953C227.052 66.4922 227.526 66.3906 228.062 66.3906C228.479 66.3906 228.854 66.4505 229.188 66.5703C229.526 66.6849 229.815 66.8698 230.055 67.125C230.294 67.375 230.477 67.7005 230.602 68.1016C230.732 68.5026 230.797 68.9922 230.797 69.5703V75H228.719V69.5625C228.719 69.151 228.661 68.8359 228.547 68.6172C228.438 68.3984 228.279 68.2474 228.07 68.1641C227.862 68.0755 227.617 68.0312 227.336 68.0312C227.049 68.0312 226.799 68.0859 226.586 68.1953C226.378 68.2995 226.201 68.4453 226.055 68.6328C225.914 68.8203 225.807 69.0391 225.734 69.2891C225.667 69.5339 225.633 69.7995 225.633 70.0859ZM237.305 73.2031V69.3047C237.305 69.0182 237.255 68.7708 237.156 68.5625C237.057 68.3542 236.906 68.1927 236.703 68.0781C236.5 67.9635 236.242 67.9062 235.93 67.9062C235.654 67.9062 235.411 67.9531 235.203 68.0469C235 68.1406 234.844 68.2734 234.734 68.4453C234.625 68.612 234.57 68.8047 234.57 69.0234H232.5C232.5 68.6745 232.583 68.3438 232.75 68.0312C232.917 67.7135 233.154 67.4323 233.461 67.1875C233.773 66.9375 234.146 66.7422 234.578 66.6016C235.016 66.4609 235.505 66.3906 236.047 66.3906C236.688 66.3906 237.258 66.5 237.758 66.7188C238.263 66.9323 238.659 67.2552 238.945 67.6875C239.237 68.1198 239.383 68.6641 239.383 69.3203V73.0078C239.383 73.4297 239.409 73.7917 239.461 74.0938C239.518 74.3906 239.602 74.6484 239.711 74.8672V75H237.609C237.51 74.7865 237.435 74.5156 237.383 74.1875C237.331 73.8542 237.305 73.526 237.305 73.2031ZM237.594 69.8516L237.609 71.0781H236.305C235.982 71.0781 235.698 71.112 235.453 71.1797C235.208 71.2422 235.008 71.3359 234.852 71.4609C234.695 71.5807 234.578 71.7266 234.5 71.8984C234.422 72.0651 234.383 72.2552 234.383 72.4688C234.383 72.6771 234.43 72.8646 234.523 73.0312C234.622 73.1979 234.763 73.3307 234.945 73.4297C235.133 73.5234 235.352 73.5703 235.602 73.5703C235.966 73.5703 236.284 73.4974 236.555 73.3516C236.826 73.2005 237.036 73.0182 237.188 72.8047C237.339 72.5911 237.419 72.388 237.43 72.1953L238.023 73.0859C237.951 73.2995 237.841 73.526 237.695 73.7656C237.549 74.0052 237.362 74.2292 237.133 74.4375C236.904 74.6458 236.628 74.8177 236.305 74.9531C235.982 75.0885 235.607 75.1562 235.18 75.1562C234.633 75.1562 234.143 75.0469 233.711 74.8281C233.279 74.6094 232.938 74.3099 232.688 73.9297C232.438 73.5495 232.312 73.1172 232.312 72.6328C232.312 72.1849 232.396 71.7891 232.562 71.4453C232.729 71.1016 232.977 70.8125 233.305 70.5781C233.633 70.3385 234.039 70.1589 234.523 70.0391C235.013 69.9141 235.573 69.8516 236.203 69.8516H237.594ZM243.266 68.3516V75H241.203V66.5469H243.141L243.266 68.3516ZM242.938 70.4688H242.328C242.333 69.8542 242.417 69.2969 242.578 68.7969C242.74 68.2969 242.966 67.8672 243.258 67.5078C243.555 67.1484 243.906 66.8724 244.312 66.6797C244.719 66.487 245.172 66.3906 245.672 66.3906C246.078 66.3906 246.445 66.4479 246.773 66.5625C247.102 66.6771 247.383 66.8594 247.617 67.1094C247.857 67.3594 248.039 67.6875 248.164 68.0938C248.294 68.4948 248.359 68.9896 248.359 69.5781V75H246.281V69.5625C246.281 69.1771 246.224 68.8724 246.109 68.6484C246 68.4245 245.839 68.2656 245.625 68.1719C245.417 68.0781 245.159 68.0312 244.852 68.0312C244.534 68.0312 244.255 68.0964 244.016 68.2266C243.781 68.3516 243.583 68.526 243.422 68.75C243.266 68.974 243.146 69.2318 243.062 69.5234C242.979 69.8151 242.938 70.1302 242.938 70.4688ZM255.25 73.2031V63H257.328V75H255.453L255.25 73.2031ZM249.82 70.875V70.7109C249.82 70.0651 249.893 69.4792 250.039 68.9531C250.19 68.4219 250.409 67.9661 250.695 67.5859C250.982 67.2057 251.328 66.9115 251.734 66.7031C252.146 66.4948 252.612 66.3906 253.133 66.3906C253.638 66.3906 254.078 66.4922 254.453 66.6953C254.833 66.8984 255.156 67.1875 255.422 67.5625C255.693 67.9375 255.909 68.3828 256.07 68.8984C256.232 69.4089 256.349 69.9714 256.422 70.5859V71.0312C256.349 71.6302 256.232 72.1797 256.07 72.6797C255.909 73.1797 255.693 73.6172 255.422 73.9922C255.156 74.362 254.833 74.6484 254.453 74.8516C254.073 75.0547 253.628 75.1562 253.117 75.1562C252.602 75.1562 252.138 75.0495 251.727 74.8359C251.32 74.6224 250.974 74.3229 250.688 73.9375C250.406 73.5521 250.19 73.099 250.039 72.5781C249.893 72.0573 249.82 71.4896 249.82 70.875ZM251.891 70.7109V70.875C251.891 71.2396 251.922 71.5807 251.984 71.8984C252.047 72.2161 252.148 72.4974 252.289 72.7422C252.43 72.9818 252.609 73.1693 252.828 73.3047C253.052 73.4401 253.323 73.5078 253.641 73.5078C254.047 73.5078 254.38 73.4193 254.641 73.2422C254.906 73.0599 255.112 72.8125 255.258 72.5C255.404 72.1823 255.497 71.8255 255.539 71.4297V70.2031C255.518 69.8906 255.464 69.6016 255.375 69.3359C255.292 69.0703 255.172 68.8411 255.016 68.6484C254.865 68.4557 254.677 68.3047 254.453 68.1953C254.229 68.0859 253.964 68.0312 253.656 68.0312C253.339 68.0312 253.068 68.1016 252.844 68.2422C252.62 68.3776 252.438 68.5677 252.297 68.8125C252.156 69.0573 252.052 69.3411 251.984 69.6641C251.922 69.987 251.891 70.3359 251.891 70.7109ZM261.547 63.625L261.32 71.5859H259.578L259.352 63.625H261.547ZM259.289 74.0391C259.289 73.7318 259.393 73.474 259.602 73.2656C259.815 73.0521 260.102 72.9453 260.461 72.9453C260.82 72.9453 261.104 73.0521 261.312 73.2656C261.526 73.474 261.633 73.7318 261.633 74.0391C261.633 74.3411 261.526 74.5964 261.312 74.8047C261.104 75.013 260.82 75.1172 260.461 75.1172C260.102 75.1172 259.815 75.013 259.602 74.8047C259.393 74.5964 259.289 74.3411 259.289 74.0391Z" fill="#707070"/>
<defs>
<radialGradient id="paint0_radial_191951_7737" cx="0" cy="0" r="1" gradientUnits="userSpaceOnUse" gradientTransform="translate(162.207 120.446) rotate(90) scale(4.5429 3.2252)">
<stop stop-color="#FFBBBB"/>
<stop offset="1" stop-color="#FFBBBB" stop-opacity="0"/>
</radialGradient>
<radialGradient id="paint1_radial_191951_7737" cx="0" cy="0" r="1" gradientUnits="userSpaceOnUse" gradientTransform="translate(148.546 119.983) rotate(90) scale(4.5429 3.2252)">
<stop stop-color="#FFBBBB"/>
<stop offset="1" stop-color="#FFBBBB" stop-opacity="0"/>
</radialGradient>
</defs>
</svg>
