<svg width="146" height="151" viewBox="0 0 146 151" fill="none" xmlns="http://www.w3.org/2000/svg">
<path d="M56.7007 108.031H37V141H56.7007V108.031Z" fill="#4C89FF"/>
<path d="M109 108.031H72.3197V141H109V108.031Z" fill="#4C89FF"/>
<path d="M39.8844 108.085H37V102.992L38.415 103.957L39.8844 102.992V108.085Z" fill="#4C89FF"/>
<path d="M45.5443 108.085H42.6599V102.992L44.0749 103.957L45.5443 102.992V108.085Z" fill="#4C89FF"/>
<path d="M86.3606 108.085H83.5306V102.992L84.9456 103.957L86.3606 102.992V108.085Z" fill="#4C89FF"/>
<path d="M92.0205 108.085H89.1361V102.992L90.6055 103.957L92.0205 102.992V108.085Z" fill="#4C89FF"/>
<path d="M97.6803 108.085H94.7959V102.992L96.2653 103.957L97.6803 102.992V108.085Z" fill="#4C89FF"/>
<path d="M103.34 108.085H100.456V102.992L101.925 103.957L103.34 102.992V108.085Z" fill="#4C89FF"/>
<path d="M109 108.085H106.116V102.992L107.585 103.957L109 102.992V108.085Z" fill="#4C89FF"/>
<path d="M64.5374 16.5216L56.6462 44.3979L64.5374 49.9732L72.3741 44.3979L64.5374 16.5216Z" fill="#84ADFF"/>
<path d="M64.5375 11L65.6259 13.1979L68.1293 13.5732L66.3334 15.2887L66.7688 17.7546L64.5375 16.6289L62.3062 17.7546L62.7416 15.2887L60.8912 13.5732L63.3946 13.1979L64.5375 11Z" fill="#D52B1E"/>
<path d="M73.6804 45.4701H55.3947V123.417H73.6804V45.4701Z" fill="#4C89FF"/>
<path d="M59.4763 42.7361C58.8232 42.3608 58.4423 40.8062 58.4423 40.8062C58.4423 40.8062 58.0613 42.4144 57.4083 42.7361C56.7552 43.1113 55.3947 43.3794 55.3947 45.7918C55.3947 48.2041 55.3947 52.868 55.3947 52.868H58.4423H61.4899C61.4899 52.868 61.4899 48.2041 61.4899 45.7918C61.4899 43.3794 60.1293 43.1113 59.4763 42.7361Z" fill="#DDE8FF"/>
<path d="M59.2586 43.4866C58.7688 43.2186 58.4423 41.9856 58.4423 41.9856C58.4423 41.9856 58.1158 43.2186 57.626 43.4866C57.1362 43.7546 56.0477 43.9691 56.0477 45.899C56.0477 47.7753 56.0477 52.868 56.0477 52.868H60.7824C60.7824 52.868 60.7824 47.7753 60.7824 45.899C60.7824 43.9691 59.7484 43.7546 59.2586 43.4866Z" fill="#4C89FF"/>
<path d="M65.5715 42.7361C64.9184 42.3608 64.5375 40.8062 64.5375 40.8062C64.5375 40.8062 64.1565 42.4144 63.5035 42.7361C62.8504 43.1113 61.4899 43.3794 61.4899 45.7918C61.4899 48.2041 61.4899 52.868 61.4899 52.868H64.5375H67.5851C67.5851 52.868 67.5851 48.2041 67.5851 45.7918C67.5851 43.3794 66.2246 43.1113 65.5715 42.7361Z" fill="#DDE8FF"/>
<path d="M65.3538 43.4866C64.864 43.2186 64.5375 41.9856 64.5375 41.9856C64.5375 41.9856 64.211 43.2186 63.7212 43.4866C63.2314 43.7546 62.1429 43.9691 62.1429 45.899C62.1429 47.7753 62.1429 52.868 62.1429 52.868H66.8776C66.8776 52.868 66.8776 47.7753 66.8776 45.899C66.8776 43.9691 65.8436 43.7546 65.3538 43.4866Z" fill="#4C89FF"/>
<path d="M71.6667 42.7361C71.0137 42.3608 70.6327 40.8062 70.6327 40.8062C70.6327 40.8062 70.2517 42.4144 69.5987 42.7361C68.9456 43.1113 67.5851 43.3794 67.5851 45.7918C67.5851 48.2041 67.5851 52.868 67.5851 52.868H70.6327H73.6803C73.6803 52.868 73.6803 48.2041 73.6803 45.7918C73.6803 43.3794 72.3198 43.1113 71.6667 42.7361Z" fill="#DDE8FF"/>
<path d="M71.4489 43.4866C70.9591 43.2186 70.6326 41.9856 70.6326 41.9856C70.6326 41.9856 70.3061 43.2186 69.8163 43.4866C69.3265 43.7546 68.238 43.9691 68.238 45.899C68.238 47.7753 68.238 52.868 68.238 52.868H72.9727C72.9727 52.868 72.9727 47.7753 72.9727 45.899C72.9727 43.9691 71.9387 43.7546 71.4489 43.4866Z" fill="#4C89FF"/>
<path d="M56.0476 49.2227C56.0476 51.0454 56.0476 52.8144 56.0476 52.8144H60.7823C60.7823 52.8144 60.7823 51.0454 60.7823 49.2227H56.0476Z" fill="#B0CBFF"/>
<path d="M62.1428 49.2227C62.1428 51.0454 62.1428 52.8144 62.1428 52.8144H66.8775C66.8775 52.8144 66.8775 51.0454 66.8775 49.2227H62.1428Z" fill="#B0CBFF"/>
<path d="M68.238 49.2227C68.238 51.0454 68.238 52.8144 68.238 52.8144H72.9727C72.9727 52.8144 72.9727 51.0454 72.9727 49.2227H68.238Z" fill="#B0CBFF"/>
<path d="M73.6804 52.868H55.3947V123.416H73.6804V52.868Z" fill="#B0CBFF"/>
<path d="M73.6804 52.868H55.3947V55.9773H73.6804V52.868Z" fill="#DDE8FF"/>
<path d="M75.2586 64.233H53.762V127.973H75.2586V64.233Z" fill="#B0CBFF"/>
<path d="M75.2586 64.233H53.762V66.2165H75.2586V64.233Z" fill="#DDE8FF"/>
<path d="M79.6123 81.4949H49.4626V141H79.6123V81.4949Z" fill="#B0CBFF"/>
<path d="M79.6123 81.4949H49.4626V141H79.6123V81.4949Z" fill="#4C89FF"/>
<path d="M76.1837 81.4949H52.8368V141H76.1837V81.4949Z" fill="#B0CBFF"/>
<path d="M52.1293 81.4949H49.4626V141H52.1293V81.4949Z" fill="#B0CBFF"/>
<path d="M79.6122 81.4949H76.9456V141H79.6122V81.4949Z" fill="#B0CBFF"/>
<path d="M79.6123 85.9443H49.4626V87.3917H79.6123V85.9443Z" fill="#DDE8FF"/>
<path d="M71.83 67.932V64.3402C71.83 61.0701 68.6191 60.0515 67.0409 59.5691C65.4627 59.0866 64.5375 56.9423 64.5375 56.9423C64.5375 56.9423 63.6123 59.0866 62.0341 59.5691C60.4559 60.0515 57.245 61.0701 57.245 64.3402V67.932H71.83Z" fill="#DDE8FF"/>
<path d="M72.5919 69.3258C72.5919 73.7216 69 77.2598 64.5375 77.2598C60.0749 77.2598 56.483 73.7216 56.483 69.3258C56.483 64.9299 60.0749 61.3918 64.5375 61.3918C69 61.3381 72.5919 64.9299 72.5919 69.3258Z" fill="#DDE8FF"/>
<path d="M71.4491 69.3258C71.4491 73.0784 68.347 76.1876 64.4831 76.1876C60.6736 76.1876 57.5171 73.132 57.5171 69.3258C57.5171 65.5732 60.6191 62.4639 64.4831 62.4639C68.347 62.4639 71.4491 65.5196 71.4491 69.3258Z" fill="#4C89FF"/>
<path d="M65.4626 67.8784L65.6259 68.0928L64.6463 68.8433H64.5919C64.4286 68.8433 64.3198 68.9505 64.3198 69.1113C64.3198 69.2186 64.3742 69.2722 64.483 69.3258V72.0062H64.2109L64.5375 73.132L64.9728 72.0062H64.7007V69.3794C64.8096 69.3258 64.864 69.2722 64.864 69.1113C64.864 69.0577 64.864 69.0577 64.864 69.0041L65.7892 68.3072L65.9524 68.5217L66.7688 67.6103L65.4626 67.8784Z" fill="#DDE8FF"/>
<path d="M55.0136 80.1546C54.6326 79.9402 54.415 79.0289 54.415 79.0289C54.415 79.0289 54.1973 79.9402 53.8163 80.1546C53.4354 80.3691 52.6735 80.5299 52.6735 81.9237C52.6735 83.3175 52.6735 85.9443 52.6735 85.9443H54.415H56.1565C56.1565 85.9443 56.1565 83.2639 56.1565 81.9237C56.1565 80.5299 55.3946 80.3691 55.0136 80.1546Z" fill="#DDE8FF"/>
<path d="M52.728 80.5299H49.4626V85.9979H52.728V80.5299Z" fill="#B0CBFF"/>
<path d="M52.728 79.2433H49.4626V80.6371H52.728V79.2433Z" fill="#B0CBFF"/>
<path d="M51.0409 71.3629C51.0409 71.3629 50.1701 78.7072 49.4082 79.1897H52.6735C51.966 78.7072 51.0409 71.3629 51.0409 71.3629Z" fill="#DDE8FF"/>
<path d="M61.7619 80.1546C61.3809 79.9402 61.1633 79.0289 61.1633 79.0289C61.1633 79.0289 60.9456 79.9402 60.5646 80.1546C60.1837 80.3691 59.4218 80.5299 59.4218 81.9237C59.4218 83.3175 59.4218 85.9443 59.4218 85.9443H61.1633H62.9047C62.9047 85.9443 62.9047 83.2639 62.9047 81.9237C62.9047 80.5299 62.1428 80.3691 61.7619 80.1546Z" fill="#DDE8FF"/>
<path d="M59.4218 80.5299H56.1565V85.9979H59.4218V80.5299Z" fill="#DDE8FF"/>
<path d="M59.4218 79.2433H56.1565V80.6371H59.4218V79.2433Z" fill="#DDE8FF"/>
<path d="M57.7891 77.1526C57.7891 77.1526 56.9184 78.7072 56.1565 79.2433H59.4218C58.6599 78.7072 57.7891 77.1526 57.7891 77.1526Z" fill="#DDE8FF"/>
<path d="M68.4559 80.1546C68.0749 79.9402 67.8572 79.0289 67.8572 79.0289C67.8572 79.0289 67.6395 79.9402 67.2586 80.1546C66.8776 80.3691 66.1157 80.5299 66.1157 81.9237C66.1157 83.3175 66.1157 85.9443 66.1157 85.9443H67.8572H69.5987C69.5987 85.9443 69.5987 83.2639 69.5987 81.9237C69.5987 80.5299 68.8368 80.3691 68.4559 80.1546Z" fill="#DDE8FF"/>
<path d="M66.1701 80.5299H62.9048V85.9979H66.1701V80.5299Z" fill="#DDE8FF"/>
<path d="M66.1701 79.2433H62.9048V80.6371H66.1701V79.2433Z" fill="#DDE8FF"/>
<path d="M64.5374 77.1526C64.5374 77.1526 63.6667 78.7072 62.9048 79.2433H66.1701C65.4082 78.7072 64.5374 77.1526 64.5374 77.1526Z" fill="#DDE8FF"/>
<path d="M75.2041 80.1546C74.8232 79.9402 74.6055 79.0289 74.6055 79.0289C74.6055 79.0289 74.3878 79.9402 74.0069 80.1546C73.6259 80.3691 72.864 80.5299 72.864 81.9237C72.864 83.3175 72.864 85.9443 72.864 85.9443H74.6055H76.347C76.347 85.9443 76.347 83.2639 76.347 81.9237C76.347 80.5299 75.5851 80.3691 75.2041 80.1546Z" fill="#DDE8FF"/>
<path d="M72.8639 80.5299H69.5986V85.9979H72.8639V80.5299Z" fill="#DDE8FF"/>
<path d="M72.8639 79.2433H69.5986V80.6371H72.8639V79.2433Z" fill="#DDE8FF"/>
<path d="M71.2313 77.1526C71.2313 77.1526 70.3605 78.7072 69.5986 79.2433H72.8639C72.1565 78.7072 71.2313 77.1526 71.2313 77.1526Z" fill="#DDE8FF"/>
<path d="M79.6122 80.5299H76.3469V85.9979H79.6122V80.5299Z" fill="#B0CBFF"/>
<path d="M79.6122 79.2433H76.3469V80.6371H79.6122V79.2433Z" fill="#B0CBFF"/>
<path d="M77.9796 71.3629C77.9796 71.3629 77.1088 78.7072 76.3469 79.1897H79.6122C78.8503 78.7072 77.9796 71.3629 77.9796 71.3629Z" fill="#DDE8FF"/>
<path d="M79.6123 99.4H49.4626V99.9897H79.6123V99.4Z" fill="#DDE8FF"/>
</svg>
