<svg width="320" height="326" viewBox="0 0 320 326" fill="none" xmlns="http://www.w3.org/2000/svg">
<circle cx="160" cy="160" r="160" fill="#D0D0FF"/>
<path d="M121.063 241.753H74V320.239H121.063V241.753Z" fill="#4C89FF"/>
<path d="M246 241.753H158.375V320.239H246V241.753Z" fill="#4C89FF"/>
<path d="M80.8904 241.88H74V229.756L77.3802 232.054L80.8904 229.756V241.88Z" fill="#4C89FF"/>
<path d="M94.4114 241.88H87.521V229.756L90.9012 232.054L94.4114 229.756V241.88Z" fill="#4C89FF"/>
<path d="M191.917 241.88H185.156V229.756L188.536 232.054L191.917 229.756V241.88Z" fill="#4C89FF"/>
<path d="M205.438 241.88H198.547V229.756L202.058 232.054L205.438 229.756V241.88Z" fill="#4C89FF"/>
<path d="M218.958 241.88H212.068V229.756L215.578 232.054L218.958 229.756V241.88Z" fill="#4C89FF"/>
<path d="M232.479 241.88H225.589V229.756L229.099 232.054L232.479 229.756V241.88Z" fill="#4C89FF"/>
<path d="M246 241.88H239.109V229.756L242.62 232.054L246 229.756V241.88Z" fill="#4C89FF"/>
<path d="M139.784 23.906L120.933 90.2682L139.784 103.541L158.505 90.2682L139.784 23.906Z" fill="#84ADFF"/>
<path d="M139.784 10.7612L142.384 15.9936L148.364 16.887L144.074 20.9708L145.114 26.8413L139.784 24.1613L134.453 26.8413L135.493 20.9708L131.073 16.887L137.054 15.9936L139.784 10.7612Z" fill="#D52B1E"/>
<path d="M161.625 92.8207H117.942V278.38H161.625V92.8207Z" fill="#4C89FF"/>
<path d="M127.693 86.3121C126.133 85.4187 125.223 81.7178 125.223 81.7178C125.223 81.7178 124.313 85.5464 122.753 86.3121C121.193 87.2054 117.942 87.8435 117.942 93.5864C117.942 99.3293 117.942 110.432 117.942 110.432H125.223H132.503C132.503 110.432 132.503 99.3293 132.503 93.5864C132.503 87.8435 129.253 87.2054 127.693 86.3121Z" fill="#DDE8FF"/>
<path d="M127.173 88.0987C126.003 87.4606 125.223 84.5254 125.223 84.5254C125.223 84.5254 124.443 87.4606 123.273 88.0987C122.103 88.7368 119.502 89.2473 119.502 93.8416C119.502 98.3083 119.502 110.432 119.502 110.432H130.813C130.813 110.432 130.813 98.3083 130.813 93.8416C130.813 89.2473 128.343 88.7368 127.173 88.0987Z" fill="#4C89FF"/>
<path d="M142.254 86.3121C140.694 85.4187 139.784 81.7178 139.784 81.7178C139.784 81.7178 138.874 85.5464 137.314 86.3121C135.754 87.2054 132.503 87.8435 132.503 93.5864C132.503 99.3293 132.503 110.432 132.503 110.432H139.784H147.064C147.064 110.432 147.064 99.3293 147.064 93.5864C147.064 87.8435 143.814 87.2054 142.254 86.3121Z" fill="#DDE8FF"/>
<path d="M141.734 88.0987C140.564 87.4606 139.784 84.5254 139.784 84.5254C139.784 84.5254 139.004 87.4606 137.834 88.0987C136.664 88.7368 134.063 89.2473 134.063 93.8416C134.063 98.3083 134.063 110.432 134.063 110.432H145.374C145.374 110.432 145.374 98.3083 145.374 93.8416C145.374 89.2473 142.904 88.7368 141.734 88.0987Z" fill="#4C89FF"/>
<path d="M156.815 86.3121C155.254 85.4187 154.344 81.7178 154.344 81.7178C154.344 81.7178 153.434 85.5464 151.874 86.3121C150.314 87.2054 147.064 87.8435 147.064 93.5864C147.064 99.3293 147.064 110.432 147.064 110.432H154.344H161.625C161.625 110.432 161.625 99.3293 161.625 93.5864C161.625 87.8435 158.375 87.2054 156.815 86.3121Z" fill="#DDE8FF"/>
<path d="M156.294 88.0987C155.124 87.4606 154.344 84.5254 154.344 84.5254C154.344 84.5254 153.564 87.4606 152.394 88.0987C151.224 88.7368 148.624 89.2473 148.624 93.8416C148.624 98.3083 148.624 110.432 148.624 110.432H159.935C159.935 110.432 159.935 98.3083 159.935 93.8416C159.935 89.2473 157.465 88.7368 156.294 88.0987Z" fill="#4C89FF"/>
<path d="M119.502 101.754C119.502 106.093 119.502 110.305 119.502 110.305H130.813C130.813 110.305 130.813 106.093 130.813 101.754H119.502Z" fill="#B0CBFF"/>
<path d="M134.063 101.754C134.063 106.093 134.063 110.305 134.063 110.305H145.374C145.374 110.305 145.374 106.093 145.374 101.754H134.063Z" fill="#B0CBFF"/>
<path d="M148.624 101.754C148.624 106.093 148.624 110.305 148.624 110.305H159.935C159.935 110.305 159.935 106.093 159.935 101.754H148.624Z" fill="#B0CBFF"/>
<path d="M161.625 110.432H117.942V278.38H161.625V110.432Z" fill="#B0CBFF"/>
<path d="M161.625 110.432H117.942V117.834H161.625V110.432Z" fill="#DDE8FF"/>
<path d="M165.395 137.488H114.042V289.227H165.395V137.488Z" fill="#B0CBFF"/>
<path d="M165.395 137.488H114.042V142.209H165.395V137.488Z" fill="#DDE8FF"/>
<path d="M175.796 178.581H103.771V320.239H175.796V178.581Z" fill="#B0CBFF"/>
<path d="M175.796 178.581H103.771V320.239H175.796V178.581Z" fill="#4C89FF"/>
<path d="M167.605 178.581H111.832V320.239H167.605V178.581Z" fill="#B0CBFF"/>
<path d="M110.142 178.581H103.771V320.239H110.142V178.581Z" fill="#B0CBFF"/>
<path d="M175.796 178.581H169.425V320.239H175.796V178.581Z" fill="#B0CBFF"/>
<path d="M175.796 189.173H103.771V192.619H175.796V189.173Z" fill="#DDE8FF"/>
<path d="M157.205 146.293V137.743C157.205 129.958 149.534 127.533 145.764 126.385C141.994 125.236 139.784 120.131 139.784 120.131C139.784 120.131 137.574 125.236 133.803 126.385C130.033 127.533 122.363 129.958 122.363 137.743V146.293H157.205Z" fill="#DDE8FF"/>
<path d="M159.025 149.611C159.025 160.076 150.444 168.499 139.784 168.499C129.123 168.499 120.542 160.076 120.542 149.611C120.542 139.147 129.123 130.724 139.784 130.724C150.444 130.596 159.025 139.147 159.025 149.611Z" fill="#DDE8FF"/>
<path d="M156.295 149.611C156.295 158.545 148.884 165.947 139.654 165.947C130.553 165.947 123.013 158.672 123.013 149.611C123.013 140.678 130.423 133.276 139.654 133.276C148.884 133.276 156.295 140.55 156.295 149.611Z" fill="#4C89FF"/>
<path d="M141.994 146.166L142.384 146.676L140.043 148.463H139.913C139.523 148.463 139.263 148.718 139.263 149.101C139.263 149.356 139.393 149.484 139.653 149.611V155.992H139.003L139.783 158.672L140.824 155.992H140.173V149.739C140.434 149.611 140.564 149.484 140.564 149.101C140.564 148.973 140.564 148.973 140.564 148.846L142.774 147.187L143.164 147.697L145.114 145.528L141.994 146.166Z" fill="#DDE8FF"/>
<path d="M117.032 175.391C116.122 174.88 115.602 172.711 115.602 172.711C115.602 172.711 115.082 174.88 114.172 175.391C113.262 175.901 111.442 176.284 111.442 179.602C111.442 182.92 111.442 189.174 111.442 189.174H115.602H119.762C119.762 189.174 119.762 182.793 119.762 179.602C119.762 176.284 117.942 175.901 117.032 175.391Z" fill="#DDE8FF"/>
<path d="M111.572 176.284H103.771V189.301H111.572V176.284Z" fill="#B0CBFF"/>
<path d="M111.572 173.221H103.771V176.539H111.572V173.221Z" fill="#B0CBFF"/>
<path d="M107.542 154.461C107.542 154.461 105.462 171.945 103.642 173.093H111.442C109.752 171.945 107.542 154.461 107.542 154.461Z" fill="#DDE8FF"/>
<path d="M133.153 175.391C132.243 174.88 131.723 172.711 131.723 172.711C131.723 172.711 131.203 174.88 130.293 175.391C129.383 175.901 127.563 176.284 127.563 179.602C127.563 182.92 127.563 189.174 127.563 189.174H131.723H135.883C135.883 189.174 135.883 182.793 135.883 179.602C135.883 176.284 134.063 175.901 133.153 175.391Z" fill="#DDE8FF"/>
<path d="M127.563 176.284H119.763V189.301H127.563V176.284Z" fill="#DDE8FF"/>
<path d="M127.563 173.221H119.763V176.539H127.563V173.221Z" fill="#DDE8FF"/>
<path d="M123.663 168.244C123.663 168.244 121.583 171.945 119.763 173.221H127.563C125.743 171.945 123.663 168.244 123.663 168.244Z" fill="#DDE8FF"/>
<path d="M149.144 175.391C148.234 174.88 147.714 172.711 147.714 172.711C147.714 172.711 147.194 174.88 146.284 175.391C145.374 175.901 143.554 176.284 143.554 179.602C143.554 182.92 143.554 189.174 143.554 189.174H147.714H151.874C151.874 189.174 151.874 182.793 151.874 179.602C151.874 176.284 150.054 175.901 149.144 175.391Z" fill="#DDE8FF"/>
<path d="M143.684 176.284H135.883V189.301H143.684V176.284Z" fill="#DDE8FF"/>
<path d="M143.684 173.221H135.883V176.539H143.684V173.221Z" fill="#DDE8FF"/>
<path d="M139.784 168.244C139.784 168.244 137.703 171.945 135.883 173.221H143.684C141.864 171.945 139.784 168.244 139.784 168.244Z" fill="#DDE8FF"/>
<path d="M165.265 175.391C164.355 174.88 163.835 172.711 163.835 172.711C163.835 172.711 163.315 174.88 162.405 175.391C161.495 175.901 159.675 176.284 159.675 179.602C159.675 182.92 159.675 189.174 159.675 189.174H163.835H167.995C167.995 189.174 167.995 182.793 167.995 179.602C167.995 176.284 166.175 175.901 165.265 175.391Z" fill="#DDE8FF"/>
<path d="M159.675 176.284H151.875V189.301H159.675V176.284Z" fill="#DDE8FF"/>
<path d="M159.675 173.221H151.875V176.539H159.675V173.221Z" fill="#DDE8FF"/>
<path d="M155.775 168.244C155.775 168.244 153.695 171.945 151.875 173.221H159.675C157.985 171.945 155.775 168.244 155.775 168.244Z" fill="#DDE8FF"/>
<path d="M175.796 176.284H167.995V189.301H175.796V176.284Z" fill="#B0CBFF"/>
<path d="M175.796 173.221H167.995V176.539H175.796V173.221Z" fill="#B0CBFF"/>
<path d="M171.895 154.461C171.895 154.461 169.815 171.945 167.995 173.093H175.796C173.975 171.945 171.895 154.461 171.895 154.461Z" fill="#DDE8FF"/>
<path d="M175.796 221.206H103.771V222.61H175.796V221.206Z" fill="#DDE8FF"/>
<path d="M76.9608 120.28C57.0355 150.474 62.5375 194.243 69.0461 217.342C70.0969 221.072 73.4699 223.594 77.3378 223.821C79.7386 223.961 82.1988 223.68 84.2629 222.446C104.956 210.078 101.913 163.072 97.5344 140.064L85.0515 154.198L76.9608 120.28Z" fill="#FFCC00"/>
<path d="M71.6508 152.344C57.957 173.095 61.7383 203.176 66.2113 219.051C66.9336 221.614 69.2517 223.348 71.9099 223.503C73.5599 223.6 75.2507 223.406 76.6693 222.558C90.8911 214.059 88.7995 181.753 85.7902 165.941L77.2112 175.654L71.6508 152.344Z" fill="#FF6B0A"/>
<path d="M209.747 31.0256C175.309 83.2109 184.818 158.86 196.067 198.783C197.884 205.229 203.713 209.589 210.398 209.98C214.548 210.223 218.8 209.737 222.368 207.604C258.133 186.228 252.873 104.985 245.305 65.2193L223.73 89.6475L209.747 31.0256Z" fill="#FFCC00"/>
<path d="M200.569 86.4433C176.901 122.308 183.436 174.299 191.167 201.736C192.416 206.166 196.422 209.162 201.016 209.431C203.868 209.598 206.791 209.264 209.242 207.799C233.823 193.108 230.208 137.273 225.007 109.943L210.179 126.732L200.569 86.4433Z" fill="#FF6B0A"/>
</svg>
