<svg width="43" height="43" viewBox="0 0 43 43" fill="none" xmlns="http://www.w3.org/2000/svg">
<rect width="43" height="43" fill="white"/>
<path d="M16.7585 31.6864H10.4231V42.1028H16.7585V31.6864Z" fill="#4C89FF"/>
<path d="M33.5769 31.6864H21.7812V42.1028H33.5769V31.6864Z" fill="#4C89FF"/>
<path d="M11.3506 31.7032H10.4231V30.0941L10.8781 30.3991L11.3506 30.0941V31.7032Z" fill="#4C89FF"/>
<path d="M13.1707 31.7032H12.2432V30.0941L12.6982 30.3991L13.1707 30.0941V31.7032Z" fill="#4C89FF"/>
<path d="M26.2965 31.7032H25.3864V30.0941L25.8415 30.3991L26.2965 30.0941V31.7032Z" fill="#4C89FF"/>
<path d="M28.1166 31.7032H27.189V30.0941L27.6615 30.3991L28.1166 30.0941V31.7032Z" fill="#4C89FF"/>
<path d="M29.9367 31.7032H29.0092V30.0941L29.4817 30.3991L29.9367 30.0941V31.7032Z" fill="#4C89FF"/>
<path d="M31.7568 31.7032H30.8293V30.0941L31.3018 30.3991L31.7568 30.0941V31.7032Z" fill="#4C89FF"/>
<path d="M33.5769 31.7032H32.6494V30.0941L33.1219 30.3991L33.5769 30.0941V31.7032Z" fill="#4C89FF"/>
<path d="M19.2786 2.77454L16.741 11.5819L19.2786 13.3434L21.7988 11.5819L19.2786 2.77454Z" fill="#84ADFF"/>
<path d="M19.2786 1.03003L19.6287 1.72445L20.4337 1.84301L19.8562 2.38501L19.9962 3.16412L19.2786 2.80844L18.5611 3.16412L18.7011 2.38501L18.1061 1.84301L18.9111 1.72445L19.2786 1.03003Z" fill="#D52B1E"/>
<path d="M22.2187 11.9207H16.3384V36.5474H22.2187V11.9207Z" fill="#4C89FF"/>
<path d="M17.651 11.0569C17.4409 10.9383 17.3184 10.4471 17.3184 10.4471C17.3184 10.4471 17.1959 10.9553 16.9859 11.0569C16.7759 11.1754 16.3384 11.2601 16.3384 12.0223C16.3384 12.7845 16.3384 14.258 16.3384 14.258H17.3184H18.2985C18.2985 14.258 18.2985 12.7845 18.2985 12.0223C18.2985 11.2601 17.861 11.1754 17.651 11.0569Z" fill="#DDE8FF"/>
<path d="M17.581 11.294C17.4235 11.2093 17.3185 10.8197 17.3185 10.8197C17.3185 10.8197 17.2135 11.2093 17.056 11.294C16.8985 11.3786 16.5485 11.4464 16.5485 12.0561C16.5485 12.6489 16.5485 14.2579 16.5485 14.2579H18.071C18.071 14.2579 18.071 12.6489 18.071 12.0561C18.071 11.4464 17.7385 11.3786 17.581 11.294Z" fill="#4C89FF"/>
<path d="M19.6112 11.0569C19.4012 10.9383 19.2786 10.4471 19.2786 10.4471C19.2786 10.4471 19.1561 10.9553 18.9461 11.0569C18.7361 11.1754 18.2986 11.2601 18.2986 12.0223C18.2986 12.7845 18.2986 14.258 18.2986 14.258H19.2786H20.2587C20.2587 14.258 20.2587 12.7845 20.2587 12.0223C20.2587 11.2601 19.8212 11.1754 19.6112 11.0569Z" fill="#DDE8FF"/>
<path d="M19.5411 11.294C19.3836 11.2093 19.2786 10.8197 19.2786 10.8197C19.2786 10.8197 19.1736 11.2093 19.0161 11.294C18.8586 11.3786 18.5085 11.4464 18.5085 12.0561C18.5085 12.6489 18.5085 14.2579 18.5085 14.2579H20.0311C20.0311 14.2579 20.0311 12.6489 20.0311 12.0561C20.0311 11.4464 19.6986 11.3786 19.5411 11.294Z" fill="#4C89FF"/>
<path d="M21.5713 11.0569C21.3612 10.9383 21.2387 10.4471 21.2387 10.4471C21.2387 10.4471 21.1162 10.9553 20.9062 11.0569C20.6962 11.1754 20.2587 11.2601 20.2587 12.0223C20.2587 12.7845 20.2587 14.258 20.2587 14.258H21.2387H22.2188C22.2188 14.258 22.2188 12.7845 22.2188 12.0223C22.2188 11.2601 21.7813 11.1754 21.5713 11.0569Z" fill="#DDE8FF"/>
<path d="M21.5012 11.294C21.3437 11.2093 21.2387 10.8197 21.2387 10.8197C21.2387 10.8197 21.1337 11.2093 20.9762 11.294C20.8186 11.3786 20.4686 11.4464 20.4686 12.0561C20.4686 12.6489 20.4686 14.2579 20.4686 14.2579H21.9912C21.9912 14.2579 21.9912 12.6489 21.9912 12.0561C21.9912 11.4464 21.6587 11.3786 21.5012 11.294Z" fill="#4C89FF"/>
<path d="M16.5485 13.1062C16.5485 13.6821 16.5485 14.2411 16.5485 14.2411H18.071C18.071 14.2411 18.071 13.6821 18.071 13.1062H16.5485Z" fill="#B0CBFF"/>
<path d="M18.5085 13.1062C18.5085 13.6821 18.5085 14.2411 18.5085 14.2411H20.0311C20.0311 14.2411 20.0311 13.6821 20.0311 13.1062H18.5085Z" fill="#B0CBFF"/>
<path d="M20.4686 13.1062C20.4686 13.6821 20.4686 14.2411 20.4686 14.2411H21.9912C21.9912 14.2411 21.9912 13.6821 21.9912 13.1062H20.4686Z" fill="#B0CBFF"/>
<path d="M22.2187 14.2579H16.3384V36.5473H22.2187V14.2579Z" fill="#B0CBFF"/>
<path d="M22.2187 14.2579H16.3384V15.2403H22.2187V14.2579Z" fill="#DDE8FF"/>
<path d="M22.7262 17.8486H15.8134V37.987H22.7262V17.8486Z" fill="#B0CBFF"/>
<path d="M22.7262 17.8486H15.8134V18.4753H22.7262V17.8486Z" fill="#DDE8FF"/>
<path d="M24.1264 23.3024H14.4308V42.1027H24.1264V23.3024Z" fill="#B0CBFF"/>
<path d="M24.1264 23.3024H14.4308V42.1027H24.1264V23.3024Z" fill="#4C89FF"/>
<path d="M23.0237 23.3024H15.5159V42.1027H23.0237V23.3024Z" fill="#B0CBFF"/>
<path d="M15.2883 23.3024H14.4308V42.1027H15.2883V23.3024Z" fill="#B0CBFF"/>
<path d="M24.1264 23.3024H23.2689V42.1027H24.1264V23.3024Z" fill="#B0CBFF"/>
<path d="M24.1264 24.7081H14.4308V25.1655H24.1264V24.7081Z" fill="#DDE8FF"/>
<path d="M21.6238 19.0173V17.8826C21.6238 16.8494 20.5912 16.5275 20.0837 16.3752C19.5761 16.2227 19.2786 15.5452 19.2786 15.5452C19.2786 15.5452 18.9811 16.2227 18.4736 16.3752C17.966 16.5275 16.9335 16.8494 16.9335 17.8826V19.0173H21.6238Z" fill="#DDE8FF"/>
<path d="M21.8688 19.4576C21.8688 20.8465 20.7137 21.9643 19.2786 21.9643C17.8435 21.9643 16.6885 20.8465 16.6885 19.4576C16.6885 18.0689 17.8435 16.951 19.2786 16.951C20.7137 16.934 21.8688 18.0689 21.8688 19.4576Z" fill="#DDE8FF"/>
<path d="M21.5013 19.4576C21.5013 20.6433 20.5037 21.6256 19.2611 21.6256C18.0361 21.6256 17.021 20.6601 17.021 19.4576C17.021 18.272 18.0185 17.2897 19.2611 17.2897C20.5037 17.2897 21.5013 18.255 21.5013 19.4576Z" fill="#4C89FF"/>
<path d="M19.5761 19.0004L19.6286 19.0681L19.3136 19.3053H19.2961C19.2436 19.3053 19.2086 19.3391 19.2086 19.39C19.2086 19.4238 19.2261 19.4408 19.2611 19.4577V20.3045H19.1736L19.2786 20.6602L19.4186 20.3045H19.3311V19.4746C19.3661 19.4577 19.3836 19.4408 19.3836 19.39C19.3836 19.373 19.3836 19.373 19.3836 19.3561L19.6811 19.1359L19.7336 19.2036L19.9961 18.9158L19.5761 19.0004Z" fill="#DDE8FF"/>
<path d="M16.2159 22.879C16.0934 22.8112 16.0234 22.5233 16.0234 22.5233C16.0234 22.5233 15.9534 22.8112 15.8309 22.879C15.7084 22.9467 15.4634 22.9975 15.4634 23.4379C15.4634 23.8782 15.4634 24.7081 15.4634 24.7081H16.0234H16.5834C16.5834 24.7081 16.5834 23.8612 16.5834 23.4379C16.5834 22.9975 16.3384 22.9467 16.2159 22.879Z" fill="#DDE8FF"/>
<path d="M15.4809 22.9976H14.4308V24.7251H15.4809V22.9976Z" fill="#B0CBFF"/>
<path d="M15.4809 22.5911H14.4308V23.0314H15.4809V22.5911Z" fill="#B0CBFF"/>
<path d="M14.9384 20.1013C14.9384 20.1013 14.6583 22.4217 14.4133 22.5741H15.4634C15.2359 22.4217 14.9384 20.1013 14.9384 20.1013Z" fill="#DDE8FF"/>
<path d="M18.3861 22.879C18.2636 22.8112 18.1936 22.5233 18.1936 22.5233C18.1936 22.5233 18.1236 22.8112 18.0011 22.879C17.8786 22.9467 17.6335 22.9975 17.6335 23.4379C17.6335 23.8782 17.6335 24.7081 17.6335 24.7081H18.1936H18.7536C18.7536 24.7081 18.7536 23.8612 18.7536 23.4379C18.7536 22.9975 18.5086 22.9467 18.3861 22.879Z" fill="#DDE8FF"/>
<path d="M17.6336 22.9976H16.5835V24.7251H17.6336V22.9976Z" fill="#DDE8FF"/>
<path d="M17.6336 22.5911H16.5835V23.0314H17.6336V22.5911Z" fill="#DDE8FF"/>
<path d="M17.1085 21.9305C17.1085 21.9305 16.8285 22.4217 16.5835 22.5911H17.6336C17.3885 22.4217 17.1085 21.9305 17.1085 21.9305Z" fill="#DDE8FF"/>
<path d="M20.5387 22.879C20.4162 22.8112 20.3462 22.5233 20.3462 22.5233C20.3462 22.5233 20.2762 22.8112 20.1536 22.879C20.0311 22.9467 19.7861 22.9975 19.7861 23.4379C19.7861 23.8782 19.7861 24.7081 19.7861 24.7081H20.3462H20.9062C20.9062 24.7081 20.9062 23.8612 20.9062 23.4379C20.9062 22.9975 20.6612 22.9467 20.5387 22.879Z" fill="#DDE8FF"/>
<path d="M19.8036 22.9976H18.7535V24.7251H19.8036V22.9976Z" fill="#DDE8FF"/>
<path d="M19.8036 22.5911H18.7535V23.0314H19.8036V22.5911Z" fill="#DDE8FF"/>
<path d="M19.2786 21.9305C19.2786 21.9305 18.9986 22.4217 18.7535 22.5911H19.8036C19.5586 22.4217 19.2786 21.9305 19.2786 21.9305Z" fill="#DDE8FF"/>
<path d="M22.7088 22.879C22.5863 22.8112 22.5163 22.5233 22.5163 22.5233C22.5163 22.5233 22.4463 22.8112 22.3238 22.879C22.2013 22.9467 21.9563 22.9975 21.9563 23.4379C21.9563 23.8782 21.9563 24.7081 21.9563 24.7081H22.5163H23.0763C23.0763 24.7081 23.0763 23.8612 23.0763 23.4379C23.0763 22.9975 22.8313 22.9467 22.7088 22.879Z" fill="#DDE8FF"/>
<path d="M21.9562 22.9976H20.9061V24.7251H21.9562V22.9976Z" fill="#DDE8FF"/>
<path d="M21.9562 22.5911H20.9061V23.0314H21.9562V22.5911Z" fill="#DDE8FF"/>
<path d="M21.4312 21.9305C21.4312 21.9305 21.1511 22.4217 20.9061 22.5911H21.9562C21.7287 22.4217 21.4312 21.9305 21.4312 21.9305Z" fill="#DDE8FF"/>
<path d="M24.1264 22.9976H23.0763V24.7251H24.1264V22.9976Z" fill="#B0CBFF"/>
<path d="M24.1264 22.5911H23.0763V23.0314H24.1264V22.5911Z" fill="#B0CBFF"/>
<path d="M23.6014 20.1013C23.6014 20.1013 23.3214 22.4217 23.0763 22.5741H24.1264C23.8814 22.4217 23.6014 20.1013 23.6014 20.1013Z" fill="#DDE8FF"/>
<path d="M24.1264 28.9595H14.4308V29.1458H24.1264V28.9595Z" fill="#DDE8FF"/>
<path d="M10.8353 15.6133C8.14052 19.6322 8.88404 25.4578 9.76425 28.5332C9.90663 29.0307 10.3631 29.367 10.8866 29.3972C11.2111 29.4159 11.5437 29.3785 11.8229 29.2143C14.6221 27.5678 14.2105 21.31 13.6182 18.247L11.9297 20.1285L10.8353 15.6133Z" fill="#FFCC00"/>
<path d="M10.117 19.8818C8.26503 22.6438 8.77603 26.6476 9.38095 28.7612C9.4788 29.1031 9.79254 29.3343 10.1523 29.355C10.3753 29.3678 10.6039 29.3421 10.7958 29.2293C12.7196 28.0978 12.4367 23.797 12.0296 21.6918L10.8692 22.985L10.117 19.8818Z" fill="#FF6B0A"/>
<path d="M28.7967 3.73096C24.1391 10.6771 25.4242 20.7458 26.9456 26.0613C27.1917 26.9212 27.9806 27.5025 28.8852 27.5546C29.4462 27.5869 30.0211 27.5223 30.5037 27.2384C35.3417 24.3928 34.6302 13.577 33.6065 8.28305L30.6882 11.5351L28.7967 3.73096Z" fill="#FFCC00"/>
<path d="M27.5552 11.1085C24.3543 15.8824 25.2374 22.8022 26.2829 26.4552C26.4521 27.0462 26.9944 27.4458 27.616 27.4815C28.0016 27.5038 28.3967 27.4593 28.7283 27.2642C32.0532 25.3085 31.5643 17.8754 30.8608 14.2369L28.8552 16.472L27.5552 11.1085Z" fill="#FF6B0A"/>
</svg>
