<svg width="320" height="320" viewBox="0 0 320 320" fill="none" xmlns="http://www.w3.org/2000/svg">
<circle cx="160" cy="160" r="160" fill="#D0D0FF"/>
<rect x="135.981" y="45" width="16.3672" height="162.184" fill="#4C89FF"/>
<rect x="210.378" y="147.667" width="14.8793" height="87.7879" transform="rotate(90 210.378 147.667)" fill="#4C89FF"/>
<rect x="222.281" y="192.305" width="14.8793" height="86.3" transform="rotate(90 222.281 192.305)" fill="#4C89FF"/>
<rect x="247" y="278.488" width="14.8793" height="89.8257" transform="rotate(163.626 247 278.488)" fill="#4C89FF"/>
<rect x="171.691" y="122.372" width="14.8793" height="49.1017" transform="rotate(90 171.691 122.372)" fill="#4C89FF"/>
<rect x="171.691" y="47.9759" width="14.8793" height="35.7103" transform="rotate(90 171.691 47.9759)" fill="#4C89FF"/>
<path fill-rule="evenodd" clip-rule="evenodd" d="M171.691 47.9759C177.689 47.9759 183.638 49.1075 189.201 51.3157C194.765 53.524 199.847 56.7717 204.149 60.8936C208.451 65.0164 211.889 69.9354 214.243 75.3824C216.599 80.8307 217.817 86.6873 217.817 92.6138C217.817 98.5403 216.599 104.397 214.243 109.845C211.889 115.292 208.451 120.211 204.149 124.334C199.847 128.456 194.765 131.704 189.201 133.912C183.638 136.12 177.689 137.252 171.691 137.252V122.372C175.854 122.372 179.967 121.334 183.791 119.816C187.615 118.298 191.061 116.085 193.945 113.322C196.827 110.559 199.088 107.305 200.622 103.756C202.155 100.209 202.938 96.4241 202.938 92.6138C202.938 88.8035 202.155 85.0188 200.622 81.4715C199.088 77.9228 196.827 74.6683 193.945 71.9061C191.061 69.1431 187.615 66.9292 183.791 65.4115C179.967 63.8936 175.854 62.8552 171.691 62.8552V47.9759Z" fill="#4C89FF"/>
<path fill-rule="evenodd" clip-rule="evenodd" d="M125.056 181.787C115.959 183.977 107.662 188.685 101.114 195.37C94.5665 202.055 90.0329 210.448 88.0321 219.589C86.0313 228.731 86.644 238.25 89.8001 247.06C92.9563 255.869 98.5284 263.612 105.879 269.402C113.229 275.193 122.062 278.798 131.365 279.804C140.668 280.81 150.067 279.178 158.486 275.092C166.904 271.007 174.003 264.635 178.97 256.704C183.937 248.774 186.571 239.605 186.571 230.247H201.45C201.45 242.398 198.03 254.304 191.58 264.602C185.131 274.9 175.913 283.174 164.981 288.479C154.05 293.783 141.845 295.904 129.765 294.597C117.685 293.291 106.216 288.61 96.6711 281.09C87.1264 273.571 79.891 263.517 75.7927 252.078C71.6944 240.639 70.8988 228.278 73.4969 216.408C76.095 204.538 81.9818 193.639 90.4839 184.959C98.986 176.278 109.76 170.165 121.573 167.321L125.056 181.787Z" fill="#B0CBFF"/>
<path d="M196.322 35.7288C173.653 70.021 179.908 119.729 187.312 145.971C188.51 150.216 192.35 153.087 196.753 153.344C199.484 153.503 202.282 153.184 204.63 151.783C228.178 137.734 224.715 84.3377 219.733 58.202L205.528 74.257L196.322 35.7288Z" fill="#FFCC00"/>
<path d="M107.059 192.455C92.9107 213.857 96.8144 244.881 101.436 261.259C102.183 263.908 104.58 265.7 107.328 265.86C109.032 265.96 110.778 265.76 112.244 264.886C126.941 256.118 124.779 222.792 121.67 206.481L112.805 216.501L107.059 192.455Z" fill="#FFCC00"/>
<path d="M190.279 72.1512C174.699 95.7189 178.998 129.881 184.087 147.916C184.91 150.834 187.549 152.806 190.575 152.983C192.452 153.093 194.375 152.873 195.989 151.91C212.172 142.255 209.792 105.558 206.368 87.5962L196.606 98.6301L190.279 72.1512Z" fill="#FF6B0A"/>
<path d="M103.288 215.187C93.5642 229.896 96.2471 251.217 99.4231 262.473C99.9368 264.294 101.584 265.525 103.473 265.635C104.644 265.703 105.844 265.566 106.851 264.965C116.952 258.94 115.466 236.036 113.329 224.826L107.237 231.712L103.288 215.187Z" fill="#FF6B0A"/>
</svg>
