<svg width="146" height="151" viewBox="0 0 146 151" fill="none" xmlns="http://www.w3.org/2000/svg">
<g clip-path="url(#clip0_191923_7293)">
<rect x="61.7075" y="16" width="7.85542" height="77.84" fill="#EEF4FF"/>
<rect x="97.4141" y="65.2749" width="7.14129" height="42.1336" transform="rotate(90 97.4141 65.2749)" fill="#EEF4FF"/>
<rect x="103.127" y="86.6988" width="7.14129" height="41.4195" transform="rotate(90 103.127 86.6988)" fill="#EEF4FF"/>
<rect x="114.991" y="128.062" width="7.14129" height="43.1116" transform="rotate(163.626 114.991 128.062)" fill="#EEF4FF"/>
<rect x="78.8467" y="53.1347" width="7.14129" height="23.5663" transform="rotate(90 78.8467 53.1347)" fill="#EEF4FF"/>
<rect x="78.8467" y="17.4283" width="7.14129" height="17.1391" transform="rotate(90 78.8467 17.4283)" fill="#EEF4FF"/>
<path fill-rule="evenodd" clip-rule="evenodd" d="M78.8467 17.4283C81.7254 17.4283 84.5804 17.9714 87.2504 19.0312C89.9206 20.0911 92.3601 21.6498 94.4245 23.6281C96.4894 25.6068 98.1394 27.9677 99.2695 30.5819C100.4 33.1968 100.985 36.0077 100.985 38.8521C100.985 41.6965 100.4 44.5074 99.2695 47.1223C98.1394 49.7366 96.4894 52.0975 94.4245 54.0762C92.3601 56.0545 89.9206 57.6132 87.2504 58.6731C84.5804 59.7329 81.7254 60.276 78.8467 60.276V53.1347C80.8446 53.1347 82.8184 52.6363 84.6538 51.9078C86.489 51.1794 88.1432 50.1169 89.527 48.7907C90.9104 47.4651 91.9957 45.903 92.7319 44.1999C93.4678 42.4974 93.8434 40.6809 93.8434 38.8521C93.8434 37.0234 93.4678 35.2069 92.7319 33.5044C91.9957 31.8012 90.9104 30.2392 89.527 28.9135C88.1432 27.5874 86.489 26.5249 84.6538 25.7964C82.8184 25.0679 80.8446 24.5695 78.8467 24.5695V17.4283Z" fill="#EEF4FF"/>
<path fill-rule="evenodd" clip-rule="evenodd" d="M56.4643 81.6505C52.0979 82.7018 48.1157 84.961 44.9732 88.1696C41.8307 91.3782 39.6549 95.4065 38.6946 99.7938C37.7343 104.181 38.0283 108.75 39.5431 112.978C41.0579 117.206 43.7322 120.922 47.2601 123.701C50.788 126.481 55.027 128.211 59.4921 128.694C63.9571 129.177 68.468 128.393 72.5086 126.432C76.5491 124.472 79.9562 121.413 82.34 117.607C84.7237 113.801 85.9879 109.4 85.9879 104.909H93.1292C93.1292 110.741 91.4876 116.455 88.3923 121.397C85.297 126.34 80.8729 130.311 75.6262 132.857C70.3795 135.403 64.5221 136.421 58.7241 135.794C52.9262 135.166 47.4218 132.92 42.8409 129.311C38.2599 125.702 34.7872 120.877 32.8203 115.387C30.8533 109.897 30.4715 103.964 31.7184 98.2668C32.9654 92.5699 35.7908 87.3391 39.8713 83.1727C43.9519 79.0064 49.1228 76.0728 54.7925 74.7076L56.4643 81.6505Z" fill="#EBEBEB"/>
</g>
<defs>
<clipPath id="clip0_191923_7293">
<rect width="84" height="120" fill="white" transform="translate(31 16)"/>
</clipPath>
</defs>
</svg>
