<svg width="43" height="43" viewBox="0 0 43 43" fill="none" xmlns="http://www.w3.org/2000/svg">
<rect width="43" height="43" fill="white"/>
<path d="M20.8097 2.52942H18.2637V28.1688H20.8097V2.52942Z" fill="#4C89FF"/>
<path d="M29.8365 21.1121V18.7599H16.1807V21.1121H29.8365Z" fill="#4C89FF"/>
<path d="M31.6882 28.1689V25.8167H18.2637V28.1689H31.6882Z" fill="#4C89FF"/>
<path d="M33.3126 40.1043L35.5333 39.4412L31.5943 25.8167L29.3736 26.4798L33.3126 40.1043Z" fill="#4C89FF"/>
<path d="M23.8186 17.1133V14.7611H16.1806V17.1133H23.8186Z" fill="#4C89FF"/>
<path d="M23.8186 5.35212V2.99988L18.2637 2.99988V5.35212H23.8186Z" fill="#4C89FF"/>
<path fill-rule="evenodd" clip-rule="evenodd" d="M23.8186 2.99988C24.7516 2.99988 25.677 3.17877 26.5424 3.52786C27.4079 3.87697 28.1986 4.39039 28.8676 5.04201C29.5368 5.69378 30.0716 6.47142 30.438 7.33252C30.8043 8.19384 30.9938 9.1197 30.9938 10.0566C30.9938 10.9935 30.8043 11.9194 30.438 12.7807C30.0716 13.6418 29.5368 14.4194 28.8676 15.0712C28.1986 15.7228 27.4079 16.2363 26.5424 16.5854C25.677 16.9344 24.7516 17.1134 23.8186 17.1134V14.7611C24.4662 14.7611 25.106 14.5969 25.7008 14.357C26.2957 14.117 26.8317 13.7671 27.2803 13.3302C27.7286 12.8936 28.0804 12.3791 28.319 11.8181C28.5574 11.2573 28.6792 10.659 28.6792 10.0566C28.6792 9.45424 28.5574 8.85592 28.319 8.29514C28.0804 7.73413 27.7286 7.21963 27.2803 6.78296C26.8317 6.34616 26.2957 5.99617 25.7008 5.75624C25.106 5.51628 24.4662 5.35212 23.8186 5.35212V2.99988Z" fill="#4C89FF"/>
<path fill-rule="evenodd" clip-rule="evenodd" d="M16.5643 24.1538C15.1491 24.5001 13.8585 25.2443 12.84 26.3012C11.8214 27.358 11.1162 28.6848 10.805 30.1299C10.4937 31.5751 10.5891 33.08 11.08 34.4727C11.571 35.8653 12.4377 37.0894 13.5811 38.0047C14.7246 38.9202 16.0985 39.4901 17.5456 39.6492C18.9928 39.8082 20.4548 39.5502 21.7644 38.9043C23.074 38.2585 24.1782 37.2511 24.9509 35.9973C25.7235 34.7437 26.1333 33.2942 26.1333 31.8148H28.4478C28.4478 33.7357 27.9158 35.6179 26.9124 37.2459C25.9093 38.8739 24.4753 40.1819 22.7749 41.0206C21.0744 41.8591 19.1759 42.1944 17.2967 41.9878C15.4176 41.7813 13.6336 41.0413 12.1488 39.8525C10.6641 38.6638 9.53858 37.0744 8.90107 35.266C8.26356 33.4577 8.1398 31.5035 8.54395 29.627C8.94809 27.7505 9.86382 26.0275 11.1864 24.6553C12.5089 23.2829 14.1849 22.3165 16.0225 21.8669L16.5643 24.1538Z" fill="#B0CBFF"/>
<path d="M27.6501 1.06372C24.1238 6.48492 25.0968 14.3432 26.2486 18.4917C26.4349 19.1628 27.0322 19.6167 27.7172 19.6573C28.142 19.6824 28.5772 19.632 28.9425 19.4105C32.6055 17.1895 32.0668 8.74822 31.2918 4.61648L29.0822 7.15458L27.6501 1.06372Z" fill="#FFCC00"/>
<path d="M13.7647 25.8403C11.5639 29.2237 12.1712 34.1283 12.89 36.7174C13.0063 37.1362 13.3791 37.4195 13.8066 37.4448C14.0717 37.4606 14.3433 37.429 14.5714 37.2908C16.8575 35.9047 16.5213 30.6363 16.0376 28.0577L14.6585 29.6417L13.7647 25.8403Z" fill="#FFCC00"/>
<path d="M26.7101 6.82166C24.2867 10.5474 24.9552 15.9481 25.7469 18.7992C25.8749 19.2605 26.2854 19.5722 26.7563 19.6002C27.0481 19.6176 27.3472 19.5828 27.5983 19.4306C30.1158 17.9042 29.7456 12.1029 29.2128 9.26333L27.6943 11.0077L26.7101 6.82166Z" fill="#FF6B0A"/>
<path d="M13.1781 29.434C11.6655 31.7593 12.0829 35.1299 12.5769 36.9093C12.6568 37.1972 12.913 37.3918 13.2068 37.4092C13.389 37.4199 13.5757 37.3983 13.7324 37.3033C15.3036 36.3508 15.0725 32.7299 14.7401 30.9578L13.7923 32.0464L13.1781 29.434Z" fill="#FF6B0A"/>
</svg>
